<svg width="85" height="17" viewBox="0 0 85 17" fill="none" xmlns="http://www.w3.org/2000/svg">
<path d="M10.5703 5.4082H10.667L13.6104 16H16.6719L20.7861 0.499023H17.4238L14.9746 11.7246H14.8887L11.9883 0.499023H9.24902L6.34863 11.7246H6.2627L3.82422 0.499023H0.461914L4.56543 16H7.62695L10.5703 5.4082ZM26.1465 6.55762C27.543 6.55762 28.499 7.56738 28.5635 9.03906H23.6758C23.7832 7.59961 24.7715 6.55762 26.1465 6.55762ZM28.6064 12.4766C28.3164 13.3574 27.4355 13.9268 26.2861 13.9268C24.6855 13.9268 23.6436 12.7988 23.6436 11.1553V10.9619H31.582V10.0059C31.582 6.50391 29.4658 4.2373 26.1143 4.2373C22.709 4.2373 20.5605 6.62207 20.5605 10.2959C20.5605 13.9805 22.6875 16.2471 26.2324 16.2471C29.0791 16.2471 31.1416 14.7324 31.4854 12.4766H28.6064ZM40.0469 16.1826C42.9473 16.1826 44.7197 13.9482 44.7197 10.2422C44.7197 6.52539 42.9365 4.30176 40.0361 4.30176C38.3926 4.30176 37.1143 5.11816 36.4805 6.48242H36.416V0.499023H33.2793V16H36.373V14.0234H36.4375C37.0713 15.3662 38.3604 16.1826 40.0469 16.1826ZM38.9619 6.81543C40.5195 6.81543 41.5078 8.14746 41.5078 10.2422C41.5078 12.3477 40.5303 13.6582 38.9619 13.6582C37.4365 13.6582 36.4053 12.3262 36.4053 10.2422C36.4053 8.17969 37.4473 6.81543 38.9619 6.81543ZM46.6211 0.499023V16H52.54C57.1914 16 59.9307 13.1104 59.9307 8.19043C59.9307 3.27051 57.1914 0.499023 52.54 0.499023H46.6211ZM49.8652 3.17383H52.1533C55.0107 3.17383 56.6221 4.95703 56.6221 8.20117C56.6221 11.5527 55.0537 13.3145 52.1533 13.3145H49.8652V3.17383ZM66.9238 6.55762C68.3203 6.55762 69.2764 7.56738 69.3408 9.03906H64.4531C64.5605 7.59961 65.5488 6.55762 66.9238 6.55762ZM69.3838 12.4766C69.0938 13.3574 68.2129 13.9268 67.0635 13.9268C65.4629 13.9268 64.4209 12.7988 64.4209 11.1553V10.9619H72.3594V10.0059C72.3594 6.50391 70.2432 4.2373 66.8916 4.2373C63.4863 4.2373 61.3379 6.62207 61.3379 10.2959C61.3379 13.9805 63.4648 16.2471 67.0098 16.2471C69.8564 16.2471 71.9189 14.7324 72.2627 12.4766H69.3838ZM84.3369 4.48438H81.0605L78.6758 13.2285H78.6113L76.2158 4.48438H72.8535L76.8389 16H80.3838L84.3369 4.48438Z" fill="#D05F5F"/>
</svg>
