<svg width="253" height="51" viewBox="0 0 253 51" fill="none" xmlns="http://www.w3.org/2000/svg">
<path d="M54.6533 13.3594H44.8096L39.2383 40.5322H39.0332L32.5049 13.3594H22.9346L16.4404 40.5322H16.2354L10.6982 13.3594H0.649414L10.3906 50H20.8838L27.4805 24.0918H27.6855L34.3164 50H44.9463L54.6533 13.3594ZM74.4434 19.9561C78.8867 19.9561 81.9287 23.1689 82.1338 27.8516H66.582C66.9238 23.2715 70.0684 19.9561 74.4434 19.9561ZM82.2705 38.7891C81.3477 41.5918 78.5449 43.4033 74.8877 43.4033C69.7949 43.4033 66.4795 39.8145 66.4795 34.585V33.9697H91.7383V30.9277C91.7383 19.7852 85.0049 12.5732 74.3408 12.5732C63.5059 12.5732 56.6699 20.1611 56.6699 31.8506C56.6699 43.5742 63.4375 50.7861 74.7168 50.7861C83.7744 50.7861 90.3369 45.9668 91.4307 38.7891H82.2705ZM118.672 50.5811C127.9 50.5811 133.54 43.4717 133.54 31.6797C133.54 19.8535 127.866 12.7783 118.638 12.7783C113.408 12.7783 109.341 15.376 107.324 19.7168H107.119V0.678711H97.1387V50H106.982V43.7109H107.188C109.204 47.9834 113.306 50.5811 118.672 50.5811ZM115.22 20.7764C120.176 20.7764 123.32 25.0146 123.32 31.6797C123.32 38.3789 120.21 42.5488 115.22 42.5488C110.366 42.5488 107.085 38.3105 107.085 31.6797C107.085 25.1172 110.4 20.7764 115.22 20.7764ZM152.339 50.5811C157.739 50.5811 161.978 47.7441 163.755 43.7109H163.926V50H173.77V0.678711H163.789V19.6484H163.584C161.807 15.5811 157.705 12.7783 152.407 12.7783C143.213 12.7783 137.402 19.9902 137.402 31.6113C137.402 43.335 143.179 50.5811 152.339 50.5811ZM155.723 20.7764C160.679 20.7764 163.857 25.0146 163.857 31.6797C163.857 38.3789 160.679 42.5488 155.723 42.5488C150.698 42.5488 147.622 38.4131 147.622 31.6797C147.622 24.9805 150.698 20.7764 155.723 20.7764ZM196.875 19.9561C201.318 19.9561 204.36 23.1689 204.565 27.8516H189.014C189.355 23.2715 192.5 19.9561 196.875 19.9561ZM204.702 38.7891C203.779 41.5918 200.977 43.4033 197.319 43.4033C192.227 43.4033 188.911 39.8145 188.911 34.585V33.9697H214.17V30.9277C214.17 19.7852 207.437 12.5732 196.772 12.5732C185.938 12.5732 179.102 20.1611 179.102 31.8506C179.102 43.5742 185.869 50.7861 197.148 50.7861C206.206 50.7861 212.769 45.9668 213.862 38.7891H204.702ZM252.28 13.3594H241.855L234.268 41.1816H234.062L226.44 13.3594H215.742L228.423 50H239.702L252.28 13.3594Z" fill="#D05F5F"/>
</svg>
