<svg width="173" height="35" viewBox="0 0 173 35" fill="none" xmlns="http://www.w3.org/2000/svg">
<path d="M37.4766 8.875H30.7266L26.9062 27.5078H26.7656L22.2891 8.875H15.7266L11.2734 27.5078H11.1328L7.33594 8.875H0.445312L7.125 34H14.3203L18.8438 16.2344H18.9844L23.5312 34H30.8203L37.4766 8.875ZM51.0469 13.3984C54.0938 13.3984 56.1797 15.6016 56.3203 18.8125H45.6562C45.8906 15.6719 48.0469 13.3984 51.0469 13.3984ZM56.4141 26.3125C55.7812 28.2344 53.8594 29.4766 51.3516 29.4766C47.8594 29.4766 45.5859 27.0156 45.5859 23.4297V23.0078H62.9062V20.9219C62.9062 13.2812 58.2891 8.33594 50.9766 8.33594C43.5469 8.33594 38.8594 13.5391 38.8594 21.5547C38.8594 29.5938 43.5 34.5391 51.2344 34.5391C57.4453 34.5391 61.9453 31.2344 62.6953 26.3125H56.4141ZM81.375 34.3984C87.7031 34.3984 91.5703 29.5234 91.5703 21.4375C91.5703 13.3281 87.6797 8.47656 81.3516 8.47656C77.7656 8.47656 74.9766 10.2578 73.5938 13.2344H73.4531V0.179688H66.6094V34H73.3594V29.6875H73.5C74.8828 32.6172 77.6953 34.3984 81.375 34.3984ZM79.0078 13.9609C82.4062 13.9609 84.5625 16.8672 84.5625 21.4375C84.5625 26.0312 82.4297 28.8906 79.0078 28.8906C75.6797 28.8906 73.4297 25.9844 73.4297 21.4375C73.4297 16.9375 75.7031 13.9609 79.0078 13.9609ZM104.461 34.3984C108.164 34.3984 111.07 32.4531 112.289 29.6875H112.406V34H119.156V0.179688H112.312V13.1875H112.172C110.953 10.3984 108.141 8.47656 104.508 8.47656C98.2031 8.47656 94.2188 13.4219 94.2188 21.3906C94.2188 29.4297 98.1797 34.3984 104.461 34.3984ZM106.781 13.9609C110.18 13.9609 112.359 16.8672 112.359 21.4375C112.359 26.0312 110.18 28.8906 106.781 28.8906C103.336 28.8906 101.227 26.0547 101.227 21.4375C101.227 16.8438 103.336 13.9609 106.781 13.9609ZM135 13.3984C138.047 13.3984 140.133 15.6016 140.273 18.8125H129.609C129.844 15.6719 132 13.3984 135 13.3984ZM140.367 26.3125C139.734 28.2344 137.812 29.4766 135.305 29.4766C131.812 29.4766 129.539 27.0156 129.539 23.4297V23.0078H146.859V20.9219C146.859 13.2812 142.242 8.33594 134.93 8.33594C127.5 8.33594 122.812 13.5391 122.812 21.5547C122.812 29.5938 127.453 34.5391 135.188 34.5391C141.398 34.5391 145.898 31.2344 146.648 26.3125H140.367ZM172.992 8.875H165.844L160.641 27.9531H160.5L155.273 8.875H147.938L156.633 34H164.367L172.992 8.875Z" fill="#757575"/>
</svg>
