<svg width="161" height="17" viewBox="0 0 161 17" fill="none" xmlns="http://www.w3.org/2000/svg">
<path d="M8.14258 16.2686C11.9453 16.2686 14.5986 14.0771 14.9639 10.6182H11.8057C11.4619 12.4551 10.0762 13.583 8.15332 13.583C5.67188 13.583 4.11426 11.542 4.11426 8.2334C4.11426 4.96777 5.69336 2.91602 8.14258 2.91602C10.0332 2.91602 11.4941 4.16211 11.7949 6.06348H14.9531C14.7061 2.59375 11.8701 0.230469 8.14258 0.230469C3.65234 0.230469 0.805664 3.24902 0.805664 8.24414C0.805664 13.25 3.63086 16.2686 8.14258 16.2686ZM21.9893 16.2471C25.4697 16.2471 27.6934 14.0234 27.6934 10.2314C27.6934 6.49316 25.4375 4.2373 21.9893 4.2373C18.541 4.2373 16.2852 6.50391 16.2852 10.2314C16.2852 14.0127 18.5088 16.2471 21.9893 16.2471ZM21.9893 13.8516C20.4424 13.8516 19.4648 12.5518 19.4648 10.2422C19.4648 7.9541 20.4639 6.63281 21.9893 6.63281C23.5146 6.63281 24.5029 7.9541 24.5029 10.2422C24.5029 12.5518 23.5254 13.8516 21.9893 13.8516ZM29.3154 16H32.4521V9.56543C32.4521 7.94336 33.3545 6.99805 34.9014 6.99805C35.3525 6.99805 35.7822 7.07324 36.04 7.18066V4.41992C35.8252 4.35547 35.5137 4.30176 35.1484 4.30176C33.7949 4.30176 32.8174 5.09668 32.4092 6.55762H32.3447V4.48438H29.3154V16ZM37.3291 16H40.4658V9.39355C40.4658 7.90039 41.3574 6.86914 42.7646 6.86914C44.1719 6.86914 44.8809 7.72852 44.8809 9.23242V16H48.0176V8.57715C48.0176 5.88086 46.5781 4.26953 44.0215 4.26953C42.249 4.26953 41.0352 5.10742 40.4229 6.53613H40.3584V4.48438H37.3291V16ZM55.1719 6.55762C56.5684 6.55762 57.5244 7.56738 57.5889 9.03906H52.7012C52.8086 7.59961 53.7969 6.55762 55.1719 6.55762ZM57.6318 12.4766C57.3418 13.3574 56.4609 13.9268 55.3115 13.9268C53.7109 13.9268 52.6689 12.7988 52.6689 11.1553V10.9619H60.6074V10.0059C60.6074 6.50391 58.4912 4.2373 55.1396 4.2373C51.7344 4.2373 49.5859 6.62207 49.5859 10.2959C49.5859 13.9805 51.7129 16.2471 55.2578 16.2471C58.1045 16.2471 60.167 14.7324 60.5107 12.4766H57.6318ZM62.3047 16H65.4414V0.499023H62.3047V16ZM67.6328 16H70.7695V0.499023H67.6328V16Z" fill="#5E5E5E"/>
<path d="M86.7969 5.4082H86.8936L89.8369 16H92.8984L97.0127 0.499023H93.6504L91.2012 11.7246H91.1152L88.2148 0.499023H85.4756L82.5752 11.7246H82.4893L80.0508 0.499023H76.6885L80.792 16H83.8535L86.7969 5.4082ZM102.373 6.55762C103.77 6.55762 104.726 7.56738 104.79 9.03906H99.9023C100.01 7.59961 100.998 6.55762 102.373 6.55762ZM104.833 12.4766C104.543 13.3574 103.662 13.9268 102.513 13.9268C100.912 13.9268 99.8701 12.7988 99.8701 11.1553V10.9619H107.809V10.0059C107.809 6.50391 105.692 4.2373 102.341 4.2373C98.9355 4.2373 96.7871 6.62207 96.7871 10.2959C96.7871 13.9805 98.9141 16.2471 102.459 16.2471C105.306 16.2471 107.368 14.7324 107.712 12.4766H104.833ZM116.273 16.1826C119.174 16.1826 120.946 13.9482 120.946 10.2422C120.946 6.52539 119.163 4.30176 116.263 4.30176C114.619 4.30176 113.341 5.11816 112.707 6.48242H112.643V0.499023H109.506V16H112.6V14.0234H112.664C113.298 15.3662 114.587 16.1826 116.273 16.1826ZM115.188 6.81543C116.746 6.81543 117.734 8.14746 117.734 10.2422C117.734 12.3477 116.757 13.6582 115.188 13.6582C113.663 13.6582 112.632 12.3262 112.632 10.2422C112.632 8.17969 113.674 6.81543 115.188 6.81543ZM122.848 0.499023V16H128.767C133.418 16 136.157 13.1104 136.157 8.19043C136.157 3.27051 133.418 0.499023 128.767 0.499023H122.848ZM126.092 3.17383H128.38C131.237 3.17383 132.849 4.95703 132.849 8.20117C132.849 11.5527 131.28 13.3145 128.38 13.3145H126.092V3.17383ZM143.15 6.55762C144.547 6.55762 145.503 7.56738 145.567 9.03906H140.68C140.787 7.59961 141.775 6.55762 143.15 6.55762ZM145.61 12.4766C145.32 13.3574 144.439 13.9268 143.29 13.9268C141.689 13.9268 140.647 12.7988 140.647 11.1553V10.9619H148.586V10.0059C148.586 6.50391 146.47 4.2373 143.118 4.2373C139.713 4.2373 137.564 6.62207 137.564 10.2959C137.564 13.9805 139.691 16.2471 143.236 16.2471C146.083 16.2471 148.146 14.7324 148.489 12.4766H145.61ZM160.563 4.48438H157.287L154.902 13.2285H154.838L152.442 4.48438H149.08L153.065 16H156.61L160.563 4.48438Z" fill="#D05F5F"/>
</svg>
