<svg width="508" height="508" viewBox="0 0 508 508" fill="none" xmlns="http://www.w3.org/2000/svg">
<circle cx="254" cy="254" r="254" fill="#D05F5F" fill-opacity="0.2"/>
<path d="M250.367 406C361.026 406 450.734 397.25 450.734 386.457C450.734 375.663 361.026 366.914 250.367 366.914C139.707 366.914 50 375.663 50 386.457C50 397.25 139.707 406 250.367 406Z" fill="#3F3D56"/>
<path opacity="0.1" d="M190.81 397.928C242.968 397.928 285.251 391.556 285.251 383.695C285.251 375.835 242.968 369.463 190.81 369.463C138.652 369.463 96.3696 375.835 96.3696 383.695C96.3696 391.556 138.652 397.928 190.81 397.928Z" fill="black"/>
<path d="M143.747 213.776C99.394 213.776 63.4429 249.684 63.4429 293.975C63.4429 338.266 99.4111 374.174 143.747 374.174C149.211 374.176 154.662 373.624 160.015 372.526C152.374 359.981 148.343 345.574 148.367 330.89C148.367 292.169 175.848 259.855 212.399 252.344C205.241 240.564 195.162 230.826 183.137 224.07C171.111 217.314 157.545 213.769 143.747 213.776V213.776Z" fill="#D05F5F"/>
<path opacity="0.1" d="M71.5469 296.282C71.5469 251.991 107.502 216.087 151.851 216.087C156.168 216.088 160.479 216.433 164.741 217.119C157.896 215.278 150.836 214.348 143.747 214.354C99.3941 214.354 63.4429 250.262 63.4429 294.553C63.4429 334.489 92.6641 367.589 130.917 373.724C113.876 369.124 98.826 359.046 88.0947 345.048C77.3633 331.05 71.5477 313.912 71.5469 296.282V296.282Z" fill="black"/>
<path d="M212.016 251.762C223.813 244.613 233.564 234.548 240.33 222.538C247.095 210.528 250.646 196.979 250.639 183.199C250.639 138.908 214.688 103 170.335 103C125.982 103 90.0352 138.908 90.0352 183.199C90.0331 188.658 90.5861 194.103 91.6857 199.45C104.246 191.814 118.672 187.788 133.376 187.813C172.139 187.8 204.495 215.263 212.016 251.762Z" fill="#D05F5F"/>
<path opacity="0.1" d="M243.718 183.199C243.727 195.759 240.779 208.145 235.11 219.356C229.441 230.568 221.211 240.29 211.085 247.738C211.43 249.068 211.749 250.407 212.029 251.762C223.826 244.613 233.577 234.548 240.343 222.538C247.108 210.528 250.659 196.979 250.652 183.199C250.652 138.908 214.701 103 170.348 103C169.187 103 168.034 103.03 166.885 103.081C209.613 104.895 243.718 140.068 243.718 183.199Z" fill="black"/>
<path d="M208.511 287.827C207.195 288.498 205.945 289.289 204.776 290.19C203.6 291.098 202.701 292.314 202.176 293.703C201.449 292.195 201.053 290.555 200.568 288.953C199.639 286.047 198.543 283.197 197.284 280.418C199.357 279.628 201.153 278.25 202.453 276.454C205.005 278.982 207.605 281.616 208.868 284.951C209.085 285.529 209.719 286.145 209.868 286.651C210.068 287.403 209.064 287.522 208.511 287.827Z" fill="#FFBFC5"/>
<path d="M138.217 369.688C138.217 388.645 151.911 390.654 168.808 390.654C185.705 390.654 199.395 388.645 199.395 369.688C199.395 350.731 185.701 343.53 168.808 343.53C151.915 343.53 138.217 350.735 138.217 369.688Z" fill="#3F3D56"/>
<path d="M232.415 349.401C235.19 350.276 237.778 351.659 240.047 353.48C240.217 353.586 240.34 353.753 240.391 353.947C240.451 354.372 239.864 354.563 239.438 354.686C238.162 355.048 237.384 356.224 236.46 357.142C235.537 358.06 234.057 358.786 232.981 358.051C232.698 357.835 232.451 357.575 232.249 357.282L227.706 351.368C229.246 350.507 230.866 349.796 232.542 349.244" fill="#F1F1F1"/>
<path d="M240.587 350.633C241.191 351.245 241.438 352.129 242.042 352.758C242.438 353.137 242.892 353.451 243.386 353.688L246.866 355.6C247.406 355.919 247.976 356.186 248.568 356.394C249.222 356.581 249.889 356.723 250.563 356.819C251.528 357.005 252.472 357.29 253.379 357.669C254.06 357.949 254.821 358.429 254.817 359.164C254.787 359.526 254.638 359.867 254.391 360.133C253.022 361.858 250.593 362.257 248.397 362.474C243.65 362.975 238.792 363.349 234.151 362.232C233.244 362.065 232.387 361.695 231.645 361.148C230.245 359.989 229.943 357.877 230.488 356.139C230.636 355.472 231.031 354.884 231.594 354.495C232.33 354.07 233.244 354.27 234.091 354.206C234.982 354.081 235.846 353.803 236.643 353.386C237.175 353.148 237.784 352.838 237.92 352.209C238.056 351.581 237.337 351.037 237.494 350.51C237.792 349.325 240.034 350.068 240.587 350.633Z" fill="#575A89"/>
<path opacity="0.1" d="M240.587 350.633C241.191 351.245 241.438 352.129 242.042 352.758C242.438 353.137 242.892 353.451 243.386 353.688L246.866 355.6C247.406 355.919 247.976 356.186 248.568 356.394C249.222 356.581 249.889 356.723 250.563 356.819C251.528 357.005 252.472 357.29 253.379 357.669C254.06 357.949 254.821 358.429 254.817 359.164C254.787 359.526 254.638 359.867 254.391 360.133C253.022 361.858 250.593 362.257 248.397 362.474C243.65 362.975 238.792 363.349 234.151 362.232C233.244 362.065 232.387 361.695 231.645 361.148C230.245 359.989 229.943 357.877 230.488 356.139C230.636 355.472 231.031 354.884 231.594 354.495C232.33 354.07 233.244 354.27 234.091 354.206C234.982 354.081 235.846 353.803 236.643 353.386C237.175 353.148 237.784 352.838 237.92 352.209C238.056 351.581 237.337 351.037 237.494 350.51C237.792 349.325 240.034 350.068 240.587 350.633Z" fill="black"/>
<path d="M248.657 369.607L250.12 370.572C250.567 370.81 250.935 371.173 251.179 371.617C251.498 372.36 251.069 373.201 250.592 373.856C249.163 375.809 247.21 377.32 244.96 378.215C244.18 378.539 243.355 378.744 242.514 378.822C242.322 378.854 242.126 378.83 241.948 378.754C241.501 378.516 241.565 377.883 241.561 377.378C241.561 375.92 240.442 374.735 239.434 373.66C238.426 372.585 237.43 371.268 237.66 369.837C237.87 368.986 238.312 368.209 238.936 367.593C239.484 366.903 240.129 366.295 240.85 365.788C241.884 365.112 242.246 365.478 243.216 366.094C245.039 367.252 246.853 368.423 248.657 369.607Z" fill="#F1F1F1"/>
<path d="M243.909 376.719C244.306 376.82 244.722 376.825 245.122 376.735C245.522 376.645 245.895 376.462 246.21 376.201C246.839 375.674 247.348 375.02 247.704 374.281C248.061 373.627 248.371 372.948 248.631 372.25C248.937 371.43 249.218 370.525 249.941 370.028C250.792 369.424 252.043 369.662 252.919 370.244C253.795 370.827 254.459 371.689 255.212 372.437C256.986 374.204 259.322 375.321 261.721 376.052C264.12 376.783 266.609 377.148 269.072 377.62C269.566 377.686 270.044 377.84 270.484 378.074C271.48 378.682 271.816 380.037 271.535 381.167C271.254 382.298 270.518 383.232 269.714 384.082C269.044 384.875 268.213 385.516 267.277 385.964C266.486 386.252 265.654 386.41 264.814 386.431C260.733 386.706 256.635 386.386 252.647 385.48C251.183 385.08 249.694 384.784 248.189 384.592C247.274 384.511 246.347 384.536 245.432 384.473C243.605 384.347 241.818 383.877 240.165 383.088C239.764 382.939 239.426 382.657 239.208 382.289C239.088 381.951 239.063 381.587 239.136 381.235L239.744 375.908C239.8 375.445 239.953 374.867 240.416 374.795C240.88 374.722 241.174 375.177 241.45 375.525C241.987 376.166 242.721 376.61 243.538 376.789C244.355 376.967 245.208 376.869 245.964 376.511" fill="#575A89"/>
<path d="M208.584 309.533C211.259 309.232 214.365 309.181 216.177 311.173C217.287 312.397 217.623 314.109 218.006 315.711C218.607 318.405 219.583 321.003 220.908 323.426C221.758 324.93 222.792 326.336 223.46 327.934C224.128 329.531 224.379 331.332 224.77 333.07C226.338 339.885 230.167 345.97 235.635 350.336C234.67 352.957 231.875 354.457 229.156 355.128C228.5 355.345 227.795 355.367 227.127 355.192C226.621 354.973 226.171 354.642 225.813 354.223C224.542 352.852 223.359 351.403 222.269 349.886C218.351 344.66 214.378 339.328 212.242 333.163C211.493 330.997 210.745 328.49 208.639 327.568C207.439 327.05 206.065 327.211 204.776 327.432C201.896 327.919 199.061 328.645 196.302 329.603C193.358 330.627 189.989 331.885 187.296 330.321C185.684 329.382 184.744 327.585 184.374 325.758C184.004 323.931 184.191 322.045 184.374 320.193C184.392 319.358 184.592 318.537 184.961 317.788C185.334 317.227 185.812 316.744 186.369 316.365C188.775 314.545 191.45 313.112 194.298 312.116C197.017 311.156 199.944 310.842 202.781 310.362C204.707 310.027 206.641 309.751 208.584 309.533Z" fill="#575A89"/>
<path opacity="0.1" d="M208.584 309.533C211.259 309.232 214.365 309.181 216.177 311.173C217.287 312.397 217.623 314.109 218.006 315.711C218.607 318.405 219.583 321.003 220.908 323.426C221.758 324.93 222.792 326.336 223.46 327.934C224.128 329.531 224.379 331.332 224.77 333.07C226.338 339.885 230.167 345.97 235.635 350.336C234.67 352.957 231.875 354.457 229.156 355.128C228.5 355.345 227.795 355.367 227.127 355.192C226.621 354.973 226.171 354.642 225.813 354.223C224.542 352.852 223.359 351.403 222.269 349.886C218.351 344.66 214.378 339.328 212.242 333.163C211.493 330.997 210.745 328.49 208.639 327.568C207.439 327.05 206.065 327.211 204.776 327.432C201.896 327.919 199.061 328.645 196.302 329.603C193.358 330.627 189.989 331.885 187.296 330.321C185.684 329.382 184.744 327.585 184.374 325.758C184.004 323.931 184.191 322.045 184.374 320.193C184.392 319.358 184.592 318.537 184.961 317.788C185.334 317.227 185.812 316.744 186.369 316.365C188.775 314.545 191.45 313.112 194.298 312.116C197.017 311.156 199.944 310.842 202.781 310.362C204.707 310.027 206.641 309.751 208.584 309.533Z" fill="black"/>
<path d="M223.907 328.813C225.156 329.437 226.303 330.246 227.31 331.213C228.395 332.369 229.054 333.86 229.615 335.347C229.836 335.854 229.971 336.394 230.015 336.945C230.036 337.22 229.993 337.496 229.891 337.752C229.788 338.008 229.629 338.238 229.424 338.423C228.93 338.747 228.341 338.897 227.752 338.848C226.978 338.848 226.199 338.848 225.425 338.788C224.954 338.785 224.487 338.696 224.047 338.525C223.644 338.32 223.281 338.045 222.975 337.714C221.611 336.448 220.493 334.942 219.678 333.27C219.116 332.033 218.189 329.178 219.074 327.891C219.959 326.604 222.945 328.265 223.907 328.813Z" fill="#FFBFC5"/>
<path d="M186.373 328.371C190.333 329.646 194.549 329.782 198.688 330.168C205.65 330.819 212.528 332.177 219.214 334.221C220.584 334.646 221.984 335.105 223.085 336.018C223.981 336.845 224.739 337.809 225.332 338.873C226.419 340.528 227.404 342.247 228.28 344.023C229.033 345.629 229.607 347.311 230.305 348.938C232.655 354.389 236.372 359.143 241.097 362.742C241.948 363.4 242.922 364.114 243.143 365.172C243.244 365.854 243.133 366.551 242.824 367.169C241.803 369.543 239.685 371.273 237.46 372.594C236.507 373.163 235.452 373.737 234.984 374.748C231.606 373.354 229.092 370.38 227.003 367.389C224.915 364.399 223.056 361.174 220.376 358.693C219.197 357.597 217.857 356.645 216.925 355.328C215.509 353.323 215.126 350.578 213.22 349.032C211.314 347.485 208.541 347.685 206.078 347.927C193.458 349.156 180.742 349.013 168.153 347.502C165.536 347.192 162.848 346.793 160.58 345.446C158.313 344.099 156.547 341.584 156.866 338.971C157.169 336.524 159.206 334.587 161.482 333.631C163.758 332.675 166.268 332.501 168.714 332.225C174.802 331.553 180.613 330.449 186.373 328.371Z" fill="#575A89"/>
<path d="M150.175 333.448C150.485 331.375 151.289 329.412 151.796 327.377C152.048 326.096 152.369 324.83 152.757 323.583C152.757 323.545 152.787 323.511 152.8 323.477C152.928 323.466 153.052 323.428 153.164 323.364C153.276 323.3 153.372 323.212 153.446 323.107C153.516 322.926 153.535 322.729 153.502 322.538C153.487 322.336 153.487 322.133 153.502 321.93C154.331 320.543 155.237 319.202 156.216 317.915C157.917 315.49 159.415 312.911 160.895 310.336C162.112 308.212 163.328 306.113 164.332 303.895C165.09 302.234 165.723 300.497 166.557 298.891C169.535 293.113 174.861 288.851 180.596 285.792C186.1 282.857 192.052 280.881 197.837 278.544C197.985 278.692 198.12 278.851 198.242 279.02C201.368 283.29 201.704 288.898 202.993 294.03C203.512 296.104 204.206 298.168 204.206 300.301C204.206 303.454 202.696 306.385 201.194 309.159C199.786 311.772 198.335 314.385 196.468 316.692C195.583 317.788 194.609 318.816 193.72 319.9C190.07 324.365 187.964 329.858 185.913 335.249C184.731 338.372 182.791 341.138 181.489 344.214C180.987 345.395 180.698 346.665 180.068 347.787C179.439 348.908 178.345 349.886 177.061 349.911C176.685 349.899 176.312 349.841 175.95 349.737C171.301 348.543 167.408 345.488 163.545 342.625C162.852 342.115 162.159 341.614 161.418 341.155C160.678 340.696 159.929 340.275 159.172 339.88L157.445 338.933C155.565 337.905 153.676 336.872 151.715 336.001C151.123 335.771 150.553 335.486 150.013 335.152C150.019 334.58 150.073 334.01 150.175 333.448Z" fill="#3F3D56"/>
<path d="M210.957 287.471C216.873 287.471 221.669 282.681 221.669 276.773C221.669 270.865 216.873 266.075 210.957 266.075C205.041 266.075 200.245 270.865 200.245 276.773C200.245 282.681 205.041 287.471 210.957 287.471Z" fill="#FFBFC5"/>
<path d="M218.168 271.768C218.428 272.218 218.821 272.578 219.292 272.799C219.764 273.02 220.292 273.092 220.805 273.004C221.316 272.902 221.8 272.693 222.225 272.39C222.649 272.088 223.005 271.699 223.268 271.25C223.789 270.348 224.101 269.34 224.179 268.301C224.268 267.49 224.255 266.602 223.732 265.969C223.334 265.58 222.876 265.259 222.375 265.017C221.682 264.592 221.099 264.01 220.673 263.318C220.376 262.821 220.159 262.281 219.891 261.771C218.916 259.923 217.019 258.419 214.93 258.487C213.926 258.521 212.969 258.912 211.978 259.074C208.656 259.656 205.048 257.901 201.964 259.269C201.207 259.637 200.503 260.106 199.871 260.662C199.003 261.379 198.169 262.132 197.369 262.923C196.675 263.513 196.15 264.277 195.847 265.136C195.421 266.708 196.421 268.463 195.787 269.958C195.572 270.387 195.314 270.792 195.017 271.169C194.319 272.193 195.077 276.191 195.017 277.427C194.93 278.027 195.083 278.638 195.442 279.127C195.949 279.692 196.795 279.738 197.569 279.747H198.961C199.168 279.762 199.377 279.741 199.577 279.683C199.851 279.563 200.092 279.38 200.279 279.148C201.436 277.928 201.683 273.948 203.363 273.965C203.62 273.948 203.875 274.013 204.091 274.152C204.393 274.372 204.482 274.785 204.699 275.09C204.946 275.382 205.279 275.586 205.651 275.673C206.022 275.76 206.412 275.726 206.762 275.575C207.456 275.253 208.059 274.766 208.519 274.156C208.977 273.546 209.531 273.017 210.161 272.588C211.059 272.066 212.072 271.84 212.944 271.25C213.671 270.757 214.084 270.043 214.739 269.499C215.394 268.956 215.947 269.032 216.645 269.393C217.653 269.95 217.695 270.833 218.168 271.768Z" fill="#3F3D56"/>
<path opacity="0.1" d="M193.418 290.615C195.918 290.258 198.467 290.461 200.879 291.209C201.685 291.395 202.412 291.827 202.96 292.446C203.273 292.913 203.476 293.444 203.555 294.001C204.047 296.56 203.73 299.208 202.649 301.58C202.573 301.698 202.523 301.831 202.501 301.97C202.48 302.109 202.488 302.251 202.526 302.387C202.636 302.557 202.781 302.702 202.951 302.812C203.101 302.957 203.219 303.132 203.296 303.325C203.374 303.519 203.409 303.726 203.401 303.934C203.393 304.143 203.34 304.347 203.247 304.533C203.154 304.72 203.023 304.885 202.862 305.017C202.662 305.161 202.398 305.289 202.36 305.531C202.321 305.773 202.568 306.007 202.764 306.194C203.049 306.473 203.26 306.819 203.375 307.201C203.491 307.583 203.509 307.987 203.427 308.378C203.322 308.691 203.249 309.014 203.21 309.342C203.253 309.745 203.373 310.136 203.564 310.493C203.889 311.301 203.999 312.179 203.883 313.042C203.78 313.45 203.769 313.875 203.853 314.287C203.972 314.559 204.133 314.812 204.329 315.035C205.099 316.072 205.265 317.805 204.151 318.434C204.628 318.679 205.017 319.067 205.263 319.544C205.51 320.021 205.601 320.562 205.525 321.093C206.193 320.741 207.001 321.195 207.558 321.705C208.115 322.215 208.681 322.844 209.434 322.882C209.962 322.907 210.519 322.636 210.995 322.852C211.727 323.179 211.702 324.365 212.421 324.717C213.05 325.032 213.931 324.522 214.467 324.977C214.654 325.134 214.748 325.376 214.93 325.542C215.335 325.915 215.973 325.758 216.526 325.733C217.832 325.682 219.036 326.582 219.712 327.679C220.388 328.775 220.631 330.113 220.805 331.405C220.949 332.114 220.934 332.847 220.763 333.55C220.672 333.9 220.481 334.215 220.213 334.457C219.944 334.698 219.61 334.856 219.253 334.91C212.68 335.334 206.193 333.758 199.79 332.203C197.91 331.744 196 331.209 194.43 330.079C193.005 329.047 191.958 327.594 190.937 326.166C189.053 323.528 187.156 320.872 185.807 317.928C184.071 314.143 183.297 309.996 182.54 305.896C182.279 304.798 182.186 303.666 182.263 302.54C182.493 301.223 182.997 299.97 183.744 298.861C184.645 297.392 185.639 295.983 186.722 294.642C188.368 292.616 190.831 290.984 193.418 290.615Z" fill="black"/>
<path d="M193.847 290.19C196.349 289.833 198.9 290.038 201.313 290.789C202.119 290.971 202.847 291.402 203.393 292.021C203.705 292.489 203.908 293.02 203.989 293.576C204.479 296.135 204.162 298.783 203.083 301.155C203.007 301.273 202.956 301.407 202.935 301.546C202.914 301.685 202.922 301.827 202.959 301.962C203.069 302.132 203.214 302.277 203.385 302.387C203.535 302.532 203.652 302.707 203.73 302.9C203.808 303.094 203.843 303.301 203.835 303.51C203.826 303.718 203.774 303.922 203.681 304.108C203.588 304.295 203.457 304.46 203.296 304.592C203.096 304.737 202.832 304.864 202.794 305.106C202.755 305.348 203.002 305.582 203.219 305.769C203.504 306.048 203.715 306.394 203.831 306.776C203.947 307.158 203.964 307.562 203.883 307.953C203.777 308.266 203.704 308.589 203.666 308.917C203.706 309.32 203.825 309.711 204.014 310.068C204.343 310.876 204.454 311.754 204.338 312.618C204.206 312.957 204.178 313.327 204.258 313.682C204.338 314.036 204.521 314.36 204.784 314.61C205.554 315.647 205.72 317.38 204.606 318.034C205.083 318.279 205.473 318.666 205.719 319.142C205.965 319.618 206.057 320.159 205.98 320.69C206.648 320.337 207.456 320.792 208.013 321.302C208.571 321.811 209.136 322.44 209.889 322.478C210.417 322.504 210.97 322.232 211.451 322.449C212.182 322.78 212.157 323.961 212.876 324.318C213.505 324.628 214.386 324.118 214.922 324.573C215.109 324.73 215.203 324.972 215.386 325.138C215.79 325.512 216.428 325.355 216.981 325.329C218.287 325.278 219.491 326.179 220.167 327.275C220.783 328.429 221.155 329.697 221.26 331.001C221.397 331.704 221.382 332.428 221.218 333.125C221.128 333.475 220.936 333.79 220.668 334.032C220.399 334.274 220.065 334.431 219.708 334.485C213.135 334.91 206.648 333.333 200.245 331.778C198.365 331.32 196.451 330.784 194.885 329.654C193.46 328.626 192.414 327.169 191.393 325.741C189.508 323.107 187.611 320.452 186.262 317.508C184.527 313.718 183.752 309.571 182.995 305.476C182.734 304.376 182.641 303.243 182.719 302.115C182.936 300.8 183.427 299.545 184.161 298.432C185.059 296.963 186.054 295.555 187.139 294.217C188.802 292.182 191.265 290.555 193.847 290.19Z" fill="#3F3D56"/>
<path d="M436.772 215.208C437.922 214.989 439.015 214.537 439.983 213.879C440.951 213.222 441.773 212.373 442.4 211.386C443.026 210.398 443.442 209.292 443.624 208.137C443.805 206.982 443.747 205.803 443.453 204.671C443.159 203.539 442.636 202.48 441.916 201.558C441.196 200.637 440.294 199.872 439.266 199.313C438.238 198.753 437.107 198.41 435.941 198.305C434.775 198.2 433.6 198.335 432.488 198.702C435.821 203.527 437.338 209.373 436.772 215.208V215.208Z" fill="#F1F1F1"/>
<path d="M450.041 211.754C451.191 211.535 452.283 211.083 453.251 210.425C454.219 209.768 455.042 208.919 455.668 207.931C456.294 206.944 456.711 205.838 456.892 204.683C457.073 203.528 457.015 202.349 456.722 201.217C456.428 200.085 455.905 199.026 455.185 198.104C454.464 197.183 453.563 196.418 452.535 195.859C451.507 195.299 450.375 194.956 449.209 194.851C448.043 194.746 446.868 194.881 445.757 195.248C449.09 200.073 450.607 205.919 450.041 211.754V211.754Z" fill="#F1F1F1"/>
<path d="M436.772 215.208C434.638 215.613 432.43 215.193 430.595 214.033C428.76 212.872 427.435 211.058 426.89 208.958C426.345 206.859 426.621 204.63 427.66 202.726C428.7 200.821 430.426 199.383 432.488 198.702C429.6 194.526 425.498 191.335 420.737 189.561C415.975 187.787 410.783 187.515 405.862 188.782C416.132 202.484 420.856 219.548 419.092 236.573C423.834 235.175 428.051 232.395 431.201 228.588C434.35 224.782 436.291 220.122 436.772 215.208V215.208Z" fill="#F1F1F1"/>
<path d="M283.706 222.269C278.92 223.292 274.543 225.704 271.125 229.203C267.707 232.702 265.401 237.131 264.495 241.935C266.554 241.891 268.56 242.591 270.144 243.905C271.729 245.22 272.785 247.061 273.119 249.091C273.453 251.12 273.043 253.203 271.963 254.955C270.884 256.706 269.208 258.011 267.243 258.627C270.057 263.652 274.536 267.541 279.91 269.626C285.283 271.711 291.217 271.862 296.689 270.052C286.51 256.316 281.876 239.259 283.706 222.269V222.269Z" fill="#F1F1F1"/>
<path d="M264.503 241.935C263.275 241.957 262.066 242.243 260.958 242.773C259.85 243.303 258.869 244.066 258.083 245.008C257.296 245.95 256.722 247.051 256.399 248.235C256.076 249.418 256.012 250.658 256.211 251.868C256.41 253.079 256.868 254.233 257.554 255.251C258.239 256.269 259.136 257.128 260.184 257.769C261.231 258.411 262.404 258.819 263.624 258.967C264.844 259.115 266.081 258.999 267.252 258.627C264.411 253.555 263.438 247.649 264.503 241.935V241.935Z" fill="#F1F1F1"/>
<path d="M248.853 245.631C247.624 245.653 246.415 245.939 245.307 246.469C244.199 247 243.219 247.762 242.432 248.704C241.645 249.647 241.071 250.747 240.748 251.931C240.425 253.115 240.361 254.354 240.56 255.565C240.759 256.775 241.217 257.929 241.903 258.947C242.588 259.965 243.485 260.824 244.533 261.466C245.58 262.107 246.754 262.515 247.973 262.663C249.193 262.811 250.43 262.696 251.601 262.324C248.762 257.25 247.79 251.345 248.853 245.631Z" fill="#F1F1F1"/>
<path d="M379.887 167.832L366.099 184.703C366.761 185.739 367.343 186.824 367.839 187.949L383.018 169.379C381.975 168.814 380.942 168.295 379.887 167.832Z" fill="#F1F1F1"/>
<path d="M419.092 236.573C415.935 237.49 412.627 237.771 409.36 237.4C406.094 237.03 402.933 236.015 400.062 234.414C397.192 232.814 394.668 230.66 392.637 228.078C390.606 225.495 389.11 222.536 388.234 219.371C387.358 216.207 387.12 212.9 387.534 209.642C387.947 206.385 389.005 203.242 390.645 200.397C392.285 197.551 394.475 195.059 397.087 193.065C399.699 191.071 402.682 189.615 405.862 188.782C400.36 181.478 393.451 175.347 385.54 170.751L389.275 173.797L369.962 197.428C370.067 202.091 368.852 206.689 366.458 210.694C364.065 214.699 360.588 217.948 356.428 220.069C352.268 222.189 347.594 223.095 342.942 222.682C338.29 222.269 333.849 220.553 330.129 217.733C326.409 214.912 323.561 211.101 321.913 206.737C320.264 202.373 319.881 197.633 320.809 193.062C321.736 188.49 323.936 184.273 327.155 180.894C330.375 177.514 334.483 175.111 339.009 173.959L337.456 172.684L346.39 161.761C330.503 162.927 315.529 169.621 304.075 180.677C292.622 191.734 285.413 206.452 283.706 222.269C289.922 220.925 296.418 222.015 301.853 225.314C307.288 228.614 311.247 233.871 312.914 240.001C314.58 246.131 313.827 252.666 310.81 258.258C307.793 263.85 302.741 268.071 296.698 270.052C304.867 281.062 316.177 289.35 329.145 293.828C342.113 298.306 356.133 298.766 369.368 295.146C382.602 291.526 394.431 283.996 403.305 273.543C412.178 263.091 417.681 250.204 419.092 236.573V236.573ZM345.39 281.518C341.585 278.418 338.785 274.26 337.346 269.57C335.907 264.881 335.893 259.87 337.305 255.172C338.717 250.475 341.493 246.301 345.281 243.178C349.068 240.056 353.698 238.126 358.584 237.631C363.471 237.137 368.394 238.101 372.732 240.401C377.07 242.701 380.627 246.234 382.954 250.553C385.281 254.873 386.273 259.784 385.805 264.667C385.337 269.549 383.43 274.184 380.325 277.984C376.161 283.078 370.142 286.313 363.59 286.976C357.039 287.639 350.492 285.676 345.39 281.518V281.518Z" fill="#F1F1F1"/>
<path d="M360.339 162.169C358.992 161.991 357.639 161.849 356.281 161.744L346.888 173.241C348.206 173.329 349.515 173.524 350.801 173.823L360.339 162.169Z" fill="#F1F1F1"/>
<path d="M360.964 178.879L372.395 164.892C371.221 164.51 370.041 164.162 368.855 163.847L358.19 176.894C359.115 177.464 360.001 178.093 360.845 178.777L360.964 178.879Z" fill="#F1F1F1"/>
</svg>
