<svg width="508" height="508" viewBox="0 0 508 508" fill="none" xmlns="http://www.w3.org/2000/svg">
<circle cx="254" cy="254" r="254" fill="#D05F5F" fill-opacity="0.2"/>
<g clip-path="url(#clip0)">
<path d="M442.544 201.445C442.544 215.554 439.206 227.169 433.414 237.118C431.503 240.395 429.333 243.514 426.926 246.446C405.636 272.511 366.056 286.777 330.282 309.885C224.685 378.095 213.247 268.796 218.016 201.445C219.94 174.268 230.513 149.375 247.309 130.314C250.837 126.306 254.647 122.556 258.711 119.093C277.78 102.837 302.416 93 330.282 93C378.091 93 418.918 121.865 435.106 162.542C440.027 174.92 442.551 188.122 442.544 201.445V201.445Z" fill="#D05F5F"/>
<path d="M354.201 117.44L247.309 130.314C250.837 126.306 254.647 122.556 258.711 119.093L354.201 117.44Z" fill="#D0CDE1"/>
<path d="M433.414 237.118C431.503 240.395 429.333 243.514 426.926 246.446L335.364 235.421L433.414 237.118Z" fill="#D0CDE1"/>
<path d="M438.841 173.727L283.664 153.579L435.106 162.542C436.56 166.197 437.807 169.931 438.841 173.727V173.727Z" fill="#D0CDE1"/>
<path d="M228.542 121.886C228.542 122.163 228.534 122.436 228.51 122.705C228.389 124.371 227.898 125.989 227.073 127.441C226.248 128.893 225.11 130.142 223.741 131.098C222.373 132.054 220.809 132.693 219.163 132.967C217.516 133.242 215.83 133.145 214.226 132.684C212.622 132.224 211.141 131.411 209.89 130.305C208.639 129.199 207.651 127.827 206.997 126.291C206.343 124.754 206.039 123.09 206.109 121.421C206.178 119.752 206.618 118.12 207.397 116.643C207.639 116.18 207.915 115.736 208.223 115.315C209.565 113.452 211.446 112.045 213.611 111.285C215.776 110.525 218.123 110.449 220.333 111.065C222.543 111.682 224.512 112.962 225.973 114.733C227.433 116.505 228.316 118.682 228.502 120.972C228.53 121.272 228.542 121.577 228.542 121.886Z" fill="#D05F5F"/>
<path d="M228.543 121.886C228.543 122.163 228.534 122.436 228.51 122.705L211.71 120.683L228.502 120.972C228.53 121.272 228.543 121.577 228.543 121.886Z" fill="#D0CDE1"/>
<path d="M224.535 127.547L208.992 129.421C208.551 128.928 208.154 128.398 207.806 127.836L224.535 127.547Z" fill="#D0CDE1"/>
<path d="M220.126 115.11L207.397 116.643C207.639 116.18 207.915 115.736 208.223 115.315L220.126 115.11Z" fill="#D0CDE1"/>
<path d="M382.334 324.134C382.205 324.379 382.07 324.616 381.923 324.842C381.035 326.257 379.844 327.456 378.435 328.351C377.026 329.247 375.436 329.816 373.779 330.019C372.123 330.221 370.442 330.051 368.86 329.521C367.277 328.991 365.833 328.114 364.631 326.955C363.43 325.795 362.502 324.382 361.916 322.818C361.329 321.254 361.098 319.579 361.24 317.915C361.382 316.25 361.893 314.638 362.736 313.197C363.578 311.755 364.732 310.519 366.112 309.58C366.542 309.285 366.993 309.022 367.463 308.795C369.521 307.779 371.841 307.419 374.109 307.764C376.378 308.109 378.486 309.142 380.15 310.724C381.814 312.305 382.953 314.36 383.414 316.61C383.875 318.861 383.635 321.198 382.727 323.308C382.611 323.587 382.479 323.862 382.334 324.134Z" fill="#D05F5F"/>
<path d="M382.334 324.134C382.204 324.379 382.07 324.616 381.923 324.842L368.029 315.173L382.727 323.308C382.611 323.587 382.479 323.862 382.334 324.134Z" fill="#D0CDE1"/>
<path d="M376.143 327.254L361.537 321.616C361.378 320.974 361.276 320.319 361.231 319.659L376.143 327.254Z" fill="#D0CDE1"/>
<path d="M378.073 314.2L366.112 309.58C366.542 309.285 366.994 309.022 367.463 308.795L378.073 314.2Z" fill="#D0CDE1"/>
<path d="M461.813 130.492C462.006 130.69 462.191 130.891 462.361 131.1C463.436 132.378 464.213 133.879 464.636 135.495C465.058 137.111 465.114 138.802 464.802 140.442C464.489 142.083 463.814 143.634 462.827 144.98C461.84 146.327 460.565 147.437 459.096 148.228C457.626 149.02 455.999 149.473 454.332 149.555C452.665 149.637 451.001 149.346 449.461 148.703C447.921 148.06 446.543 147.082 445.429 145.838C444.314 144.595 443.491 143.119 443.018 141.517C442.868 141.016 442.756 140.506 442.683 139.989C442.344 137.717 442.71 135.396 443.73 133.338C444.75 131.281 446.376 129.586 448.389 128.483C450.401 127.379 452.703 126.92 454.985 127.167C457.266 127.414 459.417 128.356 461.147 129.865C461.377 130.061 461.598 130.271 461.813 130.492Z" fill="#D05F5F"/>
<path d="M461.813 130.492C462.007 130.69 462.191 130.891 462.361 131.1L448.923 141.395L461.147 129.865C461.377 130.061 461.598 130.271 461.813 130.492Z" fill="#D0CDE1"/>
<path d="M462.893 137.345L453.073 149.549C452.413 149.505 451.759 149.403 451.118 149.244L462.893 137.345Z" fill="#D0CDE1"/>
<path d="M451.062 131.523L443.018 141.517C442.868 141.016 442.756 140.506 442.683 139.989L451.062 131.523Z" fill="#D0CDE1"/>
<path d="M251.285 337.504C251.285 337.504 275.911 338.531 275.911 344.694C275.911 350.857 248.207 344.694 248.207 344.694L251.285 337.504Z" fill="#A0616A"/>
<path d="M214.346 432L168.173 428.919L166.12 404.267L155.86 425.837L110.712 419.674C111.738 380.644 128.155 342.64 129.181 337.504C130.207 332.368 132.66 311.148 132.66 311.148C137.144 301.626 160.641 300.733 179.059 301.596C186.693 301.945 193.466 302.602 197.642 303.075C200.402 303.383 202.033 303.609 202.033 303.609C209.39 311.199 214.131 321.542 217.045 333.098C227.552 374.727 214.346 432 214.346 432Z" fill="#2F2E41"/>
<path d="M163.042 193.706C177.209 193.706 188.694 182.209 188.694 168.028C188.694 153.846 177.209 142.35 163.042 142.35C148.875 142.35 137.39 153.846 137.39 168.028C137.39 182.209 148.875 193.706 163.042 193.706Z" fill="#A0616A"/>
<path d="M145.599 174.191C145.599 174.191 138.416 206.032 127.129 215.276C115.842 224.52 171.251 215.276 171.251 215.276C171.251 215.276 158.938 194.733 168.173 185.489C177.407 176.245 145.599 174.191 145.599 174.191Z" fill="#A0616A"/>
<path d="M197.929 305.663L180.906 307.553L133.286 312.853C133.286 312.853 133.06 312.247 132.66 311.148C129.202 301.709 112.549 255.775 110.712 241.981C108.66 226.574 130.207 208.086 130.207 208.086C130.207 208.086 150.729 203.977 156.886 203.977C163.042 203.977 187.668 213.221 187.668 213.221L196.852 295.916L197.642 303.075L197.929 305.663Z" fill="#D0CDE1"/>
<path opacity="0.15" d="M217.045 333.098L182.538 312.853C182.538 312.853 181.932 310.881 180.906 307.553C180.393 305.889 179.767 303.876 179.059 301.596C175.078 288.798 168.398 267.68 163.042 252.252C154.833 228.628 194.851 294.365 194.851 294.365L196.852 295.916L197.642 303.075C200.402 303.383 202.033 303.609 202.033 303.609C209.39 311.199 214.131 321.542 217.045 333.098Z" fill="black"/>
<path d="M171.251 215.276C171.251 215.276 160.99 228.628 169.199 252.252C177.407 275.876 188.694 312.853 188.694 312.853L248.207 347.775L256.416 337.504L201.007 294.365C201.007 294.365 198.955 216.303 188.694 213.221C178.433 210.14 171.251 215.276 171.251 215.276Z" fill="#D0CDE1"/>
<path d="M120.46 305.15C120.46 305.15 134.825 334.936 140.981 331.855C147.138 328.773 125.59 297.96 125.59 297.96L120.46 305.15Z" fill="#A0616A"/>
<path d="M118.92 223.493L64.538 268.686C64.538 268.686 44.0163 283.066 81.9814 293.338C119.947 303.609 123.025 309.772 123.025 309.772C123.025 309.772 127.129 296.419 132.26 298.473L88.1379 276.903L124.051 255.334L118.92 223.493Z" fill="#D0CDE1"/>
<path d="M97.0636 189.104C99.9179 187.689 106.221 184.833 111.589 181.393C111.213 170.201 112.59 160.041 116.62 154.655C118.882 149.513 123.633 144.365 127.353 140.311C136.49 130.356 156.694 124.799 160.277 129.773C187.38 130.308 190.233 151.575 190.233 151.575C190.092 160.47 180.857 160.751 172.767 160.427C173.491 166.499 171.561 172.809 165.97 175.607C155.279 180.958 152.071 187.915 157.417 192.731C162.762 197.547 172.385 210.389 159.555 213.6C146.726 216.81 145.122 223.232 148.864 225.907C152.606 228.583 140.311 221.091 140.311 221.091C140.311 221.091 138.173 233.934 126.947 230.723C125.941 230.435 124.936 229.698 123.947 228.595C120.915 231.93 118.211 233.902 116.172 233.913C104.497 233.975 105.897 221.031 105.897 221.031C105.897 221.031 92.04 224.926 96.364 223.36C100.688 221.793 100.873 215.177 89.3837 208.623C77.8941 202.068 90.6189 192.298 97.0636 189.104Z" fill="#2F2E41"/>
<path d="M240.306 222.656L240.119 222.631L240.573 224.359C241.003 226.769 241.626 229.141 242.437 231.45L255.753 282.123C256.179 283.741 257.066 285.199 258.307 286.318C259.548 287.438 261.088 288.17 262.739 288.426L289.896 292.632C291.652 292.903 293.449 292.623 295.039 291.829C296.629 291.034 297.933 289.766 298.772 288.198L324.579 239.945C325.386 238.608 326.123 237.23 326.787 235.817L327.663 234.179L327.526 234.161C330.262 227.682 331.466 220.659 331.045 213.639C330.624 206.618 328.589 199.789 325.098 193.686C321.607 187.582 316.756 182.367 310.921 178.448C305.087 174.53 298.427 172.013 291.461 171.094C284.495 170.175 277.411 170.879 270.761 173.151C264.112 175.423 258.076 179.201 253.125 184.192C248.174 189.182 244.441 195.25 242.218 201.922C239.994 208.593 239.34 215.689 240.306 222.656H240.306Z" fill="#3F3D56"/>
<path d="M291.562 295.942C291.084 295.942 290.607 295.905 290.134 295.832L261.748 291.436C259.945 291.157 258.262 290.357 256.907 289.135C255.552 287.912 254.583 286.32 254.119 284.553L240.2 231.587C239.349 229.162 238.696 226.672 238.245 224.142L237.893 221.825C236.946 214.422 237.731 206.9 240.186 199.853C242.64 192.806 246.698 186.427 252.038 181.219C257.378 176.011 263.854 172.116 270.956 169.843C278.057 167.57 285.589 166.98 292.957 168.121L292.834 168.914C285.546 167.79 278.097 168.386 271.08 170.655C264.063 172.924 257.674 176.803 252.42 181.983C247.167 187.163 243.196 193.5 240.824 200.489C238.451 207.478 237.743 214.925 238.757 222.236L239.027 223.97C239.474 226.478 240.123 228.947 240.966 231.351L254.895 284.349C255.319 285.964 256.205 287.42 257.444 288.539C258.683 289.657 260.221 290.388 261.87 290.643L290.256 295.039C292.01 295.309 293.803 295.028 295.391 294.235C296.978 293.442 298.28 292.176 299.119 290.612L299.826 290.99C299.024 292.486 297.832 293.736 296.377 294.608C294.922 295.48 293.258 295.941 291.562 295.942V295.942Z" fill="#D0CDE1"/>
<path d="M298.763 234.173L281.491 281.381L282.465 281.738L299.737 234.53L298.763 234.173Z" fill="#D0CDE1"/>
<path d="M270.562 229.805L269.526 229.851L271.731 280.077L272.766 280.031L270.562 229.805Z" fill="#D0CDE1"/>
<path d="M289.163 319.955L252.789 314.322C252.519 314.279 252.276 314.13 252.115 313.908C251.954 313.687 251.887 313.41 251.929 313.139C251.971 312.868 252.118 312.625 252.339 312.462C252.559 312.299 252.835 312.231 253.106 312.271L289.48 317.904C289.615 317.924 289.745 317.971 289.862 318.041C289.979 318.112 290.081 318.205 290.162 318.315C290.243 318.425 290.302 318.55 290.334 318.683C290.367 318.816 290.373 318.954 290.352 319.089C290.331 319.224 290.284 319.354 290.212 319.471C290.141 319.588 290.048 319.689 289.937 319.77C289.827 319.85 289.701 319.908 289.568 319.94C289.436 319.972 289.298 319.977 289.163 319.955V319.955Z" fill="#3F3D56"/>
<path d="M290.095 312.223L253.722 306.59C253.587 306.57 253.457 306.524 253.34 306.453C253.223 306.382 253.121 306.289 253.04 306.179C252.959 306.069 252.9 305.944 252.868 305.811C252.835 305.678 252.829 305.54 252.85 305.405C252.871 305.27 252.918 305.14 252.989 305.023C253.06 304.907 253.154 304.805 253.264 304.725C253.375 304.644 253.5 304.586 253.633 304.554C253.766 304.523 253.904 304.517 254.039 304.539L290.413 310.172C290.548 310.192 290.678 310.239 290.795 310.309C290.912 310.38 291.014 310.473 291.095 310.583C291.176 310.693 291.234 310.818 291.267 310.951C291.299 311.084 291.305 311.222 291.285 311.357C291.264 311.492 291.216 311.622 291.145 311.739C291.074 311.856 290.98 311.957 290.87 312.038C290.759 312.118 290.634 312.176 290.501 312.208C290.368 312.24 290.23 312.245 290.095 312.223V312.223Z" fill="#3F3D56"/>
<path d="M291.028 304.491L254.655 298.858C254.384 298.815 254.142 298.666 253.981 298.444C253.82 298.223 253.753 297.946 253.794 297.675C253.836 297.404 253.984 297.161 254.204 296.998C254.425 296.835 254.701 296.767 254.972 296.807L291.345 302.44C291.616 302.483 291.858 302.632 292.019 302.854C292.18 303.076 292.247 303.352 292.205 303.623C292.163 303.894 292.016 304.138 291.796 304.3C291.575 304.463 291.299 304.532 291.028 304.491H291.028Z" fill="#3F3D56"/>
<path d="M269.845 324.455C277.06 325.572 283.531 322.453 284.299 317.487L258.171 313.441C257.404 318.406 262.631 323.337 269.845 324.455Z" fill="#3F3D56"/>
<path d="M282.92 224.228C281.368 223.988 280.084 222.76 279.38 221.937C279.149 221.667 278.925 221.387 278.699 221.106C277.88 220.085 277.106 219.12 276.028 218.617C273.648 217.506 270.845 219.058 268.417 220.723L267.831 219.867C270.5 218.036 273.612 216.344 276.466 217.676C277.763 218.282 278.65 219.387 279.508 220.456C279.726 220.728 279.944 221 280.168 221.262C280.9 222.117 282.359 223.504 283.924 223.184C284.583 222.992 285.196 222.667 285.725 222.229C286.129 221.928 286.555 221.659 287 221.424C287.903 220.99 288.914 220.834 289.906 220.974C290.898 221.115 291.826 221.545 292.574 222.212C292.84 222.465 293.093 222.733 293.33 223.013C293.797 223.545 294.237 224.048 294.81 224.23C295.657 224.501 296.553 224.016 297.502 223.504C298.481 222.976 299.492 222.429 300.64 222.564C300.677 222.568 300.715 222.573 300.752 222.579C302.794 222.895 303.736 225.156 304.268 226.843L303.28 227.156C302.556 224.862 301.674 223.722 300.519 223.595C299.697 223.498 298.87 223.945 297.995 224.417C296.897 225.011 295.762 225.624 294.495 225.219C293.648 224.949 293.09 224.313 292.551 223.698C292.338 223.446 292.112 223.206 291.874 222.978C291.279 222.456 290.544 222.119 289.76 222.008C288.976 221.897 288.177 222.017 287.461 222.354C287.064 222.565 286.684 222.807 286.324 223.076C285.68 223.602 284.933 223.985 284.132 224.201C283.733 224.282 283.322 224.291 282.92 224.228Z" fill="#D0CDE1"/>
</g>
<defs>
<clipPath id="clip0">
<rect width="406" height="339" fill="white" transform="translate(59 93)"/>
</clipPath>
</defs>
</svg>
