<svg width="508" height="508" viewBox="0 0 508 508" fill="none" xmlns="http://www.w3.org/2000/svg">
<circle cx="254" cy="254" r="254" fill="#D05F5F" fill-opacity="0.2"/>
<g clip-path="url(#clip0_1_1123)">
<path d="M232.748 172.065H231.109V127.052C231.109 123.631 230.437 120.243 229.131 117.082C227.825 113.922 225.911 111.05 223.497 108.631C221.084 106.211 218.219 104.292 215.066 102.983C211.913 101.674 208.534 101 205.121 101H109.988C106.576 101 103.196 101.674 100.043 102.983C96.8901 104.292 94.0251 106.211 91.6118 108.631C89.1986 111.05 87.2843 113.922 85.9782 117.083C84.6722 120.243 84 123.631 84 127.052V373.997C84 377.418 84.6722 380.806 85.9782 383.967C87.2843 387.128 89.1986 390 91.6119 392.419C94.0251 394.838 96.8901 396.757 100.043 398.066C103.196 399.376 106.576 400.049 109.988 400.049H205.121C208.534 400.049 211.913 399.376 215.066 398.066C218.219 396.757 221.084 394.838 223.497 392.419C225.911 390 227.825 387.128 229.131 383.967C230.437 380.806 231.109 377.418 231.109 373.997V204.106H232.748V172.065Z" fill="#E6E6E6"/>
<path d="M206.169 107.778H193.752C194.323 109.181 194.541 110.704 194.386 112.212C194.232 113.72 193.71 115.167 192.867 116.425C192.023 117.683 190.884 118.714 189.55 119.426C188.215 120.139 186.727 120.512 185.214 120.512H130.714C129.202 120.512 127.714 120.139 126.379 119.426C125.045 118.714 123.906 117.683 123.062 116.425C122.219 115.167 121.697 113.72 121.543 112.212C121.388 110.704 121.606 109.181 122.177 107.778H110.579C108.03 107.778 105.507 108.281 103.152 109.259C100.797 110.237 98.6578 111.67 96.8556 113.476C95.0534 115.283 93.6238 117.428 92.6485 119.788C91.6732 122.149 91.1711 124.679 91.1711 127.233V373.816C91.1711 376.371 91.6731 378.901 92.6485 381.261C93.6238 383.622 95.0534 385.766 96.8556 387.573C98.6578 389.38 100.797 390.813 103.152 391.791C105.507 392.768 108.03 393.272 110.579 393.272H206.169C208.718 393.272 211.242 392.768 213.597 391.791C215.951 390.813 218.091 389.38 219.893 387.573C221.695 385.766 223.125 383.622 224.1 381.261C225.075 378.901 225.577 376.371 225.577 373.816V127.233C225.577 124.679 225.075 122.149 224.1 119.788C223.125 117.428 221.695 115.283 219.893 113.476C218.091 111.67 215.951 110.237 213.596 109.259C211.242 108.281 208.718 107.778 206.169 107.778V107.778Z" fill="white"/>
<path d="M130.211 157.905H124.504C124.303 157.905 124.111 157.985 123.969 158.128C123.827 158.27 123.747 158.463 123.747 158.664V161.175C123.747 161.376 123.827 161.569 123.969 161.712C124.111 161.854 124.303 161.934 124.504 161.934H125.45V165.697H129.266V161.934H130.211C130.412 161.934 130.605 161.854 130.746 161.712C130.888 161.569 130.968 161.376 130.968 161.175V158.664C130.968 158.463 130.888 158.27 130.746 158.128C130.605 157.985 130.412 157.905 130.211 157.905V157.905Z" fill="#E6E6E6"/>
<path d="M135.928 180.889C132.433 175.762 130.646 169.657 130.823 163.449C130.826 163.306 130.78 163.166 130.692 163.053C130.604 162.94 130.48 162.862 130.34 162.83V161.745H124.312V162.815H124.229C124.065 162.815 123.908 162.881 123.792 162.997C123.676 163.114 123.611 163.271 123.612 163.436C123.612 163.451 123.612 163.466 123.613 163.481C124.088 170.117 122.485 176.068 118.803 181.334C118.591 181.637 118.483 182 118.494 182.37L119.153 202.808C119.169 203.264 119.36 203.696 119.686 204.014C120.012 204.332 120.448 204.512 120.903 204.515H134.537C134.997 204.512 135.438 204.328 135.765 204.003C136.092 203.679 136.28 203.239 136.288 202.778L136.542 182.934C136.55 182.205 136.335 181.492 135.928 180.889Z" fill="#E6E6E6"/>
<path d="M133.77 187.678H121.902C121.727 187.678 121.553 187.716 121.394 187.789C121.234 187.863 121.092 187.97 120.978 188.104C120.863 188.238 120.779 188.394 120.731 188.564C120.683 188.733 120.672 188.911 120.698 189.085L122.492 200.77H132.789L134.967 189.124C135 188.948 134.994 188.766 134.949 188.593C134.904 188.419 134.822 188.257 134.707 188.119C134.593 187.981 134.45 187.87 134.288 187.794C134.126 187.717 133.949 187.678 133.77 187.678V187.678Z" fill="white"/>
<path d="M193.746 219.131H188.038C187.838 219.131 187.645 219.211 187.503 219.353C187.361 219.495 187.282 219.688 187.282 219.889V222.401C187.282 222.602 187.361 222.795 187.503 222.937C187.645 223.079 187.838 223.159 188.038 223.159H188.984V226.922H192.8V223.159H193.746C193.947 223.159 194.139 223.079 194.281 222.937C194.423 222.795 194.503 222.602 194.503 222.401V219.889C194.503 219.688 194.423 219.495 194.281 219.353C194.139 219.211 193.947 219.131 193.746 219.131Z" fill="#E6E6E6"/>
<path d="M199.462 242.114C195.967 236.987 194.18 230.882 194.358 224.674C194.361 224.531 194.314 224.391 194.226 224.278C194.138 224.166 194.014 224.087 193.875 224.055V222.97H187.847V224.04H187.764C187.683 224.04 187.602 224.057 187.527 224.088C187.452 224.119 187.384 224.165 187.327 224.222C187.269 224.28 187.224 224.349 187.193 224.424C187.162 224.499 187.146 224.58 187.146 224.661C187.146 224.676 187.147 224.691 187.148 224.706C187.623 231.342 186.019 237.293 182.337 242.559C182.125 242.862 182.017 243.225 182.029 243.595L182.688 264.033C182.704 264.489 182.894 264.921 183.221 265.239C183.547 265.557 183.983 265.737 184.438 265.741H198.072C198.532 265.737 198.972 265.553 199.299 265.228C199.626 264.904 199.814 264.464 199.822 264.003L200.076 244.159C200.084 243.431 199.87 242.717 199.462 242.114V242.114Z" fill="#E6E6E6"/>
<path d="M197.304 248.903H185.437C185.261 248.903 185.088 248.941 184.928 249.015C184.768 249.088 184.627 249.196 184.512 249.329C184.398 249.463 184.314 249.62 184.265 249.789C184.217 249.958 184.206 250.136 184.233 250.31L186.026 261.995H196.323L198.502 250.35C198.535 250.173 198.529 249.992 198.484 249.818C198.439 249.644 198.356 249.483 198.242 249.344C198.127 249.206 197.984 249.095 197.822 249.019C197.66 248.943 197.483 248.903 197.304 248.903H197.304Z" fill="white"/>
<path d="M122.188 305.685H119.48C119.385 305.685 119.294 305.723 119.226 305.79C119.159 305.858 119.121 305.949 119.121 306.045V307.236C119.121 307.332 119.159 307.423 119.226 307.491C119.294 307.558 119.385 307.596 119.48 307.596H119.929V309.381H121.739V307.596H122.188C122.283 307.596 122.374 307.558 122.441 307.491C122.509 307.423 122.546 307.332 122.546 307.236V306.045C122.546 305.949 122.509 305.858 122.441 305.79C122.374 305.723 122.283 305.685 122.188 305.685Z" fill="#E6E6E6"/>
<path d="M124.899 316.587C123.241 314.155 122.394 311.259 122.478 308.315C122.479 308.247 122.457 308.18 122.416 308.127C122.374 308.073 122.315 308.036 122.249 308.021V307.506H119.389V308.014H119.35C119.311 308.014 119.273 308.022 119.238 308.037C119.202 308.051 119.17 308.073 119.143 308.1C119.115 308.128 119.094 308.16 119.079 308.196C119.064 308.232 119.057 308.27 119.057 308.308C119.057 308.316 119.057 308.323 119.058 308.33C119.322 311.335 118.513 314.336 116.776 316.798C116.675 316.942 116.624 317.114 116.63 317.29L116.942 326.984C116.95 327.201 117.04 327.406 117.195 327.556C117.35 327.707 117.556 327.793 117.772 327.794H124.239C124.458 327.793 124.667 327.705 124.822 327.551C124.977 327.397 125.066 327.189 125.07 326.97L125.19 317.557C125.194 317.212 125.092 316.873 124.899 316.587V316.587Z" fill="#E6E6E6"/>
<path d="M123.968 320.151H117.798V323.244H123.968V320.151Z" fill="white"/>
<path d="M134.79 305.685H132.083C131.988 305.685 131.896 305.723 131.829 305.79C131.762 305.858 131.724 305.949 131.724 306.045V307.236C131.724 307.332 131.762 307.423 131.829 307.491C131.896 307.558 131.988 307.596 132.083 307.596H132.531V309.381H134.341V307.596H134.79C134.885 307.596 134.977 307.558 135.044 307.491C135.111 307.423 135.149 307.332 135.149 307.236V306.045C135.149 305.949 135.111 305.858 135.044 305.79C134.977 305.723 134.885 305.685 134.79 305.685Z" fill="#E6E6E6"/>
<path d="M137.502 316.587C135.844 314.155 134.996 311.259 135.08 308.315C135.082 308.247 135.06 308.18 135.018 308.127C134.976 308.073 134.917 308.036 134.851 308.021V307.506H131.992V308.014H131.953C131.914 308.014 131.876 308.022 131.84 308.037C131.805 308.051 131.772 308.073 131.745 308.1C131.718 308.128 131.696 308.16 131.682 308.196C131.667 308.232 131.659 308.27 131.66 308.308C131.66 308.316 131.66 308.323 131.66 308.33C131.924 311.335 131.116 314.336 129.378 316.798C129.278 316.942 129.227 317.114 129.232 317.29L129.545 326.984C129.552 327.201 129.643 327.406 129.797 327.556C129.952 327.707 130.159 327.793 130.375 327.794H136.842C137.06 327.793 137.269 327.705 137.424 327.551C137.58 327.397 137.669 327.189 137.672 326.97L137.793 317.557C137.797 317.212 137.695 316.873 137.502 316.587Z" fill="#E6E6E6"/>
<path d="M136.571 320.151H130.4V323.244H136.571V320.151Z" fill="white"/>
<path d="M147.392 305.685H144.685C144.59 305.685 144.499 305.723 144.431 305.79C144.364 305.858 144.326 305.949 144.326 306.045V307.236C144.326 307.332 144.364 307.423 144.431 307.491C144.499 307.558 144.59 307.596 144.685 307.596H145.134V309.381H146.944V307.596H147.392C147.488 307.596 147.579 307.558 147.646 307.491C147.714 307.423 147.751 307.332 147.751 307.236V306.045C147.751 305.949 147.714 305.858 147.646 305.79C147.579 305.723 147.488 305.685 147.392 305.685Z" fill="#E6E6E6"/>
<path d="M150.104 316.587C148.446 314.155 147.599 311.259 147.683 308.315C147.684 308.247 147.662 308.18 147.621 308.127C147.579 308.073 147.52 308.036 147.454 308.021V307.506H144.594V308.014H144.555C144.517 308.014 144.478 308.022 144.443 308.037C144.407 308.051 144.375 308.073 144.348 308.1C144.321 308.128 144.299 308.16 144.284 308.196C144.27 308.232 144.262 308.27 144.262 308.308C144.262 308.316 144.262 308.323 144.263 308.33C144.527 311.335 143.718 314.336 141.981 316.798C141.88 316.942 141.829 317.114 141.835 317.29L142.147 326.984C142.155 327.201 142.245 327.406 142.4 327.556C142.555 327.707 142.761 327.793 142.977 327.794H149.444C149.663 327.793 149.872 327.705 150.027 327.551C150.182 327.397 150.271 327.189 150.275 326.97L150.396 317.557C150.399 317.212 150.297 316.873 150.104 316.587Z" fill="#E6E6E6"/>
<path d="M149.173 320.151H143.003V323.244H149.173V320.151Z" fill="white"/>
<path d="M183.831 281.999H178.123C178.024 281.999 177.926 282.019 177.834 282.057C177.742 282.095 177.659 282.151 177.588 282.222C177.518 282.292 177.462 282.376 177.424 282.468C177.386 282.56 177.367 282.658 177.367 282.758V285.269C177.367 285.471 177.446 285.663 177.588 285.806C177.73 285.948 177.923 286.028 178.123 286.028H179.069V289.791H182.885V286.028H183.831C184.031 286.028 184.224 285.948 184.366 285.806C184.508 285.663 184.587 285.471 184.587 285.269V282.758C184.587 282.658 184.568 282.56 184.53 282.468C184.492 282.376 184.436 282.292 184.366 282.222C184.296 282.151 184.212 282.095 184.12 282.057C184.029 282.019 183.93 281.999 183.831 281.999V281.999Z" fill="#E6E6E6"/>
<path d="M189.547 304.983C186.052 299.856 184.265 293.751 184.443 287.543C184.446 287.4 184.399 287.26 184.311 287.147C184.223 287.034 184.099 286.956 183.96 286.924V285.839H177.932V286.909H177.849C177.768 286.909 177.687 286.925 177.612 286.957C177.537 286.988 177.469 287.034 177.412 287.091C177.354 287.149 177.309 287.217 177.278 287.293C177.247 287.368 177.231 287.449 177.231 287.53C177.231 287.545 177.232 287.56 177.233 287.575C177.708 294.211 176.104 300.162 172.422 305.428C172.21 305.731 172.102 306.094 172.114 306.464L172.773 326.902C172.789 327.358 172.979 327.79 173.305 328.108C173.632 328.426 174.068 328.606 174.523 328.609H188.157C188.617 328.606 189.057 328.422 189.384 328.097C189.711 327.773 189.899 327.333 189.907 326.872L190.161 307.028C190.169 306.299 189.955 305.586 189.547 304.983Z" fill="#E6E6E6"/>
<path d="M187.389 311.772H175.522C175.346 311.772 175.173 311.81 175.013 311.884C174.853 311.957 174.712 312.064 174.597 312.198C174.483 312.332 174.399 312.489 174.35 312.658C174.302 312.827 174.291 313.005 174.318 313.179L176.111 324.864H186.408L188.587 313.218C188.62 313.042 188.613 312.86 188.569 312.687C188.524 312.513 188.441 312.351 188.327 312.213C188.212 312.075 188.069 311.964 187.907 311.888C187.745 311.811 187.568 311.772 187.389 311.772V311.772Z" fill="white"/>
<path d="M186.947 207.146H152.925C155.304 194.255 154.756 178.688 152.925 161.947H186.947C185.164 178.688 184.631 194.255 186.947 207.146Z" fill="#E6E6E6"/>
<path d="M170.141 191.532C174.668 191.532 178.339 187.853 178.339 183.314C178.339 178.775 174.668 175.096 170.141 175.096C165.613 175.096 161.943 178.775 161.943 183.314C161.943 187.853 165.613 191.532 170.141 191.532Z" fill="white"/>
<path d="M155.794 267.139H121.773C124.151 254.247 123.604 238.68 121.773 221.939H155.794C154.012 238.68 153.479 254.247 155.794 267.139Z" fill="#E6E6E6"/>
<path d="M138.988 251.524C143.516 251.524 147.186 247.845 147.186 243.306C147.186 238.768 143.516 235.088 138.988 235.088C134.461 235.088 130.79 238.768 130.79 243.306C130.79 247.845 134.461 251.524 138.988 251.524Z" fill="white"/>
<path d="M206.212 210.023H172.19C174.569 197.131 174.022 181.564 172.19 164.823H206.212C204.429 181.564 203.897 197.131 206.212 210.023Z" fill="#E6E6E6"/>
<path d="M189.406 194.408C193.934 194.408 197.604 190.729 197.604 186.19C197.604 181.651 193.934 177.972 189.406 177.972C184.878 177.972 181.208 181.651 181.208 186.19C181.208 190.729 184.878 194.408 189.406 194.408Z" fill="white"/>
<path d="M206.212 207.968H172.19C174.569 195.077 174.022 179.51 172.19 162.768H206.212C204.429 179.51 203.897 195.077 206.212 207.968Z" fill="#E6E6E6"/>
<path d="M189.406 192.354C193.934 192.354 197.604 188.674 197.604 184.136C197.604 179.597 193.934 175.918 189.406 175.918C184.878 175.918 181.208 179.597 181.208 184.136C181.208 188.674 184.878 192.354 189.406 192.354Z" fill="white"/>
<path d="M206.212 210.023H172.19C174.569 197.131 174.022 181.564 172.19 164.823H206.212C204.429 181.564 203.897 197.131 206.212 210.023Z" fill="#E6E6E6"/>
<path d="M189.406 194.408C193.934 194.408 197.604 190.729 197.604 186.19C197.604 181.651 193.934 177.972 189.406 177.972C184.878 177.972 181.208 181.651 181.208 186.19C181.208 190.729 184.878 194.408 189.406 194.408Z" fill="white"/>
<path d="M214 204.681H102.507V217.008H214V204.681Z" fill="#E6E6E6"/>
<path d="M214 265.906H102.507V278.233H214V265.906Z" fill="#E6E6E6"/>
<path d="M214 327.131H102.507V339.459H214V327.131Z" fill="#E6E6E6"/>
<path d="M407.947 377.142L380.17 357.448C389.538 348.3 398.059 335.274 406.207 320.546L433.983 340.24C422.884 352.876 413.482 365.277 407.947 377.142Z" fill="#D05F5F"/>
<path d="M407.954 356.175C412.482 356.175 416.152 352.495 416.152 347.956C416.152 343.418 412.482 339.738 407.954 339.738C403.427 339.738 399.756 343.418 399.756 347.956C399.756 352.495 403.427 356.175 407.954 356.175Z" fill="white"/>
<path d="M273.957 287.273H270.908C270.801 287.273 270.698 287.316 270.622 287.392C270.546 287.468 270.504 287.571 270.504 287.679V289.02C270.504 289.073 270.514 289.126 270.534 289.175C270.555 289.224 270.585 289.269 270.622 289.307C270.66 289.344 270.704 289.374 270.753 289.395C270.802 289.415 270.855 289.425 270.908 289.425H271.413V291.436H273.452V289.425H273.957C274.064 289.425 274.167 289.383 274.243 289.307C274.319 289.231 274.361 289.128 274.361 289.02V287.679C274.361 287.571 274.319 287.468 274.243 287.392C274.167 287.316 274.064 287.273 273.957 287.273V287.273Z" fill="#E6E6E6"/>
<path d="M277.011 299.552C275.144 296.812 274.189 293.551 274.284 290.235C274.286 290.158 274.261 290.084 274.214 290.023C274.167 289.963 274.1 289.921 274.026 289.904V289.325H270.806V289.896H270.761C270.718 289.896 270.675 289.905 270.635 289.922C270.595 289.938 270.558 289.963 270.528 289.993C270.497 290.024 270.473 290.061 270.456 290.101C270.44 290.141 270.431 290.184 270.431 290.228C270.431 290.236 270.432 290.244 270.432 290.252C270.729 293.636 269.819 297.016 267.862 299.789C267.749 299.951 267.691 300.145 267.697 300.342L268.05 311.261C268.058 311.504 268.16 311.735 268.334 311.905C268.508 312.075 268.741 312.171 268.984 312.173H276.268C276.514 312.171 276.749 312.073 276.924 311.9C277.098 311.726 277.199 311.491 277.203 311.245L277.339 300.644C277.343 300.255 277.228 299.874 277.011 299.552V299.552Z" fill="#D05F5F"/>
<path opacity="0.2" d="M273.321 287.711C273.321 287.942 273.229 288.165 273.066 288.329C272.902 288.493 272.681 288.585 272.449 288.585C272.218 288.585 271.996 288.493 271.833 288.329C271.669 288.165 271.577 287.942 271.577 287.711" fill="black"/>
<path d="M275.592 301.655H269.444V305.764H275.592V301.655Z" fill="white"/>
<path d="M370.443 329.927H364.736C364.535 329.927 364.343 330.007 364.201 330.149C364.059 330.292 363.979 330.484 363.979 330.686V333.197C363.979 333.398 364.059 333.591 364.201 333.733C364.343 333.876 364.535 333.955 364.736 333.955H365.682V337.718H369.497V333.955H370.443C370.644 333.955 370.836 333.876 370.978 333.733C371.12 333.591 371.2 333.398 371.2 333.197V330.686C371.2 330.484 371.12 330.292 370.978 330.149C370.836 330.007 370.644 329.927 370.443 329.927V329.927Z" fill="#E6E6E6"/>
<path d="M376.16 352.911C372.664 347.783 370.877 341.679 371.055 335.471C371.058 335.328 371.012 335.188 370.924 335.075C370.836 334.962 370.711 334.883 370.572 334.852V333.767H364.544V334.837H364.461C364.38 334.837 364.299 334.853 364.224 334.884C364.149 334.916 364.081 334.961 364.024 335.019C363.967 335.077 363.921 335.145 363.89 335.22C363.859 335.296 363.843 335.376 363.843 335.458C363.843 335.473 363.844 335.488 363.845 335.503C364.32 342.139 362.716 348.09 359.034 353.356C358.823 353.658 358.714 354.022 358.726 354.391L359.385 374.829C359.401 375.285 359.592 375.717 359.918 376.036C360.244 376.354 360.68 376.533 361.135 376.537H374.769C375.229 376.533 375.67 376.349 375.997 376.025C376.324 375.7 376.511 375.261 376.52 374.799L376.774 354.955C376.781 354.227 376.567 353.514 376.16 352.911V352.911Z" fill="#D05F5F"/>
<path opacity="0.2" d="M369.253 330.745C369.253 331.179 369.081 331.596 368.775 331.903C368.469 332.209 368.054 332.382 367.621 332.382C367.188 332.382 366.773 332.209 366.466 331.903C366.16 331.596 365.988 331.179 365.988 330.745" fill="black"/>
<path d="M374.001 359.7H362.134C361.959 359.7 361.785 359.738 361.625 359.811C361.466 359.885 361.324 359.992 361.209 360.126C361.095 360.259 361.011 360.416 360.963 360.585C360.914 360.755 360.903 360.933 360.93 361.107L362.723 372.792H373.021L375.199 361.146C375.232 360.97 375.226 360.788 375.181 360.614C375.136 360.441 375.053 360.279 374.939 360.141C374.825 360.003 374.681 359.892 374.519 359.815C374.357 359.739 374.18 359.7 374.001 359.7V359.7Z" fill="white"/>
<path d="M354.159 377.11H320.137C322.516 364.219 321.969 348.652 320.137 331.91H354.159C352.376 348.652 351.844 364.219 354.159 377.11Z" fill="#D05F5F"/>
<path d="M337.353 361.496C341.881 361.496 345.551 357.816 345.551 353.278C345.551 348.739 341.881 345.059 337.353 345.059C332.825 345.059 329.155 348.739 329.155 353.278C329.155 357.816 332.825 361.496 337.353 361.496Z" fill="white"/>
<path d="M215.002 234.86L222.639 234.164L227.5 222.332L218.821 217.459L215.002 234.86Z" fill="#FFB8B8"/>
<path d="M285.095 267.343C285.349 266.709 285.449 266.022 285.386 265.341C285.324 264.66 285.1 264.003 284.735 263.426C284.37 262.848 283.873 262.365 283.285 262.018C282.697 261.671 282.035 261.468 281.354 261.427L269.496 260.719L267.75 266.539L279.957 269.9C280.977 270.181 282.065 270.075 283.013 269.604C283.96 269.132 284.701 268.328 285.095 267.343V267.343Z" fill="#FFB8B8"/>
<path d="M272.362 269.998L272.231 259.076L245.891 254.863L225.599 231.533C224.543 230.319 223.084 229.53 221.493 229.311C219.901 229.093 218.284 229.461 216.942 230.346C216.13 230.882 215.444 231.59 214.935 232.421C214.425 233.251 214.104 234.184 213.994 235.153C213.883 236.122 213.986 237.103 214.296 238.027C214.606 238.952 215.114 239.797 215.785 240.502L232.526 261.155L272.362 269.998Z" fill="#575A89"/>
<path d="M209.1 392.86H216.043L233.265 314.804L251.107 338.917L261.522 391.12H268.118L266.729 335.089L243.469 275.23H220.557C214.295 286.59 209.383 298.3 215.002 310.38L209.1 392.86Z" fill="#2F2E41"/>
<path d="M257.266 397.601C257.189 397.847 257.165 398.107 257.196 398.363C257.228 398.619 257.313 398.866 257.447 399.086C257.58 399.307 257.759 399.496 257.972 399.642C258.184 399.788 258.425 399.886 258.679 399.931L275.669 402.954C276.34 403.077 277.033 402.95 277.617 402.596C278.202 402.242 278.637 401.686 278.84 401.033V401.033C279.038 400.409 279.01 399.735 278.762 399.13C278.513 398.524 278.06 398.025 277.481 397.722C273.746 395.799 270.53 392.997 268.111 389.556C266.244 391.299 264.157 391.135 261.941 389.85L259.59 390.145L257.266 397.601Z" fill="#2F2E41"/>
<path d="M205.885 397.601C205.808 397.847 205.785 398.107 205.816 398.363C205.847 398.619 205.933 398.866 206.066 399.086C206.2 399.307 206.379 399.496 206.591 399.642C206.804 399.788 207.045 399.886 207.298 399.931L224.288 402.954C224.96 403.077 225.653 402.95 226.237 402.596C226.821 402.242 227.256 401.686 227.46 401.033V401.033C227.658 400.409 227.63 399.735 227.382 399.13C227.133 398.524 226.68 398.025 226.101 397.722C222.365 395.799 219.15 392.997 216.731 389.556C214.864 391.299 212.777 391.135 210.56 389.85L208.21 390.145L205.885 397.601Z" fill="#2F2E41"/>
<path d="M227.673 226.682C233.042 226.682 237.394 222.319 237.394 216.937C237.394 211.556 233.042 207.193 227.673 207.193C222.305 207.193 217.953 211.556 217.953 216.937C217.953 222.319 222.305 226.682 227.673 226.682Z" fill="#FFB8B8"/>
<path d="M218.994 277.84L244.337 277.144L236.895 253.662C241.52 246.229 236.865 238.804 230.277 231.38L225.07 227.9L216.738 227.204C213.13 231.073 211.156 236.192 211.23 241.488C211.394 252.828 213.398 265.173 218.994 277.84Z" fill="#575A89"/>
<path d="M277.221 293.646C277.704 293.163 278.065 292.571 278.274 291.92C278.484 291.269 278.537 290.578 278.428 289.902C278.318 289.227 278.051 288.587 277.647 288.036C277.243 287.485 276.714 287.038 276.103 286.732L265.479 281.404L261.59 286.066L271.494 293.97C272.322 294.631 273.363 294.963 274.419 294.903C275.476 294.843 276.473 294.396 277.221 293.646V293.646Z" fill="#FFB8B8"/>
<path d="M264.473 291.065L268.639 280.972L246.075 266.711L236.575 237.26C236.08 235.728 235.049 234.427 233.671 233.599C232.293 232.77 230.663 232.471 229.082 232.755V232.755C228.124 232.927 227.216 233.308 226.422 233.871C225.628 234.434 224.966 235.165 224.485 236.012C224.003 236.859 223.713 237.802 223.635 238.774C223.556 239.746 223.692 240.723 224.032 241.636L231.319 267.226L264.473 291.065Z" fill="#575A89"/>
<path d="M211.704 213.109C211.704 216.901 214.16 222.773 217.258 225.29C219.343 226.983 222.098 226.912 223.16 224.594C224.25 222.215 228.006 216.625 234.617 213.109C243.429 208.421 231.491 200.402 223.16 201.624C216.9 202.543 211.704 206.766 211.704 213.109Z" fill="#2F2E41"/>
<path d="M217.606 207.889C221.44 207.889 224.549 204.773 224.549 200.928C224.549 197.084 221.44 193.968 217.606 193.968C213.771 193.968 210.662 197.084 210.662 200.928C210.662 204.773 213.771 207.889 217.606 207.889Z" fill="#2F2E41"/>
<path d="M225.59 198.492C225.59 196.738 224.928 195.048 223.737 193.762C222.545 192.476 220.914 191.689 219.168 191.558C219.34 191.545 219.513 191.532 219.689 191.532C221.53 191.532 223.296 192.265 224.598 193.571C225.9 194.876 226.632 196.646 226.632 198.492C226.632 200.338 225.9 202.109 224.598 203.414C223.296 204.719 221.53 205.453 219.689 205.453C219.513 205.453 219.34 205.439 219.168 205.426C220.914 205.296 222.545 204.509 223.736 203.223C224.928 201.937 225.59 200.247 225.59 198.492Z" fill="#2F2E41"/>
<path d="M227.847 220.417C228.71 220.417 229.409 219.483 229.409 218.329C229.409 217.176 228.71 216.241 227.847 216.241C226.984 216.241 226.285 217.176 226.285 218.329C226.285 219.483 226.984 220.417 227.847 220.417Z" fill="#FFB8B8"/>
<path d="M424.572 380.095H316.487L293.599 271.631H274.065V266.764H297.534L320.422 375.228H424.572V380.095Z" fill="#3F3D56"/>
<path d="M332.326 399.911C338.072 399.911 342.73 395.241 342.73 389.482C342.73 383.722 338.072 379.052 332.326 379.052C326.58 379.052 321.922 383.722 321.922 389.482C321.922 395.241 326.58 399.911 332.326 399.911Z" fill="#3F3D56"/>
<path d="M410.007 399.911C415.753 399.911 420.411 395.241 420.411 389.482C420.411 383.722 415.753 379.052 410.007 379.052C404.261 379.052 399.604 383.722 399.604 389.482C399.604 395.241 404.261 399.911 410.007 399.911Z" fill="#3F3D56"/>
<path d="M422.602 377.803H317.441L298.886 285.884H440.014C440.734 285.884 441.446 286.041 442.1 286.343C442.754 286.645 443.335 287.085 443.803 287.634C444.271 288.182 444.615 288.826 444.811 289.521C445.007 290.215 445.051 290.944 444.939 291.658L427.526 373.581C427.347 374.76 426.751 375.835 425.847 376.61C424.943 377.385 423.791 377.808 422.602 377.803V377.803ZM318.583 376.413H422.602C423.46 376.416 424.291 376.111 424.943 375.551C425.596 374.992 426.026 374.216 426.155 373.366L443.569 291.442C443.649 290.927 443.618 290.401 443.476 289.899C443.335 289.398 443.087 288.933 442.749 288.537C442.411 288.141 441.992 287.823 441.519 287.605C441.047 287.387 440.534 287.275 440.014 287.275H300.57L318.583 376.413Z" fill="#3F3D56"/>
<path d="M337.884 377.509L325.733 286.693L327.101 286.466L339.253 377.283L337.884 377.509Z" fill="#3F3D56"/>
<path d="M405.449 376.812L404.08 376.589L415.876 286.468L417.246 286.691L405.449 376.812Z" fill="#3F3D56"/>
<path d="M373.258 286.579H371.871V377.396H373.258V286.579Z" fill="#3F3D56"/>
<path d="M305.972 310.914L305.969 312.305L440.244 312.631L440.247 311.24L305.972 310.914Z" fill="#3F3D56"/>
<path d="M430.772 353.871L312.808 354.679L312.817 356.069L430.781 355.261L430.772 353.871Z" fill="#3F3D56"/>
<path d="M276.146 272.674C280.36 272.674 283.776 270.806 283.776 268.502C283.776 266.198 280.36 264.33 276.146 264.33C271.933 264.33 268.517 266.198 268.517 268.502C268.517 270.806 271.933 272.674 276.146 272.674Z" fill="#3F3D56"/>
</g>
<defs>
<clipPath id="clip0_1_1123">
<rect width="361" height="302" fill="white" transform="translate(84 101)"/>
</clipPath>
</defs>
</svg>
