<svg width="508" height="508" viewBox="0 0 508 508" fill="none" xmlns="http://www.w3.org/2000/svg">
<circle cx="254" cy="254" r="254" fill="#D05F5F" fill-opacity="0.2"/>
<g clip-path="url(#clip0)">
<path d="M244.178 96.6784L233.652 102.419L103.965 173.143L93.4389 178.883C88.3312 181.676 84.5405 186.38 82.8984 191.963C81.2563 197.546 81.897 203.552 84.6799 208.663L181.255 385.573C184.049 390.678 188.755 394.467 194.341 396.108C199.927 397.749 205.936 397.109 211.05 394.327L211.077 394.313L361.762 312.137L361.789 312.123C366.897 309.33 370.688 304.626 372.33 299.043C373.972 293.46 373.331 287.454 370.548 282.343L273.974 105.433C271.179 100.328 266.473 96.5392 260.887 94.8979C255.301 93.2567 249.292 93.897 244.178 96.6784V96.6784Z" fill="#F2F2F2"/>
<path d="M247.206 102.225L234.738 109.024L108.934 177.63L96.4665 184.43C92.8292 186.418 90.1297 189.768 88.9603 193.744C87.791 197.72 88.2472 201.997 90.2289 205.637L186.804 382.546C188.794 386.182 192.145 388.88 196.123 390.048C200.101 391.217 204.38 390.761 208.021 388.78L208.049 388.766L358.734 306.59L358.761 306.575C362.398 304.586 365.098 301.237 366.267 297.261C367.436 293.285 366.98 289.008 364.999 285.368L268.424 108.459C266.434 104.824 263.083 102.126 259.105 100.957C255.127 99.7879 250.848 100.244 247.206 102.225V102.225Z" fill="white"/>
<path d="M249.284 157.137L193.085 187.786C192.233 188.25 191.232 188.357 190.302 188.084C189.371 187.81 188.588 187.179 188.123 186.328C187.658 185.477 187.551 184.476 187.825 183.546C188.098 182.616 188.73 181.833 189.582 181.368L245.781 150.72C246.633 150.256 247.634 150.149 248.564 150.422C249.495 150.696 250.279 151.327 250.743 152.178C251.208 153.029 251.315 154.03 251.041 154.96C250.768 155.89 250.136 156.673 249.284 157.137H249.284Z" fill="#F2F2F2"/>
<path d="M268.438 160.745L198.996 198.614C198.145 199.079 197.144 199.186 196.213 198.912C195.283 198.639 194.499 198.007 194.035 197.156C193.57 196.305 193.463 195.305 193.736 194.375C194.01 193.445 194.642 192.662 195.493 192.197L264.935 154.328C265.357 154.098 265.819 153.953 266.297 153.902C266.774 153.851 267.257 153.894 267.718 154.029C268.179 154.165 268.608 154.39 268.982 154.691C269.356 154.992 269.667 155.364 269.897 155.786C270.127 156.207 270.271 156.669 270.323 157.147C270.374 157.624 270.33 158.107 270.195 158.567C270.06 159.028 269.835 159.457 269.533 159.831C269.232 160.204 268.86 160.515 268.438 160.745H268.438Z" fill="#F2F2F2"/>
<path d="M169.981 175.028L118.168 203.284C117.76 203.506 117.457 203.882 117.326 204.327C117.195 204.773 117.246 205.252 117.469 205.66L139.532 246.076C139.755 246.484 140.13 246.787 140.576 246.918C141.022 247.049 141.501 246.997 141.909 246.775L193.722 218.519C194.13 218.296 194.433 217.921 194.564 217.475C194.695 217.03 194.644 216.551 194.421 216.143L172.358 175.726C172.135 175.319 171.76 175.016 171.314 174.885C170.868 174.754 170.389 174.805 169.981 175.028V175.028Z" fill="#F2F2F2"/>
<path d="M277.17 208.419L200.942 249.99C200.52 250.22 200.057 250.364 199.58 250.415C199.102 250.467 198.619 250.423 198.159 250.288C197.698 250.152 197.268 249.928 196.895 249.626C196.521 249.325 196.21 248.953 195.98 248.532C195.75 248.11 195.605 247.648 195.554 247.171C195.503 246.693 195.546 246.211 195.682 245.75C195.817 245.29 196.042 244.86 196.343 244.487C196.645 244.113 197.017 243.802 197.439 243.573L273.667 202.002C274.518 201.538 275.519 201.431 276.449 201.704C277.38 201.977 278.164 202.609 278.628 203.46C279.093 204.311 279.2 205.311 278.927 206.242C278.653 207.172 278.021 207.955 277.17 208.419H277.17Z" fill="#F2F2F2"/>
<path d="M296.323 212.027L206.853 260.818C206.002 261.283 205.001 261.39 204.07 261.117C203.14 260.843 202.356 260.212 201.892 259.361C201.427 258.51 201.32 257.509 201.593 256.579C201.867 255.649 202.499 254.866 203.35 254.401L292.82 205.61C293.672 205.145 294.673 205.038 295.603 205.311C296.534 205.585 297.317 206.216 297.782 207.067C298.246 207.918 298.354 208.919 298.08 209.849C297.807 210.779 297.175 211.562 296.323 212.027H296.323Z" fill="#F2F2F2"/>
<path d="M171.911 284.034C180.479 284.034 187.425 277.092 187.425 268.528C187.425 259.964 180.479 253.021 171.911 253.021C163.342 253.021 156.396 259.964 156.396 268.528C156.396 277.092 163.342 284.034 171.911 284.034Z" fill="#F2F2F2"/>
<path d="M404.04 169.573H232.323C226.501 169.58 220.919 171.894 216.802 176.009C212.685 180.124 210.369 185.703 210.363 191.522V393.051C210.369 398.87 212.685 404.449 216.802 408.564C220.919 412.679 226.501 414.993 232.323 415H404.04C409.862 414.993 415.444 412.679 419.561 408.564C423.678 404.449 425.994 398.87 426 393.051V191.522C425.994 185.703 423.678 180.124 419.561 176.009C415.444 171.894 409.862 169.58 404.04 169.573V169.573Z" fill="#E6E6E6"/>
<path d="M404.041 175.892H232.323C228.177 175.896 224.202 177.544 221.27 180.475C218.338 183.405 216.689 187.378 216.685 191.522V393.051C216.689 397.195 218.338 401.168 221.27 404.098C224.202 407.029 228.177 408.677 232.323 408.681H404.041C408.187 408.677 412.161 407.029 415.093 404.098C418.025 401.168 419.674 397.195 419.678 393.051V191.522C419.674 187.378 418.025 183.405 415.093 180.475C412.161 177.545 408.187 175.896 404.041 175.892V175.892Z" fill="white"/>
<path d="M379.55 225.091H315.529C314.56 225.091 313.629 224.706 312.944 224.02C312.258 223.335 311.873 222.405 311.873 221.436C311.873 220.467 312.258 219.537 312.944 218.851C313.629 218.166 314.56 217.781 315.529 217.781H379.55C380.031 217.78 380.507 217.874 380.951 218.058C381.395 218.241 381.799 218.511 382.139 218.85C382.479 219.189 382.749 219.593 382.933 220.036C383.117 220.48 383.211 220.956 383.211 221.436C383.211 221.916 383.117 222.392 382.933 222.836C382.749 223.279 382.479 223.682 382.139 224.022C381.799 224.361 381.395 224.631 380.951 224.814C380.507 224.997 380.031 225.092 379.55 225.091Z" fill="#D05F5F"/>
<path d="M394.635 237.427H315.529C314.56 237.427 313.629 237.042 312.944 236.356C312.258 235.671 311.873 234.741 311.873 233.772C311.873 232.802 312.258 231.873 312.944 231.187C313.629 230.502 314.56 230.117 315.529 230.117H394.635C395.605 230.117 396.535 230.502 397.221 231.187C397.907 231.873 398.292 232.802 398.292 233.772C398.292 234.741 397.907 235.671 397.221 236.356C396.535 237.042 395.605 237.427 394.635 237.427V237.427Z" fill="#D05F5F"/>
<path d="M301.362 202.831H242.338C241.873 202.831 241.428 203.016 241.099 203.344C240.771 203.673 240.586 204.118 240.586 204.583V250.624C240.586 251.088 240.771 251.534 241.099 251.862C241.428 252.19 241.873 252.375 242.338 252.375H301.362C301.826 252.375 302.272 252.19 302.601 251.862C302.929 251.534 303.114 251.088 303.114 250.624V204.583C303.114 204.118 302.929 203.673 302.601 203.344C302.272 203.016 301.826 202.831 301.362 202.831V202.831Z" fill="#E6E6E6"/>
<path d="M258.528 231.104C258.552 234.991 257.119 238.745 254.511 241.628C251.93 244.459 248.088 246.337 244.21 245.56C240.64 244.845 237.739 241.726 238.101 237.953C238.161 237.135 238.399 236.341 238.797 235.625C239.196 234.909 239.746 234.289 240.409 233.807C241.072 233.325 241.833 232.994 242.637 232.836C243.442 232.678 244.271 232.697 245.067 232.892C248.459 233.772 249.81 238.658 246.984 240.951C246.306 241.501 245.332 240.539 246.016 239.983C247.884 238.467 247.307 235.151 245.052 234.319C242.427 233.351 239.645 235.434 239.456 238.116C239.232 241.297 241.67 243.693 244.66 244.257C247.894 244.867 251.101 243.212 253.292 240.928C255.804 238.277 257.19 234.755 257.159 231.104C257.165 230.926 257.24 230.758 257.368 230.635C257.496 230.512 257.666 230.443 257.844 230.443C258.021 230.443 258.192 230.512 258.32 230.635C258.447 230.758 258.522 230.926 258.528 231.104V231.104Z" fill="#2F2E41"/>
<path d="M271.895 239.802C285.383 239.802 296.317 228.873 296.317 215.393C296.317 201.912 285.383 190.984 271.895 190.984C258.408 190.984 247.474 201.912 247.474 215.393C247.474 228.873 258.408 239.802 271.895 239.802Z" fill="#D05F5F"/>
<path d="M270.646 225.808L270.621 224.896C272.318 224.848 273.815 224.742 274.94 223.921C275.259 223.675 275.521 223.363 275.708 223.006C275.896 222.65 276.004 222.257 276.027 221.855C276.046 221.61 276.009 221.363 275.918 221.134C275.827 220.905 275.684 220.7 275.501 220.535C274.754 219.905 273.553 220.109 272.677 220.51L271.922 220.856L273.37 210.28L274.274 210.404L273.042 219.4C274.232 219.051 275.335 219.201 276.09 219.839C276.38 220.092 276.607 220.408 276.754 220.764C276.902 221.119 276.965 221.504 276.939 221.887C276.912 222.428 276.767 222.955 276.515 223.434C276.263 223.912 275.909 224.33 275.478 224.657C274.033 225.713 272.155 225.765 270.646 225.808Z" fill="#2F2E41"/>
<path d="M283.661 211.18H278.746V212.092H283.661V211.18Z" fill="#2F2E41"/>
<path d="M268.146 211.18H263.231V212.092H268.146V211.18Z" fill="#2F2E41"/>
<path d="M258.368 252.375C260.199 251.214 262.177 250.304 264.25 249.67C264.052 248.968 264.055 248.223 264.259 247.522C264.534 246.637 265.089 245.864 265.84 245.319C266.59 244.774 267.497 244.486 268.425 244.499H274.375C275.305 244.487 276.213 244.775 276.966 245.321C277.718 245.866 278.274 246.64 278.551 247.527C278.755 248.227 278.758 248.969 278.56 249.67C280.633 250.305 282.611 251.215 284.442 252.375H258.368Z" fill="#2F2E41"/>
<path d="M299.87 206.334C299.425 205.795 298.877 205.351 298.259 205.025C297.716 204.742 297.114 204.593 296.502 204.592C295.662 204.602 294.846 204.877 294.17 205.376C292.313 206.69 291.026 209.522 291.026 212.801C291.026 216.915 293.052 220.326 295.685 220.919C295.953 220.979 296.227 221.01 296.502 221.011C299.518 221.011 301.978 217.33 301.978 212.801C301.978 210.174 301.152 207.835 299.87 206.334Z" fill="#3F3D56"/>
<path d="M249.712 205.18H249.708C249.097 204.802 248.395 204.598 247.677 204.592C247.065 204.593 246.462 204.742 245.92 205.025C245.302 205.351 244.754 205.795 244.309 206.334L244.305 206.339C243.027 207.839 242.201 210.179 242.201 212.801C242.201 216.34 243.698 219.36 245.797 220.513C246.371 220.835 247.018 221.006 247.677 221.011C247.823 221.011 247.97 221.001 248.115 220.983H248.119C250.93 220.646 253.153 217.107 253.153 212.801C253.153 209.353 251.724 206.393 249.712 205.18Z" fill="#3F3D56"/>
<path d="M246.139 219.729C246.247 219.729 246.354 219.703 246.451 219.653C246.548 219.603 246.631 219.531 246.695 219.443C246.758 219.355 246.799 219.253 246.816 219.146C246.832 219.038 246.822 218.929 246.787 218.826C245.479 214.937 245.086 210.8 245.637 206.735C246.189 202.67 247.671 198.788 249.968 195.388C252.266 191.989 255.316 189.165 258.883 187.135C262.45 185.106 266.437 183.926 270.534 183.687C274.631 183.448 278.728 184.157 282.507 185.758C286.286 187.359 289.644 189.809 292.321 192.918C294.998 196.028 296.922 199.712 297.943 203.685C298.964 207.658 299.054 211.813 298.208 215.827C298.17 216.005 298.205 216.19 298.304 216.342C298.403 216.494 298.558 216.6 298.736 216.638C298.914 216.675 299.099 216.64 299.251 216.541C299.403 216.442 299.51 216.287 299.547 216.109C300.438 211.889 300.343 207.521 299.27 203.343C298.197 199.166 296.175 195.292 293.36 192.023C290.546 188.753 287.015 186.177 283.042 184.494C279.069 182.81 274.761 182.065 270.453 182.317C266.145 182.568 261.953 183.809 258.203 185.943C254.453 188.077 251.246 191.046 248.831 194.62C246.416 198.195 244.859 202.277 244.279 206.551C243.7 210.825 244.114 215.175 245.49 219.263C245.536 219.399 245.623 219.517 245.739 219.6C245.856 219.684 245.995 219.729 246.139 219.729Z" fill="#3F3D56"/>
<path d="M284.163 199.578C285.13 200.897 284.654 202.675 283.635 203.813C282.309 205.293 280.195 205.386 278.359 205.112C276.299 204.803 274.114 203.839 272.029 204.489C270.251 205.043 268.983 206.654 267.137 207.059C265.499 207.418 263.54 206.943 262.966 205.198C262.69 204.36 264.012 204 264.286 204.834C264.658 205.963 266.262 205.941 267.18 205.628C268.653 205.127 269.787 203.908 271.235 203.326C272.941 202.64 274.792 202.95 276.529 203.34C278.167 203.709 280.051 204.255 281.682 203.567C282.889 203.058 283.85 201.453 282.981 200.269C282.46 199.558 283.648 198.874 284.163 199.578V199.578Z" fill="#2F2E41"/>
<path d="M379.454 283.457H292.617C292.137 283.457 291.662 283.363 291.218 283.179C290.774 282.995 290.371 282.726 290.032 282.387C289.692 282.047 289.423 281.644 289.239 281.201C289.055 280.757 288.96 280.282 288.96 279.802C288.96 279.322 289.055 278.847 289.239 278.403C289.423 277.96 289.692 277.557 290.032 277.217C290.371 276.878 290.774 276.609 291.218 276.425C291.662 276.241 292.137 276.147 292.617 276.147H379.454C380.423 276.148 381.352 276.534 382.037 277.219C382.722 277.904 383.107 278.833 383.107 279.802C383.107 280.771 382.722 281.7 382.037 282.385C381.352 283.07 380.423 283.456 379.454 283.457V283.457Z" fill="#E6E6E6"/>
<path d="M394.539 295.793H292.618C292.137 295.793 291.661 295.699 291.217 295.516C290.773 295.332 290.369 295.063 290.029 294.724C289.689 294.384 289.419 293.981 289.235 293.537C289.051 293.094 288.957 292.618 288.957 292.138C288.957 291.657 289.051 291.182 289.235 290.738C289.419 290.294 289.689 289.891 290.029 289.552C290.369 289.212 290.773 288.943 291.217 288.76C291.661 288.576 292.137 288.482 292.618 288.483H394.539C395.019 288.482 395.495 288.576 395.939 288.76C396.384 288.943 396.787 289.212 397.127 289.552C397.467 289.891 397.737 290.294 397.921 290.738C398.105 291.182 398.2 291.657 398.2 292.138C398.2 292.618 398.105 293.094 397.921 293.537C397.737 293.981 397.467 294.384 397.127 294.724C396.787 295.063 396.384 295.332 395.939 295.516C395.495 295.699 395.019 295.793 394.539 295.793Z" fill="#E6E6E6"/>
<path d="M379.454 327.794H292.617C291.647 327.794 290.717 327.409 290.032 326.723C289.346 326.038 288.96 325.108 288.96 324.139C288.96 323.169 289.346 322.24 290.032 321.554C290.717 320.869 291.647 320.484 292.617 320.484H379.454C380.424 320.484 381.354 320.869 382.04 321.554C382.725 322.24 383.111 323.169 383.111 324.139C383.111 325.108 382.725 326.038 382.04 326.723C381.354 327.409 380.424 327.794 379.454 327.794V327.794Z" fill="#E6E6E6"/>
<path d="M394.539 340.13H292.617C291.647 340.13 290.717 339.745 290.032 339.059C289.346 338.374 288.96 337.444 288.96 336.475C288.96 335.505 289.346 334.576 290.032 333.89C290.717 333.205 291.647 332.82 292.617 332.82H394.539C395.508 332.82 396.439 333.205 397.124 333.89C397.81 334.576 398.195 335.505 398.195 336.475C398.195 337.444 397.81 338.374 397.124 339.059C396.439 339.745 395.508 340.13 394.539 340.13Z" fill="#E6E6E6"/>
<path d="M258.249 301.339C266.818 301.339 273.764 294.397 273.764 285.833C273.764 277.269 266.818 270.326 258.249 270.326C249.681 270.326 242.735 277.269 242.735 285.833C242.735 294.397 249.681 301.339 258.249 301.339Z" fill="#E6E6E6"/>
<path d="M258.249 346.035C266.818 346.035 273.764 339.092 273.764 330.528C273.764 321.964 266.818 315.022 258.249 315.022C249.681 315.022 242.735 321.964 242.735 330.528C242.735 339.092 249.681 346.035 258.249 346.035Z" fill="#E6E6E6"/>
<path d="M379.454 372.489H292.617C291.647 372.489 290.717 372.104 290.032 371.419C289.346 370.733 288.96 369.804 288.96 368.834C288.96 367.865 289.346 366.935 290.032 366.25C290.717 365.564 291.647 365.179 292.617 365.179H379.454C380.424 365.179 381.354 365.564 382.04 366.25C382.725 366.935 383.111 367.865 383.111 368.834C383.111 369.804 382.725 370.733 382.04 371.419C381.354 372.104 380.424 372.489 379.454 372.489V372.489Z" fill="#E6E6E6"/>
<path d="M394.539 384.825H292.617C291.647 384.825 290.717 384.44 290.032 383.755C289.346 383.069 288.96 382.14 288.96 381.17C288.96 380.201 289.346 379.271 290.032 378.586C290.717 377.9 291.647 377.515 292.617 377.515H394.539C395.508 377.515 396.439 377.9 397.124 378.586C397.81 379.271 398.195 380.201 398.195 381.17C398.195 382.14 397.81 383.069 397.124 383.755C396.439 384.44 395.508 384.825 394.539 384.825V384.825Z" fill="#E6E6E6"/>
<path d="M258.249 390.73C266.818 390.73 273.764 383.788 273.764 375.224C273.764 366.66 266.818 359.717 258.249 359.717C249.681 359.717 242.735 366.66 242.735 375.224C242.735 383.788 249.681 390.73 258.249 390.73Z" fill="#E6E6E6"/>
</g>
<defs>
<clipPath id="clip0">
<rect width="344" height="321" fill="white" transform="translate(82 94)"/>
</clipPath>
</defs>
</svg>
