<svg width="508" height="508" viewBox="0 0 508 508" fill="none" xmlns="http://www.w3.org/2000/svg">
<circle cx="254" cy="254" r="254" fill="#D05F5F" fill-opacity="0.2"/>
<g clip-path="url(#clip0)">
<path d="M353.724 366.783H157.484C105.474 355.231 63 315.44 63 255.936C62.9925 246.935 63.9628 237.96 65.8937 229.17L224.072 203.614L346.096 183.901C354.862 189.653 363.204 196.031 371.057 202.984L254.256 247.673L199.156 268.756L261.035 253.33L389.467 221.313C397.269 230.059 404.36 239.418 410.672 249.301L371.833 278.427L415.714 257.594C415.899 257.915 416.084 258.237 416.268 258.559C443.8 306.747 409.097 366.783 353.724 366.783Z" fill="#F2F2F2"/>
<path d="M322.365 170.376C292.66 176.529 256.14 184.307 218.591 192.392C164.3 204.085 107.861 216.426 66.7712 225.448C67.679 221.886 68.7356 218.397 69.941 214.981C102.127 181.557 144.102 159.299 189.764 151.444H189.768C201.991 149.354 214.369 148.305 226.769 148.31C259.894 148.263 292.592 155.81 322.365 170.376Z" fill="#F2F2F2"/>
<path d="M115.5 180.831C133.043 180.831 147.265 166.566 147.265 148.97C147.265 131.374 133.043 117.109 115.5 117.109C97.956 117.109 83.7341 131.374 83.7341 148.97C83.7341 166.566 97.956 180.831 115.5 180.831Z" fill="#FF6584"/>
<path d="M353.351 366.783C333.803 385.567 268.305 386.364 163.85 368.047C161.713 367.671 159.591 367.25 157.484 366.783C105.474 355.231 63 315.44 63 255.936C62.9925 246.935 63.9628 237.96 65.8937 229.17C66.166 227.922 66.4585 226.681 66.7712 225.448C67.679 221.886 68.7356 218.397 69.941 214.981C84.655 173.32 121.153 143.826 163.85 143.826C174.456 143.826 182.819 146.644 189.764 151.444H189.768C202.428 160.193 210.371 175.528 218.591 192.392C220.387 196.076 222.196 199.835 224.072 203.614C231.807 219.196 240.647 235.115 254.256 247.673C256.418 249.674 258.68 251.562 261.035 253.33C262.222 254.225 263.444 255.094 264.7 255.936C345.952 310.466 373.1 347.802 353.351 366.783Z" fill="#3F3D56"/>
<path opacity="0.1" d="M287.843 354.054C306.54 354.054 321.696 351.487 321.696 348.322C321.696 345.156 306.54 342.59 287.843 342.59C269.146 342.59 253.989 345.156 253.989 348.322C253.989 351.487 269.146 354.054 287.843 354.054Z" fill="black"/>
<path opacity="0.1" d="M105.903 290.316C124.6 290.316 139.757 287.749 139.757 284.584C139.757 281.418 124.6 278.852 105.903 278.852C87.2061 278.852 72.0493 281.418 72.0493 284.584C72.0493 287.749 87.2061 290.316 105.903 290.316Z" fill="black"/>
<path d="M110.415 267.105C104.823 274.439 105.463 284.351 105.463 284.351C105.463 284.351 115.167 282.372 120.758 275.038C126.35 267.703 125.71 257.791 125.71 257.791C125.71 257.791 116.006 259.77 110.415 267.105Z" fill="#D0CDE1"/>
<path d="M114.079 268.752C112.994 277.92 105.649 284.583 105.649 284.583C105.649 284.583 100.063 276.381 101.148 267.212C102.233 258.044 109.578 251.381 109.578 251.381C109.578 251.381 115.164 259.584 114.079 268.752Z" fill="#D05F5F"/>
<path opacity="0.1" d="M200.845 326.953C216.833 326.953 229.795 324.758 229.795 322.051C229.795 319.344 216.833 317.149 200.845 317.149C184.856 317.149 171.895 319.344 171.895 322.051C171.895 324.758 184.856 326.953 200.845 326.953Z" fill="black"/>
<path d="M204.703 307.104C199.921 313.376 200.468 321.852 200.468 321.852C200.468 321.852 208.767 320.16 213.548 313.888C218.33 307.616 217.783 299.139 217.783 299.139C217.783 299.139 209.484 300.832 204.703 307.104Z" fill="#D0CDE1"/>
<path d="M207.836 308.512C206.908 316.353 200.627 322.05 200.627 322.05C200.627 322.05 195.851 315.036 196.779 307.196C197.707 299.356 203.987 293.658 203.987 293.658C203.987 293.658 208.764 300.672 207.836 308.512Z" fill="#D05F5F"/>
<path d="M331.899 305.385C331.915 337.21 313.057 348.33 289.791 348.341C289.25 348.341 288.712 348.335 288.177 348.323C287.099 348.301 286.032 348.252 284.976 348.177C263.977 346.696 247.655 335.023 247.641 305.426C247.626 274.796 286.636 236.123 289.562 233.264C289.564 233.264 289.564 233.264 289.567 233.261C289.678 233.152 289.735 233.098 289.735 233.098C289.735 233.098 331.884 273.562 331.899 305.385Z" fill="#D05F5F"/>
<path d="M288.255 343.474L303.653 321.872L288.217 345.844L288.177 348.323C287.099 348.301 286.032 348.252 284.976 348.177L286.621 316.338L286.608 316.092L286.636 316.045L286.792 313.037L271.295 289.021L286.838 310.783L286.877 311.421L288.119 287.366L274.85 262.547L288.28 283.138L289.562 233.264L289.567 233.098L289.567 233.261L289.369 272.592L302.556 256.994L289.313 275.979L288.975 297.519L301.291 276.842L288.927 300.685L288.739 312.662L306.613 283.881L288.671 316.841L288.255 343.474Z" fill="#3F3D56"/>
<path opacity="0.1" d="M152.218 251.858C176.619 251.858 196.4 248.509 196.4 244.377C196.4 240.246 176.619 236.896 152.218 236.896C127.817 236.896 108.036 240.246 108.036 244.377C108.036 248.509 127.817 251.858 152.218 251.858Z" fill="black"/>
<path d="M209.716 188.341C209.736 229.875 185.125 244.387 154.761 244.402C154.055 244.403 153.354 244.395 152.655 244.379C151.248 244.35 149.855 244.286 148.477 244.189C121.071 242.256 99.7699 227.021 99.7512 188.394C99.7319 148.42 150.644 97.9486 154.462 94.2167C154.465 94.2167 154.465 94.2167 154.469 94.2133C154.614 94.0711 154.688 94 154.688 94C154.688 94 209.696 146.809 209.716 188.341Z" fill="#D05F5F"/>
<path d="M152.756 238.05L172.852 209.859L152.707 241.144L152.655 244.379C151.248 244.35 149.855 244.286 148.477 244.189L150.623 202.636L150.606 202.315L150.644 202.254L150.847 198.327L130.622 166.984L150.907 195.386L150.958 196.218L152.579 164.824L135.262 132.433L152.789 159.307L154.462 94.2167L154.469 94.0001L154.469 94.2133L154.21 145.543L171.421 125.186L154.138 149.964L153.696 178.075L169.77 151.09L153.634 182.208L153.388 197.839L176.716 160.277L153.3 203.291L152.756 238.05Z" fill="#3F3D56"/>
<path d="M386.275 222.243C403.079 222.243 416.701 208.58 416.701 191.725C416.701 174.87 403.079 161.207 386.275 161.207C369.471 161.207 355.849 174.87 355.849 191.725C355.849 208.58 369.471 222.243 386.275 222.243Z" fill="#2F2E41"/>
<path d="M442.415 366.152C433.297 391.836 416.108 414 416.108 414H374.017L379.661 402.38L382.488 396.563L386.574 388.152L388.583 384.017L394.01 372.839L385.906 383.68L382.407 388.357L375.771 397.238L370.235 404.641C352.472 408.514 334.455 411.106 316.322 412.395C316.254 410.253 316.595 406.041 319.308 400.183C320.751 397.119 322.481 394.201 324.476 391.466C326.342 388.89 328.36 386.428 330.521 384.095C331.72 382.791 332.984 381.46 334.288 380.115C351.269 362.605 375.771 342.583 375.771 342.583L368.758 314.788L419.235 306.191C419.86 306.084 420.5 306.109 421.115 306.265C421.73 306.421 422.305 306.704 422.804 307.096C423.304 307.488 423.716 307.98 424.015 308.541C424.313 309.101 424.492 309.719 424.539 310.353C424.812 314.023 425.775 318.741 428.739 321.121C433.997 325.342 451.537 340.472 442.415 366.152Z" fill="#2F2E41"/>
<path d="M409.086 389.925C409.086 390.018 409.072 390.11 409.045 390.199C408.336 392.911 397.387 397.785 379.661 402.38C376.702 403.141 373.553 403.898 370.235 404.641C352.472 408.514 334.454 411.106 316.322 412.395C307.132 413.066 297.537 413.448 287.665 413.448C221.621 413.448 167.894 396.321 166.29 390.199C166.263 390.11 166.249 390.018 166.249 389.925C166.248 389.867 166.254 389.809 166.267 389.752C166.271 389.716 166.281 389.681 166.295 389.647C168.053 384.327 221.717 392.205 287.665 392.205C300.496 392.205 312.867 391.908 324.475 391.466C347.532 390.586 367.608 389.146 382.406 388.357C383.847 388.284 385.238 388.211 386.574 388.152C400.15 387.509 408.372 387.619 409.04 389.647C409.054 389.681 409.063 389.716 409.068 389.752C409.08 389.809 409.087 389.867 409.086 389.925V389.925Z" fill="#3F3D56"/>
<path opacity="0.1" d="M409.086 389.925C409.086 390.018 409.072 390.11 409.045 390.199C408.336 392.911 397.387 397.785 379.661 402.38C376.702 403.141 373.553 403.898 370.235 404.641C352.472 408.514 334.454 411.106 316.322 412.395C307.132 413.066 297.537 413.448 287.665 413.448C221.621 413.448 167.894 396.321 166.29 390.199C166.263 390.11 166.249 390.018 166.249 389.925C166.248 389.867 166.254 389.809 166.267 389.752C166.271 389.716 166.281 389.681 166.295 389.647C168.053 384.327 221.717 392.205 287.665 392.205C300.496 392.205 312.867 391.908 324.475 391.466C347.532 390.586 367.608 389.146 382.406 388.357C383.847 388.284 385.238 388.211 386.574 388.152C400.15 387.509 408.372 387.619 409.04 389.647C409.054 389.681 409.063 389.716 409.068 389.752C409.08 389.809 409.087 389.867 409.086 389.925V389.925Z" fill="black"/>
<path d="M287.667 400.549C354.725 400.549 409.087 395.793 409.087 389.926C409.087 384.059 354.725 379.303 287.667 379.303C220.609 379.303 166.248 384.059 166.248 389.926C166.248 395.793 220.609 400.549 287.667 400.549Z" fill="#3F3D56"/>
<path opacity="0.1" d="M359.554 395.957C370.85 395.957 380.007 393.916 380.007 391.398C380.007 388.88 370.85 386.839 359.554 386.839C348.259 386.839 339.102 388.88 339.102 391.398C339.102 393.916 348.259 395.957 359.554 395.957Z" fill="black"/>
<path d="M359.554 391.398C365.578 391.398 370.462 390.581 370.462 389.574C370.462 388.567 365.578 387.751 359.554 387.751C353.53 387.751 348.646 388.567 348.646 389.574C348.646 390.581 353.53 391.398 359.554 391.398Z" fill="#D05F5F"/>
<path d="M368.948 369.382C368.948 369.382 346.482 386.911 354.55 388.67C362.617 390.429 375.596 371.079 375.596 371.079L368.948 369.382Z" fill="#A0616A"/>
<path d="M380.857 222.962C391.899 222.962 400.851 213.983 400.851 202.908C400.851 191.832 391.899 182.854 380.857 182.854C369.815 182.854 360.864 191.832 360.864 202.908C360.864 213.983 369.815 222.962 380.857 222.962Z" fill="#A0616A"/>
<path d="M380.857 220.851C380.857 220.851 387.872 238.794 382.26 241.96C376.648 245.126 373.842 245.478 373.842 245.478L367.879 255.681L364.371 266.236L392.432 267.291L412.075 235.979C412.075 235.979 402.605 231.054 397.694 209.944L380.857 220.851Z" fill="#A0616A"/>
<path d="M417.512 236.507C417.512 236.507 413.944 234.156 410.642 234.979C409.028 235.335 407.452 235.846 405.937 236.507C405.937 236.507 387.697 261.486 377.876 262.19C377.876 262.19 364.897 265.708 368.054 260.431C371.211 255.153 378.128 244.046 378.128 244.046C378.128 244.046 365.599 247.062 365.599 251.283C365.599 255.505 363.143 263.245 363.143 263.245C363.143 263.245 351.217 275.207 363.143 289.28C375.069 303.353 370.51 316.019 370.51 316.019L423.124 306.519L417.512 236.507Z" fill="#D0CDE1"/>
<path d="M362.091 280.836L358.934 329.388L362.091 374.421C362.091 374.421 375.07 377.235 378.226 374.421C381.383 371.606 371.562 298.779 371.562 298.779L362.091 280.836Z" fill="#D0CDE1"/>
<path d="M398.882 176.602C405.835 176.602 411.472 170.948 411.472 163.974C411.472 157 405.835 151.346 398.882 151.346C391.928 151.346 386.292 157 386.292 163.974C386.292 170.948 391.928 176.602 398.882 176.602Z" fill="#2F2E41"/>
<path d="M382.095 157.134C382.095 154.012 383.248 151.001 385.33 148.682C387.413 146.363 390.279 144.899 393.374 144.574C392.938 144.528 392.5 144.506 392.062 144.505C388.723 144.505 385.521 145.836 383.16 148.204C380.798 150.572 379.472 153.784 379.472 157.134C379.472 160.483 380.798 163.695 383.16 166.063C385.521 168.431 388.723 169.762 392.062 169.762C392.5 169.762 392.938 169.739 393.374 169.694C390.279 169.368 387.413 167.905 385.33 165.585C383.248 163.266 382.095 160.255 382.095 157.134V157.134Z" fill="#2F2E41"/>
<path d="M403.219 197.027C405.005 190.286 397.373 182.402 386.173 179.417C374.973 176.432 364.445 179.476 362.659 186.216C360.874 192.956 368.506 200.841 379.706 203.826C390.906 206.811 401.434 203.767 403.219 197.027Z" fill="#2F2E41"/>
<path d="M378.77 372.197C378.77 372.197 356.304 389.725 364.371 391.484C372.439 393.243 385.417 373.893 385.417 373.893L378.77 372.197Z" fill="#A0616A"/>
<path d="M408.743 238.618C408.743 238.618 418.564 230.174 423.124 241.784C427.684 253.394 420.669 310.741 420.669 310.741L386.995 378.995C386.995 378.995 370.86 379.698 374.368 368.088C377.876 356.478 401.552 301.77 402.955 300.363C404.358 298.955 408.743 238.618 408.743 238.618Z" fill="#D0CDE1"/>
<path opacity="0.1" d="M364.198 290.576C364.198 290.576 371.939 307.039 371.312 311.441C370.685 315.843 364.198 290.576 364.198 290.576Z" fill="black"/>
<path d="M402.254 205.371C403.222 205.371 404.008 203.795 404.008 201.852C404.008 199.909 403.222 198.334 402.254 198.334C401.285 198.334 400.5 199.909 400.5 201.852C400.5 203.795 401.285 205.371 402.254 205.371Z" fill="#A0616A"/>
<path opacity="0.1" d="M233.657 395.957C244.952 395.957 254.109 393.916 254.109 391.398C254.109 388.88 244.952 386.839 233.657 386.839C222.361 386.839 213.204 388.88 213.204 391.398C213.204 393.916 222.361 395.957 233.657 395.957Z" fill="black"/>
<path d="M233.657 391.398C239.681 391.398 244.565 386.499 244.565 380.457C244.565 374.414 239.681 369.516 233.657 369.516C227.632 369.516 222.749 374.414 222.749 380.457C222.749 386.499 227.632 391.398 233.657 391.398Z" fill="#D05F5F"/>
<path opacity="0.1" d="M291.833 395.957C303.129 395.957 312.286 393.916 312.286 391.398C312.286 388.88 303.129 386.839 291.833 386.839C280.537 386.839 271.38 388.88 271.38 391.398C271.38 393.916 280.537 395.957 291.833 395.957Z" fill="black"/>
<path d="M291.833 391.398C297.858 391.398 302.741 386.499 302.741 380.457C302.741 374.414 297.858 369.516 291.833 369.516C285.809 369.516 280.925 374.414 280.925 380.457C280.925 386.499 285.809 391.398 291.833 391.398Z" fill="#D05F5F"/>
<path d="M234.911 373.439H232.184V387.115H234.911V373.439Z" fill="#D0CDE1"/>
<path d="M290.815 373.439H288.088V387.115H290.815V373.439Z" fill="#D0CDE1"/>
<path d="M294.905 373.439H292.178V387.115H294.905V373.439Z" fill="#D0CDE1"/>
</g>
<defs>
<clipPath id="clip0">
<rect width="382" height="320" fill="white" transform="translate(63 94)"/>
</clipPath>
</defs>
</svg>
