<svg width="508" height="508" viewBox="0 0 508 508" fill="none" xmlns="http://www.w3.org/2000/svg">
<circle cx="254" cy="254" r="254" fill="#D05F5F" fill-opacity="0.2"/>
<g clip-path="url(#clip0_1_736)">
<path d="M76.6835 281.609V281.77L76.623 281.843L76.6835 281.609Z" fill="#CACACA"/>
<path d="M148.29 305.884C147.01 306.316 145.731 306.748 144.454 307.182V305.884H148.29Z" fill="white"/>
<path d="M292.749 98.6861H283.292V122.286H292.749V98.6861Z" fill="#E4E4E4"/>
<path d="M309.074 120.426V357.978C297.05 356.206 285.195 353.433 273.634 349.688C271.393 348.962 269.166 348.2 266.952 347.402C266.354 347.193 265.757 346.971 265.163 346.753C262.668 345.83 260.191 344.862 257.734 343.847C255.666 342.997 253.611 342.114 251.568 341.199C249.557 340.293 247.56 339.356 245.576 338.39C242.329 336.802 239.118 335.138 235.942 333.396C233.491 332.042 231.072 330.637 228.686 329.181V120.426H309.074Z" fill="#E4E4E4"/>
<path d="M341.497 120.426V360.36C337.669 360.364 333.842 360.266 330.014 360.066C328.916 360.01 327.817 359.945 326.719 359.873C320.933 359.49 315.166 358.876 309.417 358.031C309.304 358.015 309.187 357.998 309.074 357.978V120.426H341.497Z" fill="#CACACA"/>
<path d="M255.369 144.026H243.21V156.163H255.369V144.026Z" fill="white"/>
<path d="M274.959 144.026H262.8V156.163H274.959V144.026Z" fill="white"/>
<path d="M294.549 144.026H282.39V156.163H294.549V144.026Z" fill="white"/>
<path d="M255.707 171.672H243.548V183.809H255.707V171.672Z" fill="white"/>
<path d="M275.297 171.672H263.138V183.809H275.297V171.672Z" fill="white"/>
<path d="M294.887 171.672H282.728V183.809H294.887V171.672Z" fill="white"/>
<path d="M256.045 199.318H243.885V211.455H256.045V199.318Z" fill="white"/>
<path d="M275.635 199.318H263.476V211.455H275.635V199.318Z" fill="white"/>
<path d="M295.225 199.318H283.065V211.455H295.225V199.318Z" fill="white"/>
<path d="M256.382 226.964H244.223V239.101H256.382V226.964Z" fill="white"/>
<path d="M275.973 226.964H263.813V239.101H275.973V226.964Z" fill="white"/>
<path d="M295.563 226.964H283.403V239.101H295.563V226.964Z" fill="white"/>
<path d="M256.72 254.61H244.561V266.748H256.72V254.61Z" fill="white"/>
<path d="M276.31 254.61H264.151V266.748H276.31V254.61Z" fill="white"/>
<path d="M295.9 254.61H283.741V266.748H295.9V254.61Z" fill="white"/>
<path d="M257.058 282.256H244.899V294.394H257.058V282.256Z" fill="white"/>
<path d="M276.648 282.256H264.489V294.394H276.648V282.256Z" fill="white"/>
<path d="M296.238 282.256H284.079V294.394H296.238V282.256Z" fill="white"/>
<path d="M257.396 309.902H245.237V322.04H257.396V309.902Z" fill="white"/>
<path d="M276.986 309.902H264.826V322.04H276.986V309.902Z" fill="white"/>
<path d="M296.576 309.902H284.417V322.04H296.576V309.902Z" fill="white"/>
<path d="M257.734 337.548V343.848C255.666 342.997 253.611 342.114 251.568 341.199C249.557 340.293 247.56 339.356 245.576 338.39V337.548H257.734Z" fill="white"/>
<path d="M277.325 337.548V349.688H273.634C271.393 348.962 269.166 348.2 266.952 347.402C266.354 347.193 265.757 346.971 265.163 346.753V337.548L277.325 337.548Z" fill="white"/>
<path d="M296.913 337.549H284.754V349.686H296.913V337.549Z" fill="white"/>
<path d="M402.97 218.873H393.512V232.86H402.97V218.873Z" fill="#E4E4E4"/>
<path d="M410.402 231.659V348.881C388.303 356.584 364.92 360.348 341.497 360.36C337.669 360.364 333.841 360.266 330.014 360.066V231.659H410.402Z" fill="#E4E4E4"/>
<path d="M442.825 231.659V333.92C436.645 337.63 430.218 340.915 423.589 343.751C419.253 345.625 414.857 347.335 410.402 348.882V231.659H442.825Z" fill="#CACACA"/>
<path d="M358.048 254.61H345.888V266.748H358.048V254.61Z" fill="white"/>
<path d="M377.638 254.61H365.479V266.748H377.638V254.61Z" fill="white"/>
<path d="M397.228 254.61H385.069V266.748H397.228V254.61Z" fill="white"/>
<path d="M358.386 282.256H346.226V294.394H358.386V282.256Z" fill="white"/>
<path d="M377.976 282.256H365.816V294.394H377.976V282.256Z" fill="white"/>
<path d="M397.565 282.256H385.406V294.394H397.565V282.256Z" fill="white"/>
<path d="M358.723 309.902H346.564V322.04H358.723V309.902Z" fill="white"/>
<path d="M378.313 309.902H366.154V322.04H378.313V309.902Z" fill="white"/>
<path d="M397.903 309.902H385.744V322.04H397.903V309.902Z" fill="white"/>
<path d="M359.061 337.549H346.902V349.686H359.061V337.549Z" fill="white"/>
<path d="M378.651 337.549H366.492V349.686H378.651V337.549Z" fill="white"/>
<path d="M398.241 337.549H386.082V349.686H398.241V337.549Z" fill="white"/>
<path d="M339.529 364.058C339.529 364.058 343.855 379.413 361.97 378.715C380.086 378.017 387.918 363.778 387.918 363.778L339.529 364.058Z" fill="#3F3D56"/>
<path d="M89.8963 304.17L84.7207 313.632L85.561 331.392L209.584 368.177L263.591 374.807L253.032 310.516L216.085 303.986L160.66 305.566L113.671 296.911L89.8963 304.17Z" fill="#2F2E41"/>
<path d="M107.161 366.431H103.959C100.864 366.442 97.8309 365.568 95.2174 363.913C92.604 362.258 90.52 359.89 89.2117 357.09C84.276 346.335 85.7381 331.462 85.7597 331.25C86.8782 318.395 93.9363 310.008 103.324 310.388C113.688 310.805 122.526 346.588 122.897 348.111C123.513 350.679 123.351 353.372 122.431 355.849C121.288 358.968 119.207 361.658 116.474 363.552C113.741 365.446 110.488 366.451 107.161 366.431V366.431Z" fill="#3F3D56"/>
<path d="M237.718 391C237.17 390.987 236.624 390.934 236.084 390.842C231.941 390.191 228.026 388.523 224.689 385.987C221.352 383.451 218.698 380.128 216.966 376.315C215.668 373.497 214.419 370.612 213.254 367.74C208.577 356.204 212.498 336.038 218.87 328.233C224.493 321.343 230.153 321.398 238.721 321.479C239.601 321.487 240.512 321.495 241.458 321.497C250.972 321.513 261.029 356.445 264.334 367.924C264.597 368.838 264.815 369.594 264.983 370.16C265.501 371.905 265.439 373.991 264.8 376.361C262.784 383.838 256.138 389.383 248.263 390.16C242.606 390.717 239.059 391 237.718 391Z" fill="#3F3D56"/>
<path d="M85.5608 331.392C85.5608 331.392 81.9247 315.199 87.3789 304.17L92.876 290.909L113.649 310.173L118.392 340.317L199.679 352.611C199.679 352.611 194.644 303.193 226.25 301.239C257.856 299.284 272.853 352.611 272.853 352.611L288.624 364.058L398.546 355.961C398.546 355.961 400.486 361.266 397.698 364.058C394.91 366.85 261.493 375.505 261.493 375.505C261.493 375.505 254.78 309.336 228.208 315.478C201.637 321.62 209.584 368.177 209.584 368.177L114.65 351.494C114.65 351.494 111.573 306.544 95.9097 306.544C80.2465 306.544 85.5608 331.392 85.5608 331.392Z" fill="#3F3D56"/>
<path d="M104.293 275.096L122.202 247.075L198.56 242.608L283.309 243.725L322.747 280.299L200.797 287.279L102.623 281.974L104.293 275.096Z" fill="#3F3D56"/>
<path d="M104.293 275.096C104.293 275.096 89.0571 275.413 87.3789 304.17C87.3789 304.17 103.602 274.855 117.587 340.187L201.077 353.727C201.077 353.727 198.001 299.284 229.607 303.472C261.213 307.66 268.765 357.636 268.765 357.636C268.765 357.636 274.918 369.921 308.762 367.966C342.606 366.012 393.232 362.941 398.546 355.961C398.546 355.961 410.853 314.361 372.534 287.558L322.747 280.299L210.028 282.533L104.293 275.096Z" fill="#D05F5F"/>
<path d="M142.48 294.678H132.97C132.713 294.679 132.457 294.629 132.219 294.531C131.98 294.433 131.764 294.29 131.581 294.108C131.398 293.926 131.253 293.711 131.155 293.473C131.056 293.235 131.005 292.981 131.005 292.723C131.005 292.466 131.056 292.211 131.155 291.974C131.253 291.736 131.398 291.52 131.581 291.339C131.764 291.157 131.98 291.013 132.219 290.916C132.457 290.818 132.713 290.768 132.97 290.769H142.48C142.998 290.771 143.494 290.978 143.86 291.344C144.225 291.71 144.431 292.206 144.431 292.723C144.431 293.24 144.225 293.736 143.86 294.103C143.494 294.469 142.998 294.676 142.48 294.678V294.678Z" fill="#CACACA"/>
<path d="M287.225 355.403C290.624 355.403 293.379 352.653 293.379 349.26C293.379 345.868 290.624 343.118 287.225 343.118C283.827 343.118 281.072 345.868 281.072 349.26C281.072 352.653 283.827 355.403 287.225 355.403Z" fill="white"/>
<path d="M284.177 319.121C279.964 319.121 274.934 317.326 270.432 313.865C262.488 307.756 259.151 298.736 262.992 293.758C266.834 288.78 276.422 289.701 284.366 295.809C288.205 298.761 291.096 302.471 292.505 306.256C293.923 310.063 293.675 313.493 291.806 315.915C290.142 318.072 287.398 319.121 284.177 319.121Z" fill="white"/>
<path d="M393.525 311.322C390.425 311.322 384.858 308.19 379.346 303.106C376.042 300.058 373.304 296.792 371.638 293.908C369.946 290.979 369.56 288.775 370.553 287.703C371.545 286.631 373.776 286.841 376.835 288.293C379.847 289.724 383.325 292.19 386.629 295.237C393.602 301.668 397.464 308.434 395.422 310.64C395.172 310.88 394.873 311.065 394.546 311.183C394.219 311.3 393.871 311.348 393.525 311.322V311.322Z" fill="white"/>
<path d="M133.583 275.09C133.516 275.09 133.449 275.087 133.382 275.081L113.157 273.204C112.788 273.17 112.434 273.042 112.128 272.833C111.823 272.624 111.576 272.34 111.411 272.009C111.246 271.677 111.168 271.309 111.185 270.94C111.203 270.57 111.315 270.211 111.51 269.897L122.915 251.543C123.101 251.242 123.358 250.992 123.664 250.813C123.969 250.635 124.314 250.533 124.668 250.518L139.752 249.854C140.099 249.838 140.445 249.906 140.76 250.051C141.075 250.196 141.351 250.415 141.564 250.688C141.778 250.962 141.923 251.282 141.987 251.622C142.051 251.963 142.032 252.314 141.933 252.646L135.668 273.541C135.533 273.988 135.257 274.38 134.881 274.659C134.506 274.938 134.051 275.089 133.583 275.09Z" fill="white"/>
<path d="M186.879 279.391C186.679 279.391 186.478 279.381 186.276 279.361L151.311 275.926C150.428 275.839 149.573 275.56 148.809 275.11C148.044 274.66 147.386 274.049 146.883 273.319C146.379 272.589 146.041 271.758 145.891 270.884C145.742 270.01 145.786 269.115 146.02 268.259L151.05 249.836C151.388 248.579 152.123 247.464 153.145 246.656C154.167 245.848 155.423 245.39 156.726 245.349L184.945 244.365C186.476 244.32 187.968 244.847 189.13 245.844C190.291 246.841 191.037 248.235 191.221 249.753L193.55 269.803C193.628 270.472 193.594 271.149 193.449 271.807L192.837 274.599C192.54 275.956 191.787 277.171 190.703 278.042C189.62 278.913 188.27 279.389 186.879 279.391Z" fill="white"/>
<path d="M214.167 280.36C213.144 280.357 212.152 280.01 211.351 279.374C210.55 278.738 209.987 277.852 209.753 276.857L203.584 250.244C203.431 249.581 203.429 248.892 203.579 248.228C203.729 247.564 204.028 246.943 204.452 246.41C204.876 245.877 205.416 245.447 206.03 245.151C206.644 244.856 207.317 244.702 207.998 244.702H281.144C281.75 244.703 282.35 244.825 282.909 245.061C283.467 245.297 283.973 245.642 284.396 246.076L308.288 270.664C308.901 271.296 309.317 272.092 309.484 272.956C309.651 273.82 309.562 274.714 309.227 275.529C308.893 276.343 308.328 277.042 307.601 277.54C306.874 278.038 306.018 278.314 305.137 278.334L214.268 280.359C214.234 280.36 214.201 280.36 214.167 280.36Z" fill="white"/>
<path d="M121.577 248.052L122.202 247.075C122.202 247.075 125.838 237.024 175.904 235.349C225.971 233.674 272.681 234.511 283.309 243.725L196.882 243.446L123.88 248.471L121.577 248.052Z" fill="#D05F5F"/>
<path d="M97.8677 319.666C92.6156 319.666 88.3579 328.416 88.3579 339.209C88.3579 350.003 92.6156 358.753 97.8677 358.753C103.12 358.753 107.378 350.003 107.378 339.209C107.378 328.416 103.12 319.666 97.8677 319.666ZM98.2873 323.854C99.4458 323.854 100.385 326.104 100.385 328.879C100.385 331.655 99.4458 333.905 98.2873 333.905C97.1287 333.905 96.1895 331.655 96.1895 328.879C96.1895 326.104 97.1287 323.854 98.2873 323.854ZM99.5459 339.209C99.5459 340.135 98.9198 340.885 98.1474 340.885C97.3751 340.885 96.7489 340.135 96.7489 339.209C96.7489 338.284 97.3751 337.534 98.1474 337.534C98.9198 337.534 99.5459 338.284 99.5459 339.209V339.209ZM92.2388 340.284C90.4402 340.423 88.9355 339.929 88.8776 339.181C88.8197 338.433 90.2306 337.714 92.0291 337.576C93.8275 337.437 95.3323 337.931 95.3902 338.679C95.4481 339.427 94.0371 340.146 92.2388 340.285L92.2388 340.284ZM98.2873 354.565C97.1288 354.565 96.1895 352.315 96.1895 349.54C96.1895 346.764 97.1288 344.514 98.2873 344.514C99.4459 344.514 100.385 346.764 100.385 349.54C100.385 352.315 99.4458 354.565 98.2873 354.565H98.2873ZM103.707 340.284C101.908 340.423 100.403 339.929 100.345 339.181C100.287 338.433 101.698 337.714 103.497 337.576C105.295 337.437 106.8 337.931 106.858 338.679C106.916 339.427 105.505 340.146 103.706 340.285L103.707 340.284Z" fill="#E4E4E4"/>
<path d="M230.726 332.788C222.384 332.788 215.622 343.975 215.622 357.776C215.622 371.576 222.384 382.764 230.726 382.764C239.067 382.764 245.829 371.576 245.829 357.776C245.829 343.975 239.067 332.788 230.726 332.788ZM221.702 359.651C219.266 359.839 217.228 359.17 217.15 358.157C217.071 357.143 218.982 356.17 221.418 355.982C223.854 355.794 225.893 356.463 225.971 357.476C226.05 358.489 224.138 359.463 221.702 359.651ZM230.735 378.715C229.165 378.715 227.893 375.668 227.893 371.908C227.893 368.149 229.165 365.101 230.735 365.101C232.304 365.101 233.576 368.149 233.576 371.908C233.576 375.668 232.304 378.715 230.735 378.715V378.715ZM228.488 357.915C228.488 356.435 229.49 355.235 230.726 355.235C231.961 355.235 232.963 356.435 232.963 357.915C232.963 359.396 231.961 360.596 230.726 360.596C229.49 360.596 228.488 359.396 228.488 357.915ZM230.735 350.73C229.165 350.73 227.893 347.682 227.893 343.923C227.893 340.163 229.165 337.115 230.735 337.115C232.304 337.115 233.576 340.163 233.576 343.923C233.576 347.682 232.304 350.73 230.735 350.73V350.73ZM240.313 359.093C237.877 359.28 235.838 358.611 235.76 357.598C235.681 356.585 237.593 355.611 240.029 355.423C242.465 355.236 244.503 355.905 244.581 356.918C244.66 357.931 242.749 358.905 240.313 359.093Z" fill="#E4E4E4"/>
<path d="M177.862 282.812L181.218 290.629C181.218 290.629 186.812 292.863 190.449 285.325L183.081 277.97L177.862 282.812Z" fill="#CACACA"/>
<path d="M173.247 284.627C167.232 284.627 162.339 281.371 162.339 277.368C162.339 273.365 167.232 270.109 173.247 270.109C179.262 270.109 184.156 273.365 184.156 277.368C184.156 281.371 179.262 284.627 173.247 284.627Z" fill="#CACACA"/>
<path d="M383.583 310.173L321.047 311.998C321.047 311.998 307.362 315.83 305.965 326.778C305.965 326.778 307.92 335.719 312.948 335.719C317.975 335.719 395.062 331.705 395.062 331.705C395.062 331.705 400.089 324.041 395.9 318.567C391.71 313.093 383.583 310.173 383.583 310.173Z" fill="#3F3D56"/>
<path d="M388.997 313.661L315.661 316.082L315.689 316.919L389.025 314.498L388.997 313.661Z" fill="#E4E4E4"/>
<path d="M391.665 316.315L311.904 319.922L311.942 320.759L391.703 317.152L391.665 316.315Z" fill="#E4E4E4"/>
<path d="M394.456 319.92L308.921 324.505L308.966 325.341L394.501 320.756L394.456 319.92Z" fill="#E4E4E4"/>
<path d="M97.4231 301.364C97.0815 300.926 96.8403 300.419 96.7164 299.878C96.5925 299.336 96.5891 298.775 96.7062 298.232C96.8234 297.689 97.0583 297.179 97.3944 296.737C97.7306 296.294 98.1598 295.931 98.6518 295.672L97.8573 287.03L103.001 285.268L103.951 297.487C104.332 298.342 104.386 299.305 104.102 300.196C103.819 301.087 103.217 301.844 102.413 302.322C101.608 302.8 100.655 302.966 99.7353 302.79C98.8155 302.614 97.9925 302.107 97.4224 301.365L97.4231 301.364Z" fill="#FFB8B8"/>
<path d="M102.945 251.765C102.945 251.765 106.474 244.371 109.611 246.97C112.747 249.569 105.311 271.434 105.311 271.434L104.18 292.659L98.2191 292.064L96.5337 271.387L102.945 251.765Z" fill="#E6E6E6"/>
<path d="M55.6008 361.155L60.0255 364.731L75.9463 349.395L69.4161 344.119L55.6008 361.155Z" fill="#FFB8B8"/>
<path d="M55.6412 358.801L64.3551 365.841C65.8278 367.032 66.7665 368.757 66.9648 370.638C67.1631 372.519 66.6048 374.401 65.4127 375.871L65.2666 376.051L51 364.525L55.6412 358.801Z" fill="#2F2E41"/>
<path d="M117.095 371.08H122.788L125.494 349.16H117.094L117.095 371.08Z" fill="#FFB8B8"/>
<path d="M115.642 369.225H126.854C128.748 369.225 130.565 369.976 131.905 371.313C133.245 372.651 133.998 374.465 133.998 376.356V376.588H115.642L115.642 369.225Z" fill="#2F2E41"/>
<path d="M127.084 268.326C127.084 268.326 137.764 281.302 135.442 294.282C133.12 307.262 131.263 316.994 131.263 316.994L127.55 346.194C127.55 346.194 128.943 354.148 127.086 356.196C127.086 356.196 129.872 361.027 124.764 362.881C119.656 364.735 116.898 362.241 116.898 362.241C116.898 362.241 113.153 356.856 115.475 355.468L116.453 298.157L79.2563 346.658C79.2563 346.658 78.5727 352.556 73.8065 352.62L68.1119 356.855L61.6111 353.146L64.8615 348.975C64.8615 348.975 63.0041 344.34 67.1832 343.413L91.3293 311.895L97.3658 295.672C97.3658 295.672 100.616 283.158 109.439 278.059V272.634L127.084 268.326Z" fill="#2F2E41"/>
<path d="M108.742 245.846C110.148 244.187 112.116 243.103 114.271 242.799C116.427 242.495 118.618 242.993 120.429 244.199L120.815 244.456C124.937 249.115 127.707 254.808 128.827 260.922L130.566 270.412L108.742 275.131L103.626 257.517C102.976 255.282 103.132 252.89 104.067 250.757C105.002 248.625 106.656 246.887 108.742 245.846L108.742 245.846Z" fill="#E6E6E6"/>
<path d="M144.598 303.382C143.993 303.185 143.439 302.857 142.974 302.423C142.509 301.988 142.146 301.458 141.909 300.868C141.672 300.278 141.568 299.644 141.603 299.009C141.639 298.375 141.813 297.756 142.114 297.196L135.818 289.505L139.567 284.546L148.305 295.532C149.214 296.099 149.883 296.979 150.185 298.006C150.486 299.032 150.401 300.133 149.944 301.101C149.487 302.068 148.69 302.835 147.705 303.255C146.72 303.676 145.614 303.721 144.598 303.382H144.598Z" fill="#FFB8B8"/>
<path d="M118.029 252.798C118.029 252.798 116.636 243.528 121.279 243.992C125.923 244.455 132.888 269.948 132.888 269.948L145.425 290.806L139.389 294.05L124.53 275.51L118.029 252.798Z" fill="#E6E6E6"/>
<path d="M126.532 239.246H104.42C103.966 239.245 103.529 239.065 103.208 238.744C102.886 238.423 102.705 237.987 102.705 237.533V228.02C102.705 224.639 104.05 221.396 106.446 219.005C108.841 216.614 112.089 215.271 115.476 215.271C118.863 215.271 122.112 216.614 124.507 219.005C126.902 221.396 128.248 224.639 128.248 228.02V228.02V237.533C128.247 237.987 128.066 238.423 127.745 238.744C127.423 239.065 126.987 239.245 126.532 239.246V239.246Z" fill="#2F2E41"/>
<path d="M118.101 239.024C123.272 239.024 127.464 234.84 127.464 229.678C127.464 224.516 123.272 220.331 118.101 220.331C112.93 220.331 108.737 224.516 108.737 229.678C108.737 234.84 112.93 239.024 118.101 239.024Z" fill="#FFB8B8"/>
<path d="M131.269 228.971H119.485L119.364 227.033L118.76 228.971H116.946L116.706 225.131L115.509 228.971H111.998V228.781C111.998 223.22 115.948 218.696 120.805 218.696H122.466C127.321 218.696 131.273 223.22 131.273 228.781L131.269 228.971Z" fill="#2F2E41"/>
<path d="M119.973 241.022C119.829 241.022 119.685 241.011 119.543 240.989L105.517 238.832V224.25C105.517 222.76 106.11 221.331 107.165 220.278C108.22 219.224 109.652 218.633 111.144 218.633H120.957L120.576 219.021C115.257 224.425 119.264 233.19 122.126 237.934C122.336 238.275 122.431 238.675 122.396 239.073C122.362 239.472 122.2 239.849 121.935 240.15C121.692 240.429 121.39 240.652 121.051 240.803C120.712 240.954 120.345 241.029 119.974 241.023L119.973 241.022Z" fill="#2F2E41"/>
</g>
<defs>
<clipPath id="clip0_1_736">
<rect width="435" height="316" fill="white" transform="translate(51 75)"/>
</clipPath>
</defs>
</svg>
