<svg width="553" height="508" viewBox="0 0 553 508" fill="none" xmlns="http://www.w3.org/2000/svg">
<circle cx="277" cy="254" r="254" fill="#D05F5F" fill-opacity="0.2"/>
<g clip-path="url(#clip0)">
<path d="M168.861 115.682C170.949 109.041 175.696 102.949 182.26 100.704C188.825 98.4588 198.438 101.879 203.374 106.79C212.402 115.773 214.605 146.632 208.402 156.383C207.169 156.318 202.911 156.27 201.663 156.223L199.896 150.346V156.165C190.15 155.865 180.004 156.053 169.852 156.248C168.942 149.343 166.774 122.324 168.861 115.682Z" fill="#2F2E41"/>
<path d="M265.344 218.443C264.467 218.326 263.626 218.018 262.882 217.541C262.137 217.065 261.506 216.431 261.033 215.685C260.56 214.938 260.256 214.097 260.144 213.221C260.032 212.345 260.113 211.455 260.383 210.614L243.18 197.73L253.7 193.966L268.423 206.777C269.808 207.323 270.945 208.357 271.618 209.684C272.291 211.011 272.453 212.538 272.073 213.975C271.694 215.413 270.799 216.662 269.559 217.486C268.318 218.309 266.819 218.65 265.344 218.443V218.443Z" fill="#9E616A"/>
<path d="M197.007 150.914L198.653 145.101C198.653 145.101 202.757 143.765 209.761 148.836C216.765 153.907 259.997 199.174 259.997 199.174L247.126 200.971L207.788 172.914L197.007 150.914Z" fill="#E6E6E6"/>
<path d="M466.337 372.958C492.665 359.535 513.627 332.623 513.048 303.115C488.434 323.76 457.299 335.048 425.151 334.981C412.753 334.911 398.971 333.543 389.336 341.332C383.34 346.179 380.197 353.857 379.267 361.502C378.337 369.148 379.381 376.88 380.423 384.512L379.776 386.323C409.269 388.343 440.009 386.38 466.337 372.958Z" fill="#F0F0F0"/>
<path d="M512.432 303.044C500.964 324.332 482.609 342.101 460.729 352.533C455.999 354.789 451.003 356.666 445.78 357.348C440.684 357.975 435.512 357.227 430.803 355.183C426.374 353.365 422.055 350.994 417.26 350.283C412.206 349.533 407.375 351.186 403.457 354.374C398.663 358.276 395.559 363.664 392.706 369.039C389.54 375.007 386.345 381.256 380.751 385.332C380.074 385.826 380.881 386.847 381.558 386.354C391.289 379.261 393.633 366.479 401.601 357.899C405.319 353.895 410.268 350.986 415.894 351.436C420.813 351.828 425.27 354.27 429.738 356.149C434.43 358.122 439.188 359.214 444.303 358.811C449.536 358.398 454.615 356.712 459.383 354.587C470.157 349.689 480.094 343.129 488.828 335.148C498.846 326.095 507.24 315.398 513.645 303.519C514.041 302.784 512.826 302.313 512.432 303.044V303.044Z" fill="white"/>
<path d="M468.02 349.517C470.314 352.962 473.759 355.48 477.74 356.623C481.722 357.767 485.981 357.459 489.757 355.757C490.519 355.41 490.015 354.21 489.251 354.557C485.738 356.149 481.771 356.435 478.065 355.363C474.36 354.291 471.16 351.932 469.044 348.712C468.583 348.012 467.562 348.821 468.02 349.517V349.517Z" fill="white"/>
<path d="M432.927 356.4C434.526 348.097 439.2 340.7 446.019 335.684C446.695 335.188 445.887 334.167 445.212 334.663C438.127 339.895 433.278 347.602 431.633 356.247C431.477 357.071 432.772 357.219 432.927 356.4H432.927Z" fill="white"/>
<path d="M497.273 325.382C496.108 324.233 495.246 322.814 494.766 321.251C494.286 319.688 494.202 318.031 494.522 316.427C494.688 315.606 493.393 315.458 493.228 316.274C492.883 318.047 492.978 319.878 493.504 321.606C494.031 323.334 494.974 324.906 496.25 326.187C496.36 326.317 496.516 326.401 496.686 326.422C496.856 326.442 497.027 326.396 497.165 326.295C497.3 326.188 497.387 326.032 497.407 325.861C497.428 325.69 497.38 325.518 497.273 325.382H497.273Z" fill="white"/>
<path d="M434.685 240.948C434.566 241.458 434.447 241.968 434.319 242.482C432.688 249.332 430.504 256.038 427.785 262.535C427.583 263.04 427.371 263.55 427.155 264.049C420.439 279.63 410.884 293.832 398.976 305.931C394.233 310.742 389.13 315.185 383.712 319.222C376.229 324.797 367.671 330.248 362.619 337.745C362.083 338.522 361.595 339.33 361.16 340.167L377.614 385.394C377.703 385.478 377.782 385.567 377.871 385.651L378.445 387.487C378.739 387.298 379.04 387.096 379.334 386.907C379.505 386.799 379.672 386.68 379.843 386.571C379.956 386.495 380.069 386.419 380.175 386.357C380.213 386.332 380.25 386.307 380.278 386.285C380.384 386.223 380.476 386.155 380.572 386.096C382.256 384.972 383.936 383.833 385.611 382.681C385.622 382.677 385.622 382.677 385.628 382.663C398.368 373.85 410.483 363.897 420.699 352.425C421.006 352.08 421.324 351.732 421.624 351.366C426.2 346.169 430.344 340.608 434.012 334.738C436.011 331.517 437.845 328.197 439.507 324.791C443.786 315.982 446.649 306.556 447.994 296.858C450.671 277.526 447.126 257.554 435.578 242.119C435.283 241.724 434.991 241.339 434.685 240.948Z" fill="#F0F0F0"/>
<path d="M434.147 241.258C437.828 265.149 433.888 290.369 422.709 311.851C420.293 316.495 417.436 320.997 413.677 324.681C409.986 328.245 405.406 330.756 400.413 331.955C395.781 333.166 390.902 333.869 386.645 336.183C382.158 338.622 379.297 342.846 378.091 347.747C376.616 353.744 377.387 359.912 378.351 365.918C379.421 372.586 380.639 379.496 378.631 386.113C378.388 386.915 379.649 387.245 379.891 386.444C383.384 374.931 377.547 363.317 378.735 351.677C379.289 346.245 381.486 340.947 386.249 337.925C390.414 335.281 395.444 334.552 400.146 333.366C405.082 332.121 409.539 330.133 413.38 326.737C417.309 323.262 420.348 318.863 422.873 314.301C428.522 303.912 432.5 292.702 434.661 281.08C437.2 267.83 437.451 254.244 435.402 240.909C435.275 240.084 434.02 240.438 434.147 241.258V241.258Z" fill="white"/>
<path d="M426.712 305.06C430.62 306.432 434.89 306.372 438.759 304.892C442.627 303.411 445.842 300.606 447.83 296.977C448.23 296.241 447.104 295.586 446.704 296.323C444.859 299.706 441.863 302.319 438.258 303.69C434.653 305.061 430.676 305.101 427.044 303.802C426.254 303.52 425.927 304.78 426.712 305.06Z" fill="white"/>
<path d="M402.843 331.65C399.112 324.059 398.384 315.343 400.803 307.24C401.044 306.438 399.784 306.108 399.543 306.909C397.041 315.346 397.818 324.415 401.718 332.305C402.09 333.057 403.213 332.397 402.843 331.65Z" fill="white"/>
<path d="M435.514 268.206C433.891 267.989 432.347 267.374 431.021 266.415C429.695 265.456 428.629 264.183 427.917 262.71C427.555 261.954 426.432 262.614 426.792 263.365C427.586 264.989 428.765 266.393 430.228 267.456C431.69 268.519 433.392 269.208 435.183 269.464C435.349 269.502 435.525 269.475 435.672 269.389C435.82 269.303 435.93 269.164 435.978 269C436.022 268.833 435.997 268.656 435.91 268.508C435.823 268.359 435.681 268.25 435.514 268.206V268.206Z" fill="white"/>
<path d="M149.674 159.525C127.12 140.444 94.1676 131.507 67.1182 143.414C95.6868 158.131 118.12 182.463 130.45 212.105C135.163 223.553 139.211 236.777 150.124 242.651C156.915 246.306 165.222 246.242 172.647 244.152C180.072 242.062 186.816 238.12 193.468 234.218L195.391 234.116C185.89 206.168 172.227 178.606 149.674 159.525Z" fill="#F0F0F0"/>
<path d="M67.2895 144.009C91.3854 146.368 114.882 156.428 132.958 172.564C136.866 176.052 140.526 179.931 143.171 184.479C145.714 188.933 147.016 193.985 146.942 199.111C146.969 203.892 146.443 208.785 147.633 213.476C148.888 218.421 152.278 222.234 156.735 224.615C162.189 227.528 168.366 228.31 174.433 228.866C181.169 229.483 188.175 230.018 194.099 233.599C194.817 234.033 195.45 232.896 194.733 232.463C184.426 226.231 171.709 229 160.708 224.966C155.575 223.084 150.978 219.646 149.225 214.291C147.692 209.607 148.231 204.561 148.245 199.72C148.261 194.637 147.436 189.833 145.092 185.276C142.694 180.615 139.177 176.585 135.376 173.012C126.695 164.974 116.802 158.349 106.06 153.379C93.8315 147.64 80.7096 144.03 67.262 142.708C66.4296 142.627 66.4626 143.928 67.2896 144.009L67.2895 144.009Z" fill="white"/>
<path d="M127.36 167.01C129.66 163.569 130.66 159.425 130.182 155.316C129.704 151.207 127.778 147.402 124.749 144.58C124.134 144.011 123.22 144.938 123.836 145.508C126.661 148.131 128.454 151.675 128.892 155.502C129.329 159.329 128.382 163.186 126.222 166.377C125.753 167.071 126.894 167.7 127.36 167.01V167.01Z" fill="white"/>
<path d="M147.248 196.685C138.958 198.413 130.319 196.958 123.056 192.61C122.337 192.178 121.704 193.315 122.422 193.746C129.989 198.257 138.982 199.753 147.605 197.936C148.427 197.762 148.065 196.512 147.248 196.685V196.685Z" fill="white"/>
<path d="M93.7782 149.364C93.1661 150.88 92.1864 152.221 90.9271 153.265C89.6677 154.31 88.1681 155.026 86.563 155.35C85.7394 155.513 86.1018 156.763 86.92 156.601C88.6918 156.235 90.3469 155.442 91.7409 154.291C93.1349 153.14 94.2252 151.665 94.9167 149.996C94.9951 149.844 95.0126 149.668 94.9657 149.504C94.9188 149.34 94.811 149.199 94.6642 149.111C94.5131 149.028 94.3352 149.008 94.1693 149.056C94.0034 149.103 93.8629 149.213 93.7782 149.364V149.364Z" fill="white"/>
<path d="M39.8657 239.567C40.3829 239.479 40.9001 239.392 41.4251 239.312C48.3842 238.174 55.4245 237.602 62.4764 237.602C63.0216 237.593 63.5743 237.593 64.1186 237.6C81.1083 237.78 97.9167 241.108 113.689 247.415C119.963 249.93 126.037 252.918 131.857 256.354C139.894 261.098 148.23 266.881 157.107 268.646C158.031 268.84 158.966 268.978 159.907 269.057L195.366 236.466C195.409 236.352 195.46 236.245 195.504 236.13L196.98 234.893C196.692 234.695 196.389 234.496 196.101 234.298C195.935 234.182 195.76 234.074 195.594 233.958C195.481 233.884 195.367 233.809 195.269 233.735C195.231 233.71 195.193 233.686 195.163 233.669C195.064 233.595 194.965 233.536 194.875 233.47C193.186 232.352 191.486 231.243 189.775 230.144C189.768 230.136 189.768 230.136 189.752 230.135C176.696 221.796 162.828 214.472 148.288 209.482C147.85 209.332 147.406 209.174 146.952 209.039C140.385 206.826 133.648 205.152 126.809 204.035C123.061 203.435 119.286 203.026 115.497 202.807C105.707 202.261 95.8911 203.256 86.4102 205.755C67.5108 210.741 50.4187 221.705 40.6032 238.292C40.3524 238.716 40.1091 239.134 39.8657 239.567Z" fill="#F0F0F0"/>
<path d="M40.3598 239.943C61.0218 227.343 85.8495 221.251 110.013 223.269C115.237 223.706 120.498 224.602 125.352 226.645C130.069 228.672 134.155 231.923 137.187 236.06C140.092 239.861 142.622 244.085 146.402 247.114C150.386 250.308 155.392 251.315 160.387 250.537C166.498 249.585 171.901 246.497 177.081 243.294C182.832 239.738 188.748 235.953 195.638 235.251C196.473 235.166 196.292 233.878 195.458 233.963C183.471 235.183 174.987 245.037 163.771 248.43C158.537 250.013 152.794 250.03 148.164 246.808C144.116 243.99 141.503 239.637 138.595 235.763C135.542 231.695 131.986 228.355 127.367 226.126C122.641 223.846 117.403 222.742 112.214 222.174C100.435 220.974 88.5409 221.631 76.9668 224.12C63.7415 226.887 51.0879 231.893 39.5533 238.921C38.8396 239.356 39.6507 240.375 40.3598 239.943L40.3598 239.943Z" fill="white"/>
<path d="M102.193 222.2C101.955 218.07 100.254 214.16 97.3947 211.167C94.5352 208.174 90.7031 206.293 86.5828 205.86C85.7488 205.776 85.5778 207.066 86.4129 207.151C90.2505 207.546 93.8199 209.299 96.477 212.091C99.1342 214.884 100.704 218.532 100.903 222.379C100.947 223.215 102.237 223.031 102.193 222.2V222.2Z" fill="white"/>
<path d="M135.969 233.939C130.391 240.302 122.617 244.333 114.195 245.227C113.361 245.315 113.541 246.603 114.375 246.515C123.137 245.568 131.219 241.358 137.008 234.724C137.56 234.091 136.517 233.31 135.969 233.939V233.939Z" fill="white"/>
<path d="M64.7387 228.296C65.1643 229.875 65.1907 231.534 64.8152 233.125C64.4398 234.716 63.6743 236.19 62.5877 237.413C62.0285 238.038 63.0717 238.818 63.6272 238.197C64.8215 236.84 65.6648 235.212 66.0835 233.455C66.5022 231.698 66.4836 229.865 66.0291 228.117C66.0001 227.948 65.908 227.797 65.7715 227.694C65.635 227.591 65.4643 227.544 65.2941 227.562C65.1234 227.587 64.9693 227.678 64.8652 227.815C64.7612 227.953 64.7157 228.125 64.7387 228.296V228.296Z" fill="white"/>
<path d="M389.287 273.733C389.193 272.09 388.52 270.533 387.386 269.338C386.253 268.143 384.732 267.388 383.094 267.206L282.297 255.851C281.33 255.741 280.351 255.834 279.423 256.124L256.3 263.352L243.033 267.503L218.549 275.155C217.071 275.619 215.789 276.559 214.904 277.828C214.019 279.098 213.581 280.625 213.658 282.169L217.791 380.249C217.879 381.843 218.509 383.36 219.577 384.548C220.645 385.736 222.086 386.526 223.664 386.786L326.582 387.01C327.065 387.088 327.556 387.114 328.045 387.087C328.757 387.053 329.46 386.909 330.129 386.662L390.439 386.246C391.844 385.729 393.045 384.774 393.864 383.522C394.682 382.27 395.075 380.788 394.983 379.296L389.287 273.733Z" fill="white"/>
<path d="M224.635 380.754L327.553 380.977C327.703 381.002 327.858 380.988 328.001 380.935L388.303 380.522C388.48 380.459 388.631 380.339 388.734 380.182C388.837 380.025 388.885 379.838 388.872 379.651L383.184 274.086C383.17 273.881 383.085 273.688 382.944 273.539C382.803 273.391 382.615 273.295 382.411 273.27L381.733 273.19L281.61 261.923C281.564 261.917 281.518 261.916 281.471 261.919C281.396 261.921 281.321 261.933 281.249 261.954L224.852 279.587L220.376 280.983C220.192 281.042 220.034 281.16 219.924 281.318C219.814 281.476 219.759 281.666 219.767 281.858L223.902 379.934C223.912 380.134 223.99 380.324 224.124 380.474C224.257 380.623 224.438 380.722 224.635 380.754V380.754Z" fill="#D05F5F"/>
<path d="M224.852 279.587L281.249 261.954C281.321 261.933 281.396 261.921 281.471 261.919C281.517 261.916 281.564 261.917 281.61 261.923L381.733 273.19L357.619 281.024L348.594 283.951L322.914 292.288C322.838 292.308 322.761 292.324 322.683 292.334C322.634 292.33 322.584 292.326 322.525 292.323L224.852 279.587Z" fill="#2F2E41"/>
<path d="M223.663 386.791L326.581 387.013C327.065 387.09 327.556 387.113 328.046 387.082C328.759 387.049 329.463 386.909 330.134 386.666L390.436 386.253C391.842 385.735 393.043 384.779 393.862 383.526C394.681 382.273 395.074 380.79 394.984 379.297L389.285 273.733C389.213 272.496 388.815 271.301 388.13 270.268C388.036 270.131 387.942 269.995 387.839 269.869C387.13 268.944 386.196 268.215 385.125 267.752C384.48 267.469 383.795 267.285 383.094 267.207L382.975 267.191L282.302 255.85C281.892 255.809 281.479 255.797 281.067 255.814C280.507 255.852 279.954 255.958 279.42 256.129L256.3 263.349L243.035 267.507L218.547 275.158C217.545 275.47 216.627 276.004 215.862 276.722C215.801 276.769 215.744 276.822 215.693 276.879C215.655 276.917 215.62 276.957 215.588 276.999C214.933 277.684 214.424 278.495 214.092 279.383C213.761 280.27 213.614 281.216 213.66 282.162L217.786 380.249C217.874 381.844 218.505 383.362 219.573 384.551C220.642 385.74 222.085 386.53 223.663 386.791V386.791ZM215.403 282.081C215.355 281.1 215.589 280.126 216.075 279.272C216.219 279 216.391 278.744 216.588 278.506C217.122 277.849 217.81 277.332 218.59 277C218.744 276.933 218.902 276.876 219.063 276.828L260.295 263.944L279.945 257.789C280.078 257.745 280.203 257.72 280.327 257.687C280.629 257.616 280.938 257.574 281.248 257.562C281.531 257.539 281.815 257.546 282.097 257.583L382.89 268.941C382.969 268.951 383.04 268.963 383.12 268.973C384.043 269.11 384.911 269.497 385.63 270.092C386.194 270.544 386.656 271.111 386.986 271.754C387.315 272.397 387.505 273.102 387.544 273.824L393.233 379.399C393.302 380.517 393.008 381.627 392.396 382.566C391.784 383.504 390.886 384.222 389.834 384.612L329.523 385.026C328.67 385.338 327.752 385.426 326.855 385.282L223.939 385.069C222.757 384.871 221.678 384.278 220.878 383.388C220.079 382.497 219.606 381.361 219.538 380.167L215.403 282.081Z" fill="#3F3D56"/>
<path d="M328.358 387.276C328.127 387.287 327.902 387.208 327.73 387.054C327.559 386.901 327.455 386.686 327.441 386.456L321.769 291.51C321.755 291.279 321.834 291.052 321.988 290.879C322.142 290.706 322.358 290.601 322.589 290.587L322.597 290.587C322.827 290.575 323.053 290.655 323.225 290.808C323.396 290.962 323.5 291.176 323.514 291.406L329.186 386.352C329.2 386.583 329.121 386.81 328.967 386.983C328.813 387.156 328.597 387.261 328.365 387.275L328.358 387.276Z" fill="#3F3D56"/>
<path d="M363.939 380.853L354.064 380.786L344.695 283.381C344.695 283.381 356.556 278.538 357.076 279.362C357.392 279.853 363.903 380.249 363.939 380.853Z" fill="#3F3D56"/>
<path d="M386.142 270.922L385.43 270.34C384.696 269.738 383.802 269.362 382.857 269.259L282.066 257.901C281.509 257.84 280.947 257.871 280.401 257.993L280.024 258.087L279.948 256.581L296.663 238.12C297.658 237.026 298.893 236.176 300.272 235.636C301.65 235.096 303.135 234.881 304.61 235.008L372.749 241.027C374.784 241.2 376.71 242.021 378.243 243.37C379.776 244.718 380.834 246.523 381.261 248.517L386.142 270.922Z" fill="#3F3D56"/>
<path d="M233.799 345.209C233.906 345.191 234.015 345.186 234.124 345.192L265.146 347.069C265.534 347.093 265.897 347.269 266.155 347.56C266.413 347.851 266.545 348.232 266.522 348.62C266.498 349.007 266.321 349.37 266.03 349.628C265.739 349.885 265.357 350.017 264.969 349.993L233.947 348.116C233.587 348.094 233.248 347.941 232.994 347.685C232.74 347.429 232.589 347.088 232.571 346.729C232.553 346.369 232.668 346.015 232.894 345.735C233.121 345.454 233.443 345.267 233.799 345.209V345.209Z" fill="white"/>
<path d="M234.319 356.089C234.426 356.071 234.535 356.066 234.644 356.072L265.666 357.949C266.054 357.973 266.417 358.149 266.675 358.44C266.933 358.731 267.065 359.112 267.042 359.5C267.018 359.887 266.841 360.25 266.55 360.508C266.259 360.765 265.877 360.897 265.489 360.873L234.467 358.996C234.107 358.974 233.768 358.821 233.514 358.565C233.26 358.309 233.109 357.969 233.091 357.609C233.073 357.249 233.188 356.895 233.414 356.615C233.641 356.334 233.963 356.147 234.319 356.089V356.089Z" fill="white"/>
<path d="M382.695 226.175L322.857 258.702L298.272 213.621L358.111 181.094L382.695 226.175Z" fill="white"/>
<path d="M382.695 226.175L322.857 258.702L298.272 213.621L358.111 181.094L382.695 226.175ZM323.358 257.005L380.996 225.675L357.609 182.791L299.972 214.122L323.358 257.005Z" fill="#E6E6E6"/>
<path d="M356.914 197.663L312.86 221.609L314.459 224.541L358.513 200.595L356.914 197.663Z" fill="#D05F5F"/>
<path d="M361.71 206.459L317.657 230.405L319.256 233.337L363.31 209.391L361.71 206.459Z" fill="#D05F5F"/>
<path d="M366.508 215.255L322.454 239.202L324.053 242.134L368.107 218.187L366.508 215.255Z" fill="#D05F5F"/>
<path d="M246.336 186.449C245.718 185.757 245.507 185.686 245.288 185.838L211.235 209.294C211.018 209.444 211.005 209.664 211.427 210.477C212.54 212.197 213.9 214.228 215.389 216.383L259.202 279.78C263.309 285.723 266.877 290.401 267.155 290.21L301.207 266.754C301.485 266.562 298.371 261.571 294.264 255.629L250.451 192.231C248.965 190.081 247.55 188.096 246.336 186.449Z" fill="white"/>
<path d="M250.873 192.383C250.098 191.299 249.361 190.294 248.702 189.419C247.908 188.37 247.258 187.538 246.765 186.944C246.602 186.75 246.462 186.584 246.336 186.449C245.718 185.757 245.507 185.686 245.288 185.838L211.235 209.294C211.018 209.444 211.005 209.664 211.427 210.477C211.513 210.644 211.62 210.84 211.747 211.065C212.127 211.735 212.674 212.636 213.377 213.752C214.552 215.608 216.098 217.929 217.728 220.288L259.333 280.491C261.223 283.225 263.055 285.761 264.491 287.636C266.882 290.757 267.057 290.637 267.323 290.453L301.375 266.997C301.641 266.814 301.817 266.693 299.743 263.353C298.497 261.348 296.772 258.737 294.883 256.004L253.277 195.8C252.461 194.619 251.647 193.462 250.873 192.383ZM218.215 219.952C216.59 217.6 215.048 215.285 213.879 213.438C213.18 212.331 212.638 211.433 212.265 210.773C212.054 210.424 211.869 210.06 211.713 209.684L245.483 186.422C245.78 186.701 246.056 187.003 246.307 187.324C246.552 187.615 246.835 187.966 247.158 188.377C247.478 188.788 247.835 189.255 248.229 189.776C249.544 191.523 251.163 193.782 252.79 196.136L294.395 256.339C298.344 262.053 300.619 265.819 300.9 266.606L267.125 289.871C266.488 289.329 263.77 285.869 259.821 280.155L218.215 219.952Z" fill="#E4E4E4"/>
<path d="M239.056 205.948L232.609 210.389C232.285 210.612 232.064 210.954 231.993 211.34C231.922 211.726 232.008 212.124 232.231 212.446L236.083 218.021C236.307 218.344 236.649 218.564 237.035 218.635C237.422 218.706 237.82 218.621 238.144 218.399L244.591 213.958C244.913 213.734 245.134 213.392 245.205 213.007C245.276 212.622 245.191 212.224 244.969 211.901L241.116 206.326C240.893 206.003 240.55 205.783 240.164 205.712C239.778 205.641 239.379 205.726 239.056 205.948V205.948Z" fill="#D05F5F"/>
<path d="M255.118 212.082L232.648 227.56C232.575 227.61 232.513 227.674 232.465 227.748C232.417 227.822 232.384 227.905 232.368 227.991C232.353 228.078 232.354 228.167 232.372 228.253C232.391 228.34 232.426 228.421 232.476 228.494C232.527 228.566 232.59 228.628 232.665 228.676C232.739 228.724 232.822 228.757 232.909 228.773C232.995 228.789 233.085 228.788 233.171 228.769C233.257 228.751 233.339 228.715 233.412 228.665L255.882 213.187C255.954 213.137 256.017 213.073 256.065 212.999C256.112 212.925 256.145 212.842 256.161 212.756C256.177 212.669 256.176 212.58 256.157 212.494C256.139 212.408 256.104 212.326 256.053 212.253C256.003 212.181 255.939 212.119 255.865 212.071C255.791 212.023 255.708 211.99 255.621 211.974C255.534 211.958 255.445 211.96 255.359 211.978C255.273 211.997 255.191 212.032 255.118 212.082Z" fill="#E4E4E4"/>
<path d="M242.972 224.271L234.438 230.15C234.365 230.2 234.303 230.264 234.255 230.338C234.207 230.412 234.174 230.495 234.158 230.582C234.142 230.668 234.144 230.757 234.162 230.844C234.181 230.93 234.216 231.012 234.266 231.084C234.316 231.157 234.38 231.219 234.454 231.267C234.529 231.314 234.612 231.347 234.698 231.363C234.785 231.379 234.874 231.378 234.961 231.359C235.047 231.341 235.129 231.306 235.202 231.255L243.736 225.377C243.883 225.276 243.983 225.12 244.016 224.945C244.048 224.77 244.009 224.589 243.908 224.443C243.806 224.296 243.651 224.196 243.476 224.164C243.3 224.132 243.119 224.17 242.972 224.271V224.271Z" fill="#E4E4E4"/>
<path d="M255.711 230.049L249.264 234.49C248.941 234.713 248.72 235.055 248.649 235.441C248.578 235.826 248.663 236.225 248.886 236.547L252.739 242.122C252.963 242.445 253.305 242.665 253.691 242.736C254.077 242.807 254.476 242.722 254.799 242.5L261.247 238.059C261.569 237.835 261.79 237.493 261.861 237.108C261.931 236.723 261.847 236.325 261.625 236.002L257.772 230.427C257.548 230.104 257.206 229.884 256.82 229.813C256.434 229.742 256.035 229.827 255.711 230.049V230.049Z" fill="#D05F5F"/>
<path d="M271.773 236.183L249.304 251.661C249.157 251.762 249.056 251.917 249.024 252.092C248.992 252.268 249.031 252.448 249.132 252.595C249.233 252.741 249.389 252.842 249.564 252.874C249.739 252.906 249.921 252.867 250.067 252.766L272.537 237.288C272.61 237.238 272.672 237.174 272.72 237.1C272.768 237.026 272.801 236.943 272.817 236.857C272.833 236.77 272.831 236.681 272.813 236.595C272.794 236.509 272.759 236.427 272.709 236.354C272.659 236.282 272.595 236.22 272.521 236.172C272.446 236.124 272.364 236.091 272.277 236.075C272.19 236.059 272.101 236.061 272.014 236.079C271.928 236.098 271.846 236.133 271.773 236.183V236.183Z" fill="#E4E4E4"/>
<path d="M259.628 248.372L251.094 254.251C250.947 254.352 250.846 254.508 250.814 254.683C250.782 254.858 250.821 255.039 250.922 255.185C251.023 255.332 251.179 255.432 251.354 255.464C251.53 255.496 251.711 255.458 251.857 255.356L260.392 249.478C260.465 249.428 260.527 249.364 260.575 249.29C260.623 249.216 260.655 249.133 260.671 249.046C260.687 248.959 260.686 248.87 260.667 248.784C260.649 248.698 260.614 248.616 260.563 248.544C260.513 248.471 260.449 248.409 260.375 248.361C260.301 248.313 260.218 248.281 260.131 248.265C260.044 248.249 259.955 248.25 259.869 248.269C259.783 248.287 259.701 248.322 259.628 248.372V248.372Z" fill="#E4E4E4"/>
<path d="M272.367 254.15L265.92 258.591C265.597 258.814 265.375 259.156 265.304 259.542C265.233 259.927 265.319 260.326 265.542 260.648L269.395 266.223C269.618 266.546 269.96 266.766 270.347 266.837C270.733 266.908 271.131 266.823 271.455 266.601L277.902 262.16C278.224 261.936 278.445 261.594 278.516 261.209C278.587 260.824 278.502 260.426 278.28 260.103L274.427 254.528C274.204 254.205 273.862 253.985 273.475 253.914C273.089 253.843 272.691 253.928 272.367 254.15V254.15Z" fill="#D05F5F"/>
<path d="M288.429 260.284L265.959 275.762C265.887 275.812 265.824 275.876 265.777 275.95C265.729 276.024 265.696 276.107 265.68 276.193C265.664 276.28 265.665 276.369 265.684 276.455C265.702 276.542 265.738 276.623 265.788 276.696C265.838 276.768 265.902 276.83 265.976 276.878C266.05 276.926 266.133 276.959 266.22 276.975C266.307 276.991 266.396 276.99 266.482 276.971C266.569 276.953 266.65 276.917 266.723 276.867L289.193 261.389C289.34 261.288 289.44 261.133 289.473 260.958C289.505 260.783 289.466 260.602 289.365 260.455C289.263 260.309 289.108 260.208 288.932 260.176C288.757 260.144 288.576 260.183 288.429 260.284V260.284Z" fill="#E4E4E4"/>
<path d="M276.284 272.473L267.749 278.352C267.677 278.402 267.615 278.466 267.567 278.54C267.519 278.614 267.486 278.697 267.47 278.784C267.454 278.87 267.455 278.959 267.474 279.046C267.492 279.132 267.528 279.214 267.578 279.286C267.628 279.359 267.692 279.421 267.766 279.469C267.84 279.516 267.923 279.549 268.01 279.565C268.097 279.581 268.186 279.58 268.272 279.561C268.359 279.543 268.44 279.507 268.513 279.457L277.048 273.579C277.194 273.478 277.295 273.322 277.327 273.147C277.359 272.972 277.32 272.791 277.219 272.645C277.118 272.498 276.962 272.398 276.787 272.366C276.612 272.334 276.431 272.372 276.284 272.473V272.473Z" fill="#E4E4E4"/>
<path d="M347.761 214.75C347.626 211.45 347.42 209.323 347.183 209.323H260.287C260.05 209.323 259.844 211.45 259.709 214.75C259.62 217.05 259.562 219.92 259.562 223.028V283.474L259.915 283.519L274.201 285.377L289.09 287.325L295.893 288.209L310.442 290.106L322.526 291.682C322.584 291.688 322.635 291.688 322.687 291.695C322.764 291.682 322.841 291.669 322.911 291.65L327.667 290.106L333.154 288.324L347.555 283.647L347.908 283.532V223.028C347.908 219.92 347.85 217.05 347.761 214.75Z" fill="white"/>
<path d="M348.049 213.321C348.005 212.462 347.96 211.77 347.908 211.219C347.872 210.643 347.791 210.071 347.664 209.508C347.523 208.97 347.363 208.97 347.183 208.97H260.287C260.107 208.97 259.947 208.97 259.806 209.508C259.681 210.1 259.6 210.699 259.562 211.302C259.517 211.841 259.472 212.507 259.427 213.321C259.286 215.916 259.209 219.363 259.209 223.028V283.423L259.562 283.474L259.915 283.519V223.028C259.915 219.837 259.972 217.133 260.056 214.999C260.072 213.214 260.215 211.433 260.486 209.669H346.99C347.261 211.431 347.405 213.21 347.421 214.993C347.498 217.127 347.555 219.831 347.555 223.028V283.647L348.261 283.416V223.028C348.261 219.363 348.184 215.916 348.049 213.321Z" fill="#E4E4E4"/>
<path d="M286.991 227.75H275.908C275.633 227.749 275.36 227.803 275.106 227.908C274.851 228.012 274.62 228.166 274.425 228.36C274.23 228.554 274.075 228.784 273.97 229.038C273.864 229.292 273.81 229.564 273.809 229.839V239.424C273.809 239.699 273.863 239.972 273.968 240.226C274.074 240.481 274.228 240.712 274.423 240.907C274.618 241.101 274.85 241.255 275.104 241.361C275.359 241.466 275.632 241.52 275.908 241.519H286.991C287.548 241.519 288.082 241.298 288.475 240.905C288.869 240.512 289.09 239.98 289.09 239.424V229.839C289.088 229.284 288.867 228.753 288.473 228.361C288.08 227.97 287.547 227.75 286.991 227.75V227.75Z" fill="#D05F5F"/>
<path d="M332.711 231.46H294.077C293.825 231.46 293.583 231.56 293.405 231.738C293.227 231.915 293.127 232.157 293.127 232.408C293.127 232.66 293.227 232.901 293.405 233.079C293.583 233.256 293.825 233.356 294.077 233.356H332.711C332.963 233.356 333.205 233.256 333.383 233.079C333.561 232.901 333.661 232.66 333.661 232.408C333.661 232.157 333.561 231.915 333.383 231.738C333.205 231.56 332.963 231.46 332.711 231.46V231.46Z" fill="#E4E4E4"/>
<path d="M308.747 235.913H294.077C293.825 235.913 293.583 236.013 293.405 236.191C293.227 236.368 293.127 236.61 293.127 236.861C293.127 237.113 293.227 237.354 293.405 237.532C293.583 237.709 293.825 237.809 294.077 237.809H308.747C308.999 237.809 309.241 237.709 309.419 237.532C309.597 237.354 309.697 237.113 309.697 236.861C309.697 236.61 309.597 236.368 309.419 236.191C309.241 236.013 308.999 235.913 308.747 235.913V235.913Z" fill="#E4E4E4"/>
<path d="M286.991 256.121H275.908C275.351 256.122 274.818 256.342 274.424 256.735C274.031 257.128 273.81 257.661 273.809 258.217V267.802C273.81 268.357 274.031 268.89 274.424 269.283C274.818 269.676 275.351 269.897 275.908 269.897H286.991C287.548 269.896 288.081 269.675 288.474 269.282C288.867 268.889 289.089 268.357 289.09 267.802V258.217C289.089 257.661 288.867 257.129 288.474 256.737C288.081 256.344 287.548 256.123 286.991 256.121V256.121Z" fill="#D05F5F"/>
<path d="M332.711 259.831H294.076C293.824 259.831 293.581 259.931 293.402 260.11C293.224 260.288 293.123 260.53 293.123 260.783C293.123 261.035 293.224 261.277 293.402 261.456C293.581 261.634 293.824 261.734 294.076 261.734H332.711C332.964 261.734 333.206 261.634 333.385 261.456C333.564 261.277 333.664 261.035 333.664 260.783C333.664 260.53 333.564 260.288 333.385 260.11C333.206 259.931 332.964 259.831 332.711 259.831V259.831Z" fill="#E4E4E4"/>
<path d="M308.747 264.284H294.076C293.824 264.284 293.581 264.384 293.402 264.563C293.224 264.741 293.123 264.983 293.123 265.236C293.123 265.488 293.224 265.73 293.402 265.909C293.581 266.087 293.824 266.187 294.076 266.187H308.747C309 266.187 309.242 266.087 309.421 265.909C309.6 265.73 309.7 265.488 309.7 265.236C309.7 264.983 309.6 264.741 309.421 264.563C309.242 264.384 309 264.284 308.747 264.284Z" fill="#E4E4E4"/>
<path d="M288.788 285.518C288.603 285.207 288.34 284.95 288.025 284.771C287.71 284.592 287.354 284.499 286.991 284.499H275.908C275.574 284.498 275.244 284.578 274.947 284.731C274.65 284.883 274.394 285.105 274.201 285.377L289.09 287.325V286.588C289.09 286.21 288.986 285.84 288.788 285.518V285.518Z" fill="#D05F5F"/>
<path d="M332.711 288.209H295.893L310.442 290.106H327.667L333.154 288.324C333.019 288.247 332.866 288.207 332.711 288.209V288.209Z" fill="#E4E4E4"/>
<path d="M386.845 271.499C386.774 271.544 386.699 271.581 386.62 271.608L383.431 272.639L357.618 281.026L348.595 283.948L348.261 284.057L347.555 284.288L333.154 288.965L327.667 290.746L322.911 292.291C322.841 292.31 322.764 292.323 322.687 292.335C322.635 292.329 322.584 292.329 322.526 292.323L310.442 290.746L295.893 288.85L289.09 287.966L274.201 286.018L259.915 284.16L259.562 284.115L259.209 284.064L216.589 278.508L216.229 278.457C216.146 278.45 216.066 278.426 215.992 278.387C215.82 278.31 215.678 278.18 215.585 278.016C215.493 277.852 215.456 277.663 215.479 277.477C215.495 277.321 215.555 277.172 215.652 277.048C215.69 277.009 215.722 276.971 215.761 276.939C215.793 276.919 215.831 276.881 215.87 276.862C216.042 276.743 216.253 276.693 216.46 276.721L218.591 277.003L259.209 282.302L259.562 282.346L259.915 282.391L280.959 285.14L288.788 286.159L309.396 288.85L322.558 290.567L327.853 288.85L344.693 283.384L347.555 282.455L347.908 282.34L348.261 282.225L357.073 279.367L383.283 270.852L385.632 270.089L386.087 269.942C386.284 269.88 386.495 269.889 386.686 269.968C386.876 270.046 387.032 270.189 387.127 270.371C387.15 270.414 387.17 270.459 387.185 270.506C387.242 270.686 387.24 270.88 387.179 271.058C387.118 271.237 387.001 271.392 386.845 271.499Z" fill="#3F3D56"/>
<path d="M298.221 331.754C297.658 331.754 297.095 331.71 296.538 331.623L232.101 321.576C229.888 321.224 227.835 320.21 226.213 318.666C224.591 317.123 223.477 315.125 223.018 312.935L215.826 278.086L216.269 278.14L323.989 291.14L308.239 325.354C307.353 327.263 305.94 328.879 304.165 330.013C302.39 331.146 300.328 331.75 298.221 331.754V331.754Z" fill="#3F3D56"/>
<path d="M186.368 372.128L194.215 370.494L191.64 339.499L180.058 341.91L186.368 372.128Z" fill="#9E616A"/>
<path d="M182.902 368.816L185.247 387.844L185.252 387.883L185.435 387.844L190.822 386.721L190.721 381.267L194.36 385.989L197.844 385.266V385.261L204.881 383.797L205.451 383.681L207.623 383.228L209.129 382.915C209.692 382.796 210.217 382.536 210.652 382.16C211.088 381.783 211.42 381.302 211.618 380.762C211.816 380.221 211.873 379.64 211.783 379.071C211.694 378.503 211.461 377.967 211.107 377.513C210.836 377.17 210.502 376.88 210.123 376.66C210.075 376.636 210.026 376.607 209.978 376.583H209.973C209.901 376.545 209.828 376.511 209.751 376.477L209.621 376.419L207.319 375.451L207.309 375.446L201.232 372.892L196.261 370.801L195.156 365.496L193.829 365.857L185.527 368.102L182.902 368.816Z" fill="#2F2E41"/>
<path d="M132.439 346.823L138.533 352.022L161.519 331.029L152.525 323.356L132.439 346.823Z" fill="#9E616A"/>
<path d="M123.594 359.269L127.856 355.85L126.344 361.611L137.812 371.395C138.147 371.684 138.536 371.902 138.956 372.038C139.273 372.141 139.603 372.197 139.936 372.204C140.462 372.217 140.984 372.108 141.46 371.884C141.937 371.661 142.354 371.33 142.68 370.918C143.006 370.505 143.232 370.023 143.339 369.508C143.446 368.994 143.431 368.462 143.296 367.954L139.542 353.825L143.071 349.706L141.972 348.88L135.113 343.697L132.943 342.059L119.272 355.575L123.594 359.269Z" fill="#2F2E41"/>
<path d="M163.264 223.06L201.042 221.609L202.463 183.341L170.542 184.364L163.264 223.06Z" fill="#9E616A"/>
<path d="M191.51 137.694C199.456 137.694 205.897 131.263 205.897 123.331C205.897 115.398 199.456 108.967 191.51 108.967C183.565 108.967 177.123 115.398 177.123 123.331C177.123 131.263 183.565 137.694 191.51 137.694Z" fill="#9E616A"/>
<path d="M179.094 110.716L195.659 102.435C199.045 103.959 201.962 106.359 204.106 109.387C206.251 112.416 207.544 115.961 207.853 119.657L208.266 124.595L201.33 122.832L200.57 116.518L199.392 122.339L196.191 121.526L196.221 111.724L193.018 121.519L181.584 118.897L179.094 110.716Z" fill="#2F2E41"/>
<path d="M201.769 212.905C201.769 212.905 214.355 234.746 202.204 267.885L185.02 311.631L155.162 341.797L139.117 332.327L168.95 307.074L155.646 262.047C152.582 251.843 151.637 241.121 152.87 230.54C153.829 222.622 160.986 216.443 165.882 208.97C182.232 219.498 201.063 217.805 201.769 212.905Z" fill="#2F2E41"/>
<path d="M185.04 300.569L196.243 352.523L180.038 355.573L170.809 311.898L185.04 300.569Z" fill="#2F2E41"/>
<path d="M180.966 142.497L199.567 142.744L205.621 150.419C208.512 151.1 211.139 152.614 213.176 154.773C215.212 156.933 216.568 159.642 217.074 162.564L217.645 165.859C218.827 172.676 217.573 179.69 214.101 185.678V185.678L202.746 196.379L203.238 197.272C203.481 197.714 203.553 198.23 203.439 198.721C203.325 199.212 203.033 199.644 202.62 199.933C202.969 200.811 203.009 201.78 202.735 202.684L202.495 203.476C202.495 203.476 208.862 205.166 169.583 199.345C168.751 199.221 167.982 198.83 167.392 198.231C166.802 197.632 166.424 196.857 166.314 196.024V196.024C165.887 195.595 165.606 195.044 165.51 194.447C165.414 193.85 165.508 193.238 165.779 192.698L165.859 192.538L165.455 192.064C165.006 191.536 164.747 190.874 164.719 190.182C164.69 189.49 164.894 188.809 165.298 188.246V188.246L165.195 165.775C164.723 162.402 165.466 158.973 167.292 156.097C169.118 153.221 171.908 151.087 175.164 150.074V150.074L180.966 142.497Z" fill="#E6E6E6"/>
<path d="M233.876 238.565C233.866 237.682 233.663 236.811 233.28 236.015C232.897 235.219 232.344 234.516 231.66 233.956C230.976 233.397 230.177 232.993 229.32 232.775C228.462 232.557 227.568 232.529 226.698 232.694L215.991 214.075L210.964 224.039L221.903 240.192C222.276 241.632 223.165 242.884 224.402 243.713C225.639 244.542 227.137 244.889 228.613 244.688C230.089 244.487 231.44 243.753 232.41 242.625C233.38 241.496 233.901 240.052 233.876 238.565V238.565Z" fill="#9E616A"/>
<path d="M175.087 162.605L169.106 163.526C169.106 163.526 167.277 167.43 171.463 174.989C175.65 182.548 215.373 230.914 215.373 230.914L218.731 218.38L195.642 175.974L175.087 162.605Z" fill="#E6E6E6"/>
<path d="M552.236 388H0.764136C0.561855 387.999 0.368063 387.919 0.225235 387.776C0.0824076 387.633 0.00219727 387.439 0.00219727 387.237C0.00219727 387.035 0.0824076 386.841 0.225235 386.698C0.368063 386.555 0.561855 386.475 0.764136 386.474H552.236C552.438 386.474 552.633 386.555 552.776 386.698C552.919 386.841 553 387.035 553 387.237C553 387.439 552.919 387.633 552.776 387.777C552.633 387.92 552.438 388 552.236 388V388Z" fill="#CCCCCC"/>
</g>
<defs>
<clipPath id="clip0">
<rect width="553" height="288" fill="white" transform="translate(0 100)"/>
</clipPath>
</defs>
</svg>
