<svg width="864" height="179" viewBox="0 0 864 179" fill="none" xmlns="http://www.w3.org/2000/svg">
<path d="M373.998 143H390.331L406.371 85.2852H406.737L422.924 143H439.403L460.497 65.9492H444.823L430.761 126.594H430.395L414.281 65.9492H399.047L383.007 126.594H382.714L368.651 65.9492H352.831L373.998 143ZM502.611 144.538C521.288 144.538 533.153 133.405 535.644 121.174L535.79 120.368H520.775L520.556 120.954C518.578 126.74 512.353 131.574 502.978 131.574C490.38 131.574 482.396 123.078 482.104 108.503H536.669V103.156C536.669 80.0117 523.412 64.4844 501.806 64.4844C480.199 64.4844 466.283 80.5977 466.283 104.694V104.768C466.283 129.084 479.979 144.538 502.611 144.538ZM501.879 77.4482C512.206 77.4482 519.677 83.9668 520.995 97.2969H482.323C483.715 84.4062 491.625 77.4482 501.879 77.4482ZM589.916 144.538C609.472 144.538 622.143 129.011 622.143 104.475V104.401C622.143 79.8652 609.398 64.4844 590.062 64.4844C579.149 64.4844 570.36 69.9775 565.746 79.0596H565.38V37.3115H549.56V143H565.38V129.963H565.746C570.287 138.972 578.856 144.538 589.916 144.538ZM585.741 130.915C573.729 130.915 565.307 120.515 565.307 104.475V104.401C565.307 88.4346 573.803 78.0342 585.741 78.0342C598.192 78.0342 605.956 88.1416 605.956 104.401V104.475C605.956 120.881 598.192 130.915 585.741 130.915ZM663.158 144.538C674.218 144.538 682.714 138.972 687.328 129.963H687.621V143H703.515V37.3115H687.621V79.0596H687.328C682.714 69.9775 673.925 64.4844 663.012 64.4844C643.676 64.4844 630.932 79.8652 630.932 104.401V104.475C630.932 129.011 643.529 144.538 663.158 144.538ZM667.333 130.915C654.809 130.915 647.118 120.881 647.118 104.475V104.401C647.118 88.1416 654.882 78.0342 667.333 78.0342C679.198 78.0342 687.694 88.4346 687.694 104.401V104.475C687.694 120.515 679.271 130.915 667.333 130.915ZM752.66 144.538C771.337 144.538 783.202 133.405 785.692 121.174L785.839 120.368H770.824L770.604 120.954C768.627 126.74 762.401 131.574 753.026 131.574C740.429 131.574 732.445 123.078 732.152 108.503H786.718V103.156C786.718 80.0117 773.461 64.4844 751.854 64.4844C730.248 64.4844 716.332 80.5977 716.332 104.694V104.768C716.332 129.084 730.028 144.538 752.66 144.538ZM751.928 77.4482C762.255 77.4482 769.726 83.9668 771.044 97.2969H732.372C733.764 84.4062 741.674 77.4482 751.928 77.4482ZM817.26 143H834.252L861.864 65.9492H845.385L826.049 127.546H825.683L806.347 65.9492H789.501L817.26 143Z" fill="#575859"/>
<rect width="38.9535" height="114.741" transform="matrix(-0.866025 0.5 0.5 0.866025 164.523 33.4014)" fill="#575859"/>
<rect width="38.9535" height="114.741" transform="matrix(-0.866025 -0.5 -0.5 0.866025 282.396 57.1626)" fill="#D05F5F"/>
<rect x="18.3372" y="48.9829" width="38.9535" height="114.741" transform="rotate(-30 18.3372 48.9829)" fill="#575859"/>
<rect x="136.085" y="34.5698" width="38.9535" height="114.741" transform="rotate(30 136.085 34.5698)" fill="#D05F5F"/>
<circle r="19.4767" transform="matrix(-1 0 0 1 264.523 48.9826)" fill="#D05F5F"/>
<circle cx="35.4767" cy="45.4767" r="27.4767" fill="#D05F5F" stroke="white" stroke-width="16"/>
<circle r="19.4767" transform="matrix(-1 0 0 1 152.337 45.8664)" fill="#D05F5F"/>
<circle r="19.4767" transform="matrix(-1 0 0 1 207.481 148.314)" fill="#D05F5F"/>
<circle cx="93.9069" cy="146.366" r="19.4767" fill="#D05F5F"/>
</svg>
